<?xml version="1.0" encoding="UTF-8"?>
<!DOCTYPE svg PUBLIC "-//W3C//DTD SVG 1.1//EN" "http://www.w3.org/Graphics/SVG/1.1/DTD/svg11.dtd">
<!-- Creator: CorelDRAW 2017 -->
<svg xmlns="http://www.w3.org/2000/svg" xml:space="preserve" width="212.846mm" height="212.846mm" version="1.1" style="shape-rendering:geometricPrecision; text-rendering:geometricPrecision; image-rendering:optimizeQuality; fill-rule:evenodd; clip-rule:evenodd"
viewBox="0 0 195.9 195.9"
 xmlns:xlink="http://www.w3.org/1999/xlink">
 <defs>
  <style type="text/css">
   <![CDATA[
    .fil0 {fill:#FFB14A}
    .fil1 {fill:white;fill-rule:nonzero}
   ]]>
  </style>
 </defs>
 <g id="Слой_x0020_1">
  <metadata id="CorelCorpID_0Corel-Layer"/>
  <path class="fil0" d="M97.95 0c54.1,0 97.95,43.85 97.95,97.95 0,54.1 -43.85,97.95 -97.95,97.95 -54.1,0 -97.95,-43.85 -97.95,-97.95 0,-54.1 43.85,-97.95 97.95,-97.95z"/>
  <path class="fil1" d="M141.74 141.86c0.15,0.46 0.3,1.22 0.3,1.52 0,1.52 -1.21,2.13 -3.19,2.13l-12.62 0c-2.89,0 -4.26,-1.67 -4.72,-3.19l-7.9 -25.85 -32.54 0 -7.91 25.85c-0.45,1.52 -1.82,3.19 -4.71,3.19l-11.41 0c-1.97,0 -3.19,-0.61 -3.19,-2.13 0,-0.3 0.15,-1.06 0.3,-1.52l30.27 -94.43c1.06,-3.19 2.88,-4.41 5.17,-4.41l16.88 0c2.59,0 3.8,1.98 4.56,4.41l30.72 94.43zm-44.86 -83.94l-4.86 19.32 -7.91 25.09 26.31 0 -8.21 -25.09 -5.02 -19.32 -0.3 0z"/>
 </g>
</svg>
