<?xml version="1.0" encoding="UTF-8"?>
<!DOCTYPE svg PUBLIC "-//W3C//DTD SVG 1.1//EN" "http://www.w3.org/Graphics/SVG/1.1/DTD/svg11.dtd">
<!-- Creator: CorelDRAW 2017 -->
<svg xmlns="http://www.w3.org/2000/svg" xml:space="preserve" width="173.177mm" height="173.177mm" version="1.1" style="shape-rendering:geometricPrecision; text-rendering:geometricPrecision; image-rendering:optimizeQuality; fill-rule:evenodd; clip-rule:evenodd"
viewBox="0 0 136.82 136.82"
 xmlns:xlink="http://www.w3.org/1999/xlink">
 <defs>
  <style type="text/css">
   <![CDATA[
    .fil0 {fill:white}
   ]]>
  </style>
 </defs>
 <g id="Слой_x0020_1">
  <metadata id="CorelCorpID_0Corel-Layer"/>
  <path class="fil0" d="M60.06 0l16.7 0c3.08,0 5.59,2.51 5.59,5.6l0 12.89c4.05,1.13 7.9,2.75 11.49,4.77l9.13 -9.13c2.18,-2.18 5.73,-2.18 7.91,-0l11.81 11.81c2.17,2.17 2.18,5.73 -0,7.91l-9.13 9.13c2.02,3.58 3.63,7.43 4.76,11.48l12.9 0c3.08,0 5.6,2.52 5.6,5.59l0 16.7c0,3.08 -2.51,5.59 -5.6,5.59l-12.9 0c-1.13,4.05 -2.74,7.91 -4.76,11.49l9.13 9.13c2.18,2.18 2.18,5.74 0,7.91l-11.81 11.81c-2.17,2.18 -5.73,2.18 -7.91,0l-9.13 -9.13c-3.58,2.02 -7.44,3.63 -11.49,4.76l0 12.9c0,3.07 -2.52,5.59 -5.59,5.59l-16.7 0c-3.08,0 -5.59,-2.52 -5.59,-5.59l0 -12.9c-4.05,-1.13 -7.9,-2.74 -11.48,-4.76l-9.13 9.13c-2.18,2.17 -5.74,2.18 -7.91,0l-11.81 -11.81c-2.17,-2.17 -2.17,-5.73 0,-7.91l9.13 -9.13c-2.03,-3.59 -3.64,-7.44 -4.77,-11.49l-12.9 0c-3.07,0 -5.59,-2.52 -5.59,-5.59l0 -16.7c0,-3.08 2.52,-5.59 5.59,-5.59l12.9 0c1.13,-4.05 2.74,-7.91 4.76,-11.49l-9.12 -9.12c-2.17,-2.17 -2.18,-5.73 -0,-7.91l11.81 -11.81c2.18,-2.17 5.74,-2.17 7.91,0l9.12 9.12c3.59,-2.02 7.44,-3.64 11.49,-4.76l0 -12.89c0,-3.08 2.52,-5.6 5.59,-5.6zm8.35 38.81c16.34,0 29.59,13.25 29.59,29.59 0,16.34 -13.25,29.59 -29.59,29.59 -16.34,0 -29.59,-13.25 -29.59,-29.59 0,-16.34 13.25,-29.59 29.59,-29.59z"/>
 </g>
</svg>
