<?xml version="1.0" encoding="UTF-8"?>
<!DOCTYPE svg PUBLIC "-//W3C//DTD SVG 1.1//EN" "http://www.w3.org/Graphics/SVG/1.1/DTD/svg11.dtd">
<!-- Creator: CorelDRAW 2017 -->
<svg xmlns="http://www.w3.org/2000/svg" xml:space="preserve" width="478.39mm" height="478.39mm" version="1.1" style="shape-rendering:geometricPrecision; text-rendering:geometricPrecision; image-rendering:optimizeQuality; fill-rule:evenodd; clip-rule:evenodd"
viewBox="0 0 985.84 985.84"
 xmlns:xlink="http://www.w3.org/1999/xlink">
 <defs>
  <style type="text/css">
   <![CDATA[
    .fil0 {fill:#FFB14A}
   ]]>
  </style>
 </defs>
 <g id="Слой_x0020_1">
  <metadata id="CorelCorpID_0Corel-Layer"/>
  <g id="_1011707984">
   <path class="fil0" d="M452.67 294.45l188.35 174.82c13.07,12.16 13.79,32.67 1.62,45.74l-191.53 177.9c-13.07,12.16 -33.58,11.45 -45.74,-1.62 -5.81,-6.23 -8.66,-14.14 -8.66,-22.06l-0.1 -352.56c0,-17.91 14.53,-32.44 32.44,-32.44 9.31,0 17.71,3.93 23.62,10.22z"/>
   <path class="fil0" d="M492.92 0c272.24,0 492.92,220.68 492.92,492.92 0,272.24 -220.68,492.92 -492.92,492.92 -272.24,0 -492.92,-220.68 -492.92,-492.92 0,-272.24 220.68,-492.92 492.92,-492.92zm0 19.68c19.81,0 35.86,16.05 35.86,35.86 0,19.81 -16.05,35.86 -35.86,35.86 -19.81,0 -35.86,-16.05 -35.86,-35.86 0,-19.81 16.05,-35.86 35.86,-35.86zm0 874.76c19.81,0 35.86,16.05 35.86,35.86 0,19.81 -16.05,35.86 -35.86,35.86 -19.81,0 -35.86,-16.05 -35.86,-35.86 0,-19.81 16.05,-35.86 35.86,-35.86zm236.62 -811.36c17.15,9.91 23.03,31.83 13.12,48.98 -9.9,17.17 -31.83,23.03 -48.98,13.14 -17.15,-9.91 -23.03,-31.83 -13.12,-49 9.9,-17.15 31.83,-23.02 48.98,-13.12zm-437.38 757.56c17.15,9.91 23.03,31.83 13.12,49 -9.9,17.15 -31.83,23.02 -48.98,13.12 -17.15,-9.91 -23.03,-31.83 -13.12,-48.98 9.9,-17.17 31.83,-23.03 48.98,-13.14zm610.6 -584.34c9.9,17.15 4.03,39.09 -13.12,48.98 -17.17,9.91 -39.09,4.03 -49,-13.12 -9.9,-17.15 -4.03,-39.07 13.14,-48.98 17.15,-9.91 39.07,-4.03 48.98,13.12zm-757.56 437.38c9.89,17.15 4.03,39.07 -13.14,48.98 -17.15,9.91 -39.07,4.03 -48.98,-13.12 -9.9,-17.15 -4.03,-39.09 13.12,-48.98 17.17,-9.91 39.09,-4.03 49,13.12zm820.96 -200.76c0,19.81 -16.05,35.86 -35.86,35.86 -19.83,0 -35.86,-16.05 -35.86,-35.86 0,-19.81 16.03,-35.86 35.86,-35.86 19.81,0 35.86,16.05 35.86,35.86zm-874.76 0c0,19.81 -16.03,35.86 -35.86,35.86 -19.81,0 -35.86,-16.05 -35.86,-35.86 0,-19.81 16.05,-35.86 35.86,-35.86 19.83,0 35.86,16.05 35.86,35.86zm811.36 236.62c-9.91,17.15 -31.83,23.03 -48.98,13.12 -17.17,-9.91 -23.03,-31.83 -13.14,-48.98 9.91,-17.15 31.83,-23.03 49,-13.12 17.15,9.9 23.02,31.83 13.12,48.98zm-757.56 -437.38c-9.91,17.15 -31.83,23.03 -49,13.12 -17.15,-9.89 -23.02,-31.83 -13.12,-48.98 9.91,-17.15 31.83,-23.03 48.98,-13.12 17.17,9.91 23.03,31.83 13.14,48.98zm584.34 610.6c-17.15,9.9 -39.09,4.03 -48.98,-13.12 -9.91,-17.17 -4.03,-39.09 13.12,-49 17.15,-9.9 39.07,-4.03 48.98,13.14 9.91,17.15 4.03,39.07 -13.12,48.98zm-437.38 -757.56c-17.15,9.9 -39.07,4.03 -48.98,-13.14 -9.91,-17.15 -4.03,-39.07 13.12,-48.98 17.15,-9.89 39.09,-4.03 48.98,13.12 9.91,17.17 4.03,39.09 -13.12,49zm200.76 -34.12c210.89,0 381.84,170.95 381.84,381.84 0,210.89 -170.95,381.84 -381.84,381.84 -210.89,0 -381.84,-170.95 -381.84,-381.84 0,-210.89 170.95,-381.84 381.84,-381.84z"/>
  </g>
 </g>
</svg>
