<?xml version="1.0" encoding="UTF-8"?>
<!DOCTYPE svg PUBLIC "-//W3C//DTD SVG 1.1//EN" "http://www.w3.org/Graphics/SVG/1.1/DTD/svg11.dtd">
<!-- Creator: CorelDRAW 2017 -->
<svg xmlns="http://www.w3.org/2000/svg" xml:space="preserve" width="458.199mm" height="458.199mm" version="1.1" style="shape-rendering:geometricPrecision; text-rendering:geometricPrecision; image-rendering:optimizeQuality; fill-rule:evenodd; clip-rule:evenodd"
viewBox="0 0 2256.17 2256.17"
 xmlns:xlink="http://www.w3.org/1999/xlink">
 <defs>
  <style type="text/css">
   <![CDATA[
    .fil1 {fill:#4D4D4D}
    .fil0 {fill:gray}
   ]]>
  </style>
 </defs>
 <g id="Слой_x0020_1">
  <metadata id="CorelCorpID_0Corel-Layer"/>
  <g id="_1060528816">
   <circle class="fil0" cx="1128.09" cy="1128.09" r="1128.09"/>
   <path class="fil1" d="M921.46 767.31l0 136.94 -152.67 0 0 229 152.67 0 0 784.31 291.97 0 0 -784.31 226.7 0 21.38 -229 -248.08 0 0 -166.28c0,-22.83 4.05,-37.58 20.1,-54.47 47.14,-49.57 150.41,-17.33 219.41,-7.3l34.35 -231.86c-126.67,-28.58 -317.51,-44.58 -434.14,14.79 -88.21,44.9 -117.04,121.56 -127.36,208.23 -1.64,13.83 -2.67,27.14 -3.3,40.34 -0.94,19.63 -1.03,39.04 -1.03,59.61z"/>
  </g>
 </g>
</svg>
