<?xml version="1.0" encoding="UTF-8"?>
<!DOCTYPE svg PUBLIC "-//W3C//DTD SVG 1.1//EN" "http://www.w3.org/Graphics/SVG/1.1/DTD/svg11.dtd">
<!-- Creator: CorelDRAW 2017 -->
<svg xmlns="http://www.w3.org/2000/svg" xml:space="preserve" width="163.689mm" height="163.689mm" version="1.1" style="shape-rendering:geometricPrecision; text-rendering:geometricPrecision; image-rendering:optimizeQuality; fill-rule:evenodd; clip-rule:evenodd"
viewBox="0 0 3418.1 3418.1"
 xmlns:xlink="http://www.w3.org/1999/xlink">
 <defs>
  <style type="text/css">
   <![CDATA[
    .fil2 {fill:none}
    .fil0 {fill:#FF9736}
    .fil1 {fill:#4D4D4D;fill-rule:nonzero}
   ]]>
  </style>
 </defs>
 <g id="Слой_x0020_1">
  <metadata id="CorelCorpID_0Corel-Layer"/>
  <g id="_1352998832">
   <g>
    <path class="fil0" d="M1709.05 309.4c652.63,0 1181.74,529.11 1181.74,1181.74 0,324.03 -130.47,617.61 -341.73,831.08l0 0.08 -4.42 4.42 -744.26 744.26c-50.28,50.28 -132.37,50.28 -182.65,0l-744.26 -744.26 -0.76 -0.76c-213.4,-213.78 -345.39,-508.89 -345.39,-834.82 0,-652.63 529.11,-1181.74 1181.74,-1181.74zm0 560.24c343.25,0 621.5,278.25 621.5,621.5 0,343.25 -278.25,621.5 -621.5,621.5 -343.25,0 -621.5,-278.25 -621.5,-621.5 0,-343.25 278.25,-621.5 621.5,-621.5z"/>
    <path class="fil1" d="M1709.05 671.73c226.82,0 432.19,92.03 580.79,240.63 148.6,148.6 240.63,354.11 240.63,580.79 0,226.82 -92.03,432.19 -240.63,580.79 -148.6,148.6 -353.97,240.63 -580.79,240.63 -226.69,0 -432.19,-92.03 -580.79,-240.63 -148.6,-148.6 -240.63,-353.97 -240.63,-580.79 0,-226.69 92.03,-432.19 240.63,-580.79 148.6,-148.6 354.11,-240.63 580.79,-240.63zm332.79 488.63c-85.06,-85.06 -202.83,-137.81 -332.79,-137.81 -129.97,0 -247.73,52.75 -332.79,137.81 -85.06,85.06 -137.81,202.83 -137.81,332.79 0,129.97 52.75,247.73 137.81,332.79 85.06,85.06 202.83,137.81 332.79,137.81 129.97,0 247.73,-52.75 332.79,-137.81 85.06,-85.06 137.81,-202.83 137.81,-332.79 0,-129.97 -52.75,-247.73 -137.81,-332.79z"/>
   </g>
   <rect class="fil2" width="3418.1" height="3418.1"/>
  </g>
 </g>
</svg>
