<?xml version="1.0" encoding="UTF-8"?>
<!DOCTYPE svg PUBLIC "-//W3C//DTD SVG 1.1//EN" "http://www.w3.org/Graphics/SVG/1.1/DTD/svg11.dtd">
<!-- Creator: CorelDRAW 2017 -->
<svg xmlns="http://www.w3.org/2000/svg" xml:space="preserve" width="1096.32mm" height="298.205mm" version="1.1" style="shape-rendering:geometricPrecision; text-rendering:geometricPrecision; image-rendering:optimizeQuality; fill-rule:evenodd; clip-rule:evenodd"
viewBox="0 0 30852.97 8392.2"
 xmlns:xlink="http://www.w3.org/1999/xlink">
 <defs>
  <style type="text/css">
   <![CDATA[
    .fil0 {fill:#666666}
    .fil1 {fill:#999999;fill-rule:nonzero}
   ]]>
  </style>
 </defs>
 <g id="Слой_x0020_1">
  <metadata id="CorelCorpID_0Corel-Layer"/>
  <g id="_1616905712">
   <path class="fil0" d="M3247.69 699.09c1793.58,0 3247.69,1454.11 3247.69,3247.69 0,890.5 -358.55,1697.34 -939.14,2284.01l0 0.21 -12.16 12.16 -2045.4 2045.4c-138.18,138.18 -363.79,138.18 -501.97,0l-2045.4 -2045.4 -2.1 -2.1c-586.47,-587.52 -949.21,-1398.54 -949.21,-2294.29 0,-1793.58 1454.11,-3247.69 3247.69,-3247.69zm0 1539.66c943.34,0 1708.03,764.69 1708.03,1708.03 0,943.34 -764.69,1708.03 -1708.03,1708.03 -943.34,0 -1708.03,-764.69 -1708.03,-1708.03 0,-943.34 764.69,-1708.03 1708.03,-1708.03z"/>
   <path class="fil1" d="M29113.87 5121.65c243.34,-106.1 526.65,5.16 632.75,248.5 106.1,243.34 -5.16,526.65 -248.5,632.75 -139.81,61.16 -287.92,108.87 -441.36,140.73 -153.08,31.87 -307.81,48.82 -461.44,48.82 -621.7,0 -1185.93,-252.92 -1594.5,-661.3l-1.84 -1.84c-408.39,-408.57 -661.3,-972.43 -661.3,-1594.5l0.18 0 0 -12.53 0.19 0 0.18 -12.34 0.19 0 0.73 -12.16 0.19 0 0.92 -12.34 0.19 0 1.1 -11.97 0.19 0 1.47 -11.97 0.19 0 1.84 -11.97 0.19 0 2.03 -11.79 0.18 0 2.39 -11.79 0.19 0 2.58 -11.61 0.19 0 2.95 -11.42 0.18 0 3.32 -11.42 0.19 0 3.5 -11.24 0.18 0 3.68 -11.24 0.19 0 4.05 -10.87 0.18 0 4.24 -11.05 0.18 0 4.42 -10.68 0.18 0 4.79 -10.5 0.19 0 4.97 -10.5 0.18 0 5.34 -10.32 0.18 0 5.53 -10.13 0.18 0 5.71 -10.13 0.19 0 5.89 -9.76 0.19 0 6.26 -9.76 0.19 0 6.45 -9.58 0.18 0 6.63 -9.39 0.18 0 6.82 -9.21 0.18 0 7.18 -9.03 0.19 0 7.18 -8.66 0.19 0 7.55 -8.66 0.19 0 7.74 -8.47 0.19 0 7.92 -8.29 0.19 0 8.1 -8.1 0.18 0 8.29 -7.92 0.18 0 8.47 -7.74 0.18 0 8.47 -7.37 0.19 0 8.84 -7.37 0.18 0 9.03 -7 0.19 0 9.21 -6.82 0.18 0 9.39 -6.63 0.19 0 9.58 -6.45 0.18 0 9.58 -6.08 0.18 0 9.95 -5.9 0.18 0 9.95 -5.71 0.18 0 10.13 -5.53 0.19 0 10.31 -5.16 0.19 0 10.31 -4.98 0.19 0 10.5 -4.6 0.18 0 10.87 -4.42 0.18 0 10.69 -4.24 0.18 0 11.05 -3.87 0.18 0 11.05 -3.68 0.19 0 11.24 -3.5 0.18 0 11.24 -3.13 0.18 0 11.42 -2.76 0.18 0 11.61 -2.58 0.18 0 11.61 -2.21 0.18 0 11.79 -2.03 0.18 0 11.79 -1.66 0.19 0 11.79 -1.29 0.18 0 12.16 -1.1 0.19 0 11.97 -0.92 0.19 0 12.16 -0.37 0.18 0 12.34 -0.19 0.18 0 2976.24 0c-65.58,-163.39 -163.76,-310.39 -286.07,-432.7 -233.76,-233.76 -557.41,-378.73 -914.77,-378.73 -96.53,0 -186.42,9.21 -268.94,26.52 -85.11,17.87 -170.39,46.05 -253.47,82.52 -243.34,107.03 -527.57,-3.32 -634.6,-246.65 -107.02,-243.34 3.32,-527.57 246.65,-634.59 138.71,-61.16 288.1,-109.42 445.78,-142.58 153.81,-32.23 309.47,-49.37 464.57,-49.37 623.36,0 1187.95,252.92 1596.34,661.31 408.39,408.39 661.31,972.98 661.31,1596.34 0,266.18 -215.89,482.07 -482.07,482.07l-2976.79 0c65.39,163.76 163.21,310.94 285.52,433.63 233.94,233.2 557.96,377.81 915.7,377.81 95.42,0 184.39,-9.03 265.81,-25.97 87.5,-18.05 172.6,-45.5 252.73,-80.68zm-20177.5 -4980.59c188.08,-188.08 493.49,-188.08 681.57,0 188.08,188.08 188.08,493.49 0,681.57l-906.67 906.67c465.68,81.97 882.17,306.52 1202.51,626.86 408.39,408.39 661.3,972.8 661.3,1596.16 0,623.36 -252.92,1187.77 -661.3,1596.15 -408.39,408.39 -972.98,661.3 -1596.34,661.3 -622.99,0 -1187.77,-252.92 -1596.15,-661.3 -408.39,-408.39 -661.3,-972.8 -661.3,-1596.15 0,-622.99 252.92,-1187.77 661.3,-1596.16l0.74 -0.73 8.66 -8.84 2205.7 -2205.51zm8222.64 5661.42l0 1711.29c0,266.18 -215.89,482.07 -482.07,482.07 -266.18,0 -482.07,-215.89 -482.07,-482.07l0 -3561.46c0,-623.36 252.92,-1187.77 661.31,-1596.16 408.39,-408.39 972.98,-661.3 1596.34,-661.3 623.36,0 1187.77,252.92 1596.15,661.3 408.39,408.39 661.31,973.17 661.31,1596.16 0,623.36 -252.92,1187.77 -661.31,1596.15 -408.38,408.39 -972.8,661.3 -1596.15,661.3 -481.15,0 -927.3,-150.68 -1293.5,-407.28zm2208.09 -2764.77c-233.76,-233.76 -557.41,-378.73 -914.59,-378.73 -357.36,0 -681.01,144.97 -914.77,378.73 -233.76,233.76 -378.73,557.41 -378.73,914.59 0,357.18 144.97,680.83 378.73,914.59 233.76,233.76 557.41,378.73 914.77,378.73 357.18,0 680.83,-144.97 914.59,-378.73 233.76,-233.76 378.73,-557.41 378.73,-914.59 0,-357.18 -144.97,-680.83 -378.73,-914.59zm-16119.42 -1342.87c623.36,0 1187.77,252.92 1596.15,661.3 408.39,408.39 661.31,973.17 661.31,1596.16 0,623.36 -252.92,1187.77 -661.31,1596.15 -408.39,408.39 -972.8,661.3 -1596.15,661.3 -622.99,0 -1187.77,-252.92 -1596.15,-661.3 -408.39,-408.39 -661.3,-972.8 -661.3,-1596.15 0,-622.99 252.92,-1187.77 661.3,-1596.16 408.39,-408.39 973.16,-661.3 1596.15,-661.3zm914.59 1342.87c-233.76,-233.76 -557.41,-378.73 -914.59,-378.73 -357.18,0 -680.83,144.97 -914.59,378.73 -233.76,233.76 -378.73,557.41 -378.73,914.59 0,357.18 144.97,680.83 378.73,914.59 233.76,233.76 557.41,378.73 914.59,378.73 357.18,0 680.83,-144.97 914.59,-378.73 233.76,-233.76 378.73,-557.41 378.73,-914.59 0,-357.18 -144.97,-680.83 -378.73,-914.59zm5069.93 0c-233.76,-233.76 -557.41,-378.73 -914.77,-378.73 -357.18,0 -680.83,144.97 -914.59,378.73 -233.76,233.76 -378.73,557.41 -378.73,914.59 0,357.18 144.97,680.83 378.73,914.59 233.76,233.76 557.41,378.73 914.59,378.73 357.36,0 681.01,-144.97 914.77,-378.73 233.76,-233.76 378.73,-557.41 378.73,-914.59 0,-357.18 -144.97,-680.83 -378.73,-914.59zm13087.74 432.52l2401.69 0c-65.58,-163.39 -163.76,-310.39 -286.07,-432.7 -233.21,-234.31 -556.86,-378.73 -914.77,-378.73 -357.36,0 -681.01,144.97 -914.77,378.73 -122.32,122.32 -220.5,269.31 -286.08,432.7zm2976.24 964.14l-2976.6 0c61.89,154.73 152.52,294.55 265.26,412.81l21.19 19.9c233.76,233.76 557.41,378.73 914.77,378.73 96.52,0 186.97,-9.39 270.23,-26.89 85.47,-18.05 171.31,-46.42 255.13,-83.45 243.34,-107.02 527.57,3.32 634.59,246.65 107.03,243.34 -3.32,527.57 -246.65,634.6 -139.08,61.52 -288.84,110.15 -447.44,143.49 -154,32.42 -310.2,49.74 -465.86,49.74 -623.36,0 -1187.95,-252.92 -1596.34,-661.3l-27.26 -29.66c-392.36,-406.18 -634.04,-958.62 -634.04,-1566.68 0,-623.36 252.92,-1187.95 661.3,-1596.34 408.39,-408.39 972.98,-661.3 1596.34,-661.3 622.07,0 1185.92,252.92 1594.5,661.3 410.23,408.39 663.15,972.98 663.15,1596.34l-0.19 0 0 12.52 -0.18 0 -0.19 12.34 -0.18 0 -0.74 12.16 -0.18 0 -0.92 12.34 -0.18 0 -1.11 11.97 -0.18 0 -1.47 11.97 -0.18 0 -1.84 11.97 -0.18 0 -2.03 11.79 -0.19 0 -2.39 11.79 -0.18 0 -2.58 11.6 -0.18 0 -2.95 11.42 -0.19 0 -3.32 11.42 -0.18 0 -3.5 11.24 -0.19 0 -3.68 11.23 -0.18 0 -4.05 10.87 -0.19 0 -4.24 11.05 -0.19 0 -4.42 10.68 -0.18 0 -4.79 10.5 -0.18 0 -4.98 10.5 -0.18 0 -5.34 10.32 -0.19 0 -5.52 10.13 -0.19 0 -5.71 10.13 -0.18 0 -5.9 9.76 -0.18 0 -6.26 9.76 -0.18 0 -6.45 9.58 -0.19 0 -6.63 9.39 -0.19 0 -6.81 9.21 -0.19 0 -7.18 9.03 -0.18 0 -7.18 8.66 -0.18 0 -7.55 8.66 -0.19 0 -7.74 8.47 -0.18 0 -7.92 8.29 -0.18 0 -8.1 8.1 -0.19 0 -8.29 7.92 -0.19 0 -8.47 7.74 -0.18 0 -8.47 7.37 -0.18 0 -8.84 7.37 -0.19 0 -9.03 7 -0.19 0 -9.21 6.82 -0.19 0 -9.39 6.63 -0.18 0 -9.58 6.45 -0.19 0 -9.58 6.08 -0.19 0 -9.95 5.9 -0.19 0 -9.95 5.71 -0.19 0 -10.13 5.52 -0.18 0 -10.32 5.16 -0.18 0 -10.32 4.97 -0.18 0 -10.5 4.61 -0.19 0 -10.87 4.42 -0.18 0 -10.68 4.24 -0.19 0 -11.05 3.87 -0.19 0 -11.05 3.68 -0.18 0 -11.24 3.5 -0.19 0 -11.23 3.13 -0.19 0 -11.42 2.76 -0.19 0 -11.6 2.58 -0.19 0 -11.6 2.21 -0.19 0 -11.79 2.03 -0.19 0 -11.79 1.66 -0.18 0 -11.79 1.29 -0.19 0 -12.16 1.11 -0.18 0 -11.97 0.92 -0.18 0 -12.16 0.37 -0.19 0 -12.34 0.19 -0.19 0zm-13112.79 -964.14l2401.51 0c-65.58,-163.39 -163.76,-310.39 -286.07,-432.7 -233.76,-233.76 -557.41,-378.73 -914.59,-378.73 -357.36,0 -681.01,144.97 -914.77,378.73 -122.32,122.32 -220.5,269.31 -286.08,432.7zm2976.24 964.14l-2976.6 0c61.89,154.73 152.53,294.55 265.26,412.81l21.19 19.9c233.76,233.76 557.41,378.73 914.77,378.73 96.53,0 186.97,-9.39 270.23,-26.89 85.47,-18.05 171.31,-46.42 255.13,-83.45 243.34,-107.02 527.57,3.32 634.59,246.65 107.03,243.34 -3.32,527.57 -246.65,634.6 -139.08,61.52 -288.84,110.15 -447.44,143.49 -154,32.42 -310.2,49.74 -465.86,49.74 -623.36,0 -1187.95,-252.92 -1596.34,-661.3l-27.26 -29.66c-392.36,-406.18 -634.04,-958.62 -634.04,-1566.68 0,-623.36 252.92,-1187.95 661.3,-1596.34 408.39,-408.39 972.98,-661.3 1596.34,-661.3 623.36,0 1187.77,252.92 1596.15,661.3 408.39,408.39 661.3,972.98 661.3,1596.34 0,266.18 -215.89,482.07 -482.07,482.07z"/>
  </g>
 </g>
</svg>
