<?xml version="1.0" encoding="UTF-8"?>
<!DOCTYPE svg PUBLIC "-//W3C//DTD SVG 1.1//EN" "http://www.w3.org/Graphics/SVG/1.1/DTD/svg11.dtd">
<!-- Creator: CorelDRAW 2017 -->
<svg xmlns="http://www.w3.org/2000/svg" xml:space="preserve" width="1315.65mm" height="357.864mm" version="1.1" style="shape-rendering:geometricPrecision; text-rendering:geometricPrecision; image-rendering:optimizeQuality; fill-rule:evenodd; clip-rule:evenodd"
viewBox="0 0 78334.74 21307.53"
 xmlns:xlink="http://www.w3.org/1999/xlink">
 <defs>
  <style type="text/css">
   <![CDATA[
    .fil0 {fill:#FFB14A}
    .fil1 {fill:white;fill-rule:nonzero}
   ]]>
  </style>
 </defs>
 <g id="Слой_x0020_1">
  <metadata id="CorelCorpID_0Corel-Layer"/>
  <g id="_991785344">
   <path class="fil0" d="M8245.79 1774.97c4553.84,0 8245.78,3691.94 8245.78,8245.79 0,2260.94 -910.34,4309.48 -2384.46,5799.04l0 0.53 -30.88 30.88 -5193.21 5193.2c-350.83,350.83 -923.65,350.83 -1274.48,0l-5193.2 -5193.2 -5.33 -5.32c-1489.02,-1491.68 -2410.01,-3550.87 -2410.01,-5825.12 0,-4553.84 3691.94,-8245.79 8245.79,-8245.79zm0 3909.15c2395.1,0 4336.63,1941.53 4336.63,4336.64 0,2395.1 -1941.53,4336.63 -4336.63,4336.63 -2395.11,0 -4336.64,-1941.53 -4336.64,-4336.63 0,-2395.11 1941.53,-4336.64 4336.64,-4336.64z"/>
   <path class="fil1" d="M73919.22 13003.71c617.83,-269.39 1337.14,13.1 1606.54,630.92 269.39,617.83 -13.1,1337.14 -630.92,1606.54 -354.98,155.28 -731.01,276.41 -1120.6,357.32 -388.66,80.91 -781.52,123.94 -1171.58,123.94 -1578.48,0 -3011.03,-642.15 -4048.38,-1679.03l-4.67 -4.67c-1036.89,-1037.35 -1679.03,-2468.97 -1679.03,-4048.38l0.46 0 0 -31.8 0.47 0 0.46 -31.34 0.47 0 1.87 -30.87 0.46 0 2.34 -31.34 0.47 0 2.8 -30.4 0.47 0 3.74 -30.4 0.47 0 4.67 -30.4 0.47 0 5.14 -29.93 0.46 0 6.08 -29.93 0.47 0 6.55 -29.47 0.46 0 7.48 -29 0.47 0 8.41 -29 0.47 0 8.88 -28.53 0.47 0 9.35 -28.53 0.47 0 10.29 -27.6 0.46 0 10.76 -28.06 0.46 0 11.23 -27.13 0.46 0 12.16 -26.66 0.46 0 12.63 -26.66 0.47 0 13.56 -26.19 0.47 0 14.03 -25.72 0.46 0 14.5 -25.73 0.47 0 14.96 -24.79 0.47 0 15.9 -24.79 0.46 0 16.37 -24.32 0.47 0 16.84 -23.85 0.46 0 17.31 -23.38 0.46 0 18.24 -22.92 0.46 0 18.24 -21.98 0.46 0 19.18 -21.98 0.46 0 19.65 -21.51 0.46 0 20.11 -21.05 0.46 0 20.58 -20.58 0.46 0 21.05 -20.11 0.46 0 21.52 -19.64 0.46 0 21.52 -18.71 0.46 0 22.45 -18.71 0.46 0 22.92 -17.77 0.47 0 23.38 -17.31 0.47 0 23.85 -16.83 0.46 0 24.32 -16.37 0.47 0 24.32 -15.43 0.47 0 25.25 -14.96 0.47 0 25.26 -14.5 0.46 0 25.73 -14.03 0.46 0 26.19 -13.09 0.47 0 26.19 -12.63 0.47 0 26.66 -11.69 0.47 0 27.59 -11.22 0.47 0 27.13 -10.76 0.46 0 28.06 -9.82 0.47 0 28.06 -9.35 0.47 0 28.53 -8.89 0.47 0 28.53 -7.95 0.47 0 29 -7.02 0.46 0 29.47 -6.54 0.47 0 29.46 -5.61 0.47 0 29.93 -5.14 0.47 0 29.93 -4.21 0.46 0 29.94 -3.27 0.46 0 30.87 -2.8 0.46 0 30.4 -2.34 0.46 0 30.87 -0.93 0.46 0 31.34 -0.46 0.47 0 7556.57 0c-166.5,-414.85 -415.79,-788.07 -726.33,-1098.62 -593.51,-593.5 -1415.25,-961.58 -2322.58,-961.58 -245.08,0 -473.31,23.39 -682.84,67.35 -216.07,45.36 -432.62,116.92 -643.55,209.52 -617.83,271.73 -1339.48,-8.42 -1611.22,-626.24 -271.73,-617.83 8.42,-1339.48 626.24,-1611.21 352.18,-155.28 731.48,-277.81 1131.82,-362 390.53,-81.84 785.73,-125.34 1179.53,-125.34 1582.68,0 3016.17,642.15 4053.06,1679.03 1036.88,1036.89 1679.03,2470.37 1679.03,4053.06 0,675.82 -548.14,1223.96 -1223.96,1223.96l-7557.98 0c166.03,415.79 414.38,789.47 724.93,1100.96 593.97,592.1 1416.65,959.24 2324.92,959.24 242.27,0 468.16,-22.92 674.88,-65.94 222.16,-45.83 438.23,-115.52 641.68,-204.86zm-51230.07 -12645.57c477.52,-477.52 1252.96,-477.52 1730.48,0 477.52,477.52 477.52,1252.96 0,1730.48l-2302 2302c1182.33,208.12 2239.79,778.25 3053.12,1591.57 1036.88,1036.89 1679.03,2469.91 1679.03,4052.59 0,1582.68 -642.15,3015.71 -1679.03,4052.59 -1036.89,1036.89 -2470.37,1679.03 -4053.06,1679.03 -1581.75,0 -3015.71,-642.14 -4052.59,-1679.03 -1036.88,-1036.88 -1679.03,-2469.9 -1679.03,-4052.59 0,-1581.75 642.15,-3015.71 1679.03,-4052.59l1.87 -1.87 21.98 -22.45 5600.2 -5599.73zm20877.03 14374.18l0 4344.9c0,675.82 -548.14,1223.96 -1223.96,1223.96 -675.82,0 -1223.96,-548.14 -1223.96,-1223.96l0 -9042.44c0,-1582.68 642.15,-3015.71 1679.03,-4052.59 1036.89,-1036.88 2470.37,-1679.03 4053.06,-1679.03 1582.68,0 3015.71,642.15 4052.59,1679.03 1036.88,1036.89 1679.03,2470.84 1679.03,4052.59 0,1582.68 -642.15,3015.71 -1679.03,4052.59 -1036.89,1036.89 -2469.91,1679.03 -4052.59,1679.03 -1221.62,0 -2354.38,-382.57 -3284.16,-1034.08zm5606.28 -7019.66c-593.51,-593.5 -1415.25,-961.58 -2322.12,-961.58 -907.33,0 -1729.07,368.08 -2322.58,961.58 -593.5,593.51 -961.58,1415.25 -961.58,2322.12 0,906.86 368.08,1728.6 961.58,2322.11 593.51,593.51 1415.25,961.58 2322.58,961.58 906.87,0 1728.61,-368.08 2322.12,-961.58 593.5,-593.51 961.58,-1415.25 961.58,-2322.11 0,-906.87 -368.08,-1728.61 -961.58,-2322.12zm-40926.71 -3409.5c1582.68,0 3015.71,642.15 4052.59,1679.03 1036.89,1036.89 1679.03,2470.84 1679.03,4052.59 0,1582.68 -642.15,3015.71 -1679.03,4052.59 -1036.88,1036.89 -2469.9,1679.03 -4052.59,1679.03 -1581.75,0 -3015.71,-642.14 -4052.59,-1679.03 -1036.88,-1036.88 -1679.03,-2469.9 -1679.03,-4052.59 0,-1581.75 642.15,-3015.71 1679.03,-4052.59 1036.89,-1036.88 2470.84,-1679.03 4052.59,-1679.03zm2322.11 3409.5c-593.5,-593.5 -1415.25,-961.58 -2322.11,-961.58 -906.87,0 -1728.61,368.08 -2322.12,961.58 -593.5,593.51 -961.58,1415.25 -961.58,2322.12 0,906.86 368.08,1728.6 961.58,2322.11 593.51,593.51 1415.25,961.58 2322.12,961.58 906.86,0 1728.61,-368.08 2322.11,-961.58 593.51,-593.51 961.58,-1415.25 961.58,-2322.11 0,-906.87 -368.08,-1728.61 -961.58,-2322.12zm12872.41 0c-593.51,-593.5 -1415.25,-961.58 -2322.58,-961.58 -906.87,0 -1728.61,368.08 -2322.12,961.58 -593.5,593.51 -961.58,1415.25 -961.58,2322.12 0,906.86 368.08,1728.6 961.58,2322.11 593.51,593.51 1415.25,961.58 2322.12,961.58 907.33,0 1729.07,-368.08 2322.58,-961.58 593.5,-593.51 961.58,-1415.25 961.58,-2322.11 0,-906.87 -368.08,-1728.61 -961.58,-2322.12zm33229.36 1098.15l6097.83 0c-166.5,-414.84 -415.79,-788.07 -726.33,-1098.62 -592.1,-594.91 -1413.85,-961.58 -2322.58,-961.58 -907.33,0 -1729.08,368.08 -2322.58,961.58 -310.55,310.55 -559.83,683.77 -726.33,1098.62zm7556.57 2447.92l-7557.51 0c157.15,392.87 387.25,747.85 673.48,1048.11l53.79 50.51c593.5,593.5 1415.25,961.58 2322.58,961.58 245.07,0 474.71,-23.86 686.11,-68.29 217.01,-45.83 434.96,-117.86 647.76,-211.86 617.83,-271.73 1339.48,8.42 1611.21,626.24 271.73,617.83 -8.41,1339.48 -626.24,1611.22 -353.11,156.21 -733.35,279.68 -1136.03,364.33 -390.99,82.32 -787.6,126.28 -1182.8,126.28 -1582.68,0 -3016.18,-642.15 -4053.06,-1679.03l-69.22 -75.3c-996.19,-1031.27 -1609.81,-2433.89 -1609.81,-3977.76 0,-1582.68 642.15,-3016.18 1679.03,-4053.06 1036.88,-1036.89 2470.37,-1679.03 4053.06,-1679.03 1579.41,0 3011.03,642.15 4048.38,1679.03 1041.56,1036.88 1683.71,2470.37 1683.71,4053.06l-0.46 0 0 31.8 -0.47 0 -0.47 31.34 -0.46 0 -1.87 30.87 -0.47 0 -2.34 31.34 -0.46 0 -2.8 30.4 -0.47 0 -3.74 30.4 -0.47 0 -4.67 30.4 -0.47 0 -5.14 29.93 -0.47 0 -6.08 29.93 -0.46 0 -6.55 29.47 -0.47 0 -7.48 29 -0.47 0 -8.42 29 -0.46 0 -8.89 28.53 -0.46 0 -9.35 28.53 -0.47 0 -10.29 27.6 -0.47 0 -10.75 28.06 -0.47 0 -11.22 27.13 -0.47 0 -12.16 26.66 -0.47 0 -12.62 26.66 -0.47 0 -13.56 26.19 -0.46 0 -14.03 25.72 -0.47 0 -14.5 25.73 -0.46 0 -14.97 24.79 -0.46 0 -15.9 24.79 -0.47 0 -16.37 24.32 -0.46 0 -16.84 23.85 -0.47 0 -17.3 23.38 -0.47 0 -18.24 22.92 -0.47 0 -18.24 21.98 -0.47 0 -19.17 21.98 -0.47 0 -19.64 21.51 -0.47 0 -20.11 21.05 -0.47 0 -20.58 20.58 -0.47 0 -21.04 20.11 -0.47 0 -21.51 19.64 -0.47 0 -21.51 18.71 -0.47 0 -22.45 18.71 -0.47 0 -22.92 17.77 -0.46 0 -23.39 17.3 -0.46 0 -23.85 16.84 -0.47 0 -24.32 16.37 -0.47 0 -24.32 15.43 -0.46 0 -25.26 14.96 -0.46 0 -25.26 14.5 -0.47 0 -25.72 14.03 -0.47 0 -26.19 13.09 -0.47 0 -26.19 12.63 -0.46 0 -26.66 11.69 -0.46 0 -27.6 11.22 -0.46 0 -27.13 10.76 -0.47 0 -28.06 9.82 -0.46 0 -28.06 9.35 -0.47 0 -28.53 8.89 -0.47 0 -28.53 7.95 -0.46 0 -29 7.02 -0.47 0 -29.47 6.54 -0.46 0 -29.47 5.61 -0.46 0 -29.94 5.14 -0.46 0 -29.93 4.21 -0.47 0 -29.93 3.27 -0.47 0 -30.87 2.8 -0.47 0 -30.4 2.34 -0.47 0 -30.87 0.93 -0.47 0 -31.34 0.46 -0.46 0zm-33292.97 -2447.92l6097.36 0c-166.5,-414.84 -415.78,-788.07 -726.33,-1098.62 -593.5,-593.51 -1415.25,-961.58 -2322.11,-961.58 -907.33,0 -1729.08,368.08 -2322.58,961.58 -310.55,310.55 -559.83,683.77 -726.33,1098.62zm7556.57 2447.92l-7557.51 0c157.15,392.87 387.25,747.85 673.48,1048.11l53.79 50.51c593.5,593.5 1415.25,961.58 2322.58,961.58 245.07,0 474.71,-23.86 686.11,-68.29 217.01,-45.83 434.96,-117.86 647.76,-211.86 617.83,-271.73 1339.48,8.42 1611.21,626.24 271.73,617.83 -8.41,1339.48 -626.24,1611.22 -353.11,156.21 -733.35,279.68 -1136.03,364.33 -390.99,82.32 -787.6,126.28 -1182.8,126.28 -1582.68,0 -3016.18,-642.15 -4053.06,-1679.03l-69.22 -75.3c-996.19,-1031.27 -1609.81,-2433.89 -1609.81,-3977.76 0,-1582.68 642.15,-3016.18 1679.03,-4053.06 1036.88,-1036.89 2470.37,-1679.03 4053.06,-1679.03 1582.68,0 3015.71,642.15 4052.59,1679.03 1036.89,1036.88 1679.03,2470.37 1679.03,4053.06 0,675.82 -548.14,1223.96 -1223.96,1223.96z"/>
  </g>
 </g>
</svg>
