<?xml version="1.0" encoding="UTF-8"?>
<!DOCTYPE svg PUBLIC "-//W3C//DTD SVG 1.1//EN" "http://www.w3.org/Graphics/SVG/1.1/DTD/svg11.dtd">
<!-- Creator: CorelDRAW 2017 -->
<svg xmlns="http://www.w3.org/2000/svg" xml:space="preserve" width="458.199mm" height="458.199mm" version="1.1" style="shape-rendering:geometricPrecision; text-rendering:geometricPrecision; image-rendering:optimizeQuality; fill-rule:evenodd; clip-rule:evenodd"
viewBox="0 0 2529.13 2529.13"
 xmlns:xlink="http://www.w3.org/1999/xlink">
 <defs>
  <style type="text/css">
   <![CDATA[
    .fil0 {fill:gray}
    .fil1 {fill:#4D4D4D;fill-rule:nonzero}
   ]]>
  </style>
 </defs>
 <g id="Слой_x0020_1">
  <metadata id="CorelCorpID_0Corel-Layer"/>
  <g id="_1060544304">
   <circle class="fil0" cx="1264.56" cy="1264.56" r="1264.56"/>
   <g>
    <path class="fil1" d="M1273.34 435.92c119.59,0 227.86,48.54 306.18,126.86 78.28,78.86 126.86,187.09 126.86,306.18 0,119.01 -48.54,227.16 -126.86,305.68l-0.5 0.5c-78.53,78.32 -186.67,126.86 -305.68,126.86 -119.09,0 -227.32,-48.58 -305.93,-127.11 -78.57,-78.07 -127.11,-186.34 -127.11,-305.93 0,-119.55 48.54,-227.86 126.86,-306.18 78.32,-78.32 186.63,-126.86 306.18,-126.86zm130.95 302.09c-33.46,-33.46 -79.81,-54.24 -130.95,-54.24 -51.14,0 -97.49,20.78 -130.95,54.24 -33.46,33.46 -54.24,79.81 -54.24,130.95 0,51.14 20.78,97.49 54.24,130.95l0 0.5c33.17,33.21 79.52,53.74 130.95,53.74 51.47,0 97.78,-20.53 130.95,-53.74l0.5 -0.5c33.21,-33.17 53.74,-79.48 53.74,-130.95 0,-51.43 -20.53,-97.78 -53.74,-130.95l-0.5 0z"/>
    <path class="fil1" d="M1617.85 1337.6c55.06,-40.36 132.48,-28.46 172.83,26.6 40.36,55.06 28.46,132.48 -26.6,172.84 -69.89,51.43 -148.3,92.24 -232.69,119.88 -81.54,26.73 -168.37,41.23 -258.05,41.23 -93.52,0 -184.61,-16.11 -270.36,-45.69 -88.65,-30.61 -170.07,-75.26 -241.2,-131.07 -53.7,-42.22 -63,-120.08 -20.78,-173.79 42.22,-53.7 120.08,-63 173.78,-20.78 50.77,39.82 107.73,71.34 168.58,92.32 58.49,20.16 122.36,31.15 189.98,31.15 63.78,0 124.83,-10.08 181.55,-28.67 58.99,-19.33 113.93,-47.96 162.96,-84.02z"/>
    <path class="fil1" d="M1005.41 2146.8c-48.37,48.37 -126.86,48.37 -175.23,0 -48.37,-48.37 -48.37,-126.86 0,-175.23l436.88 -436.84 427.46 427.46c48.37,48.37 48.37,126.86 0,175.23 -48.37,48.37 -126.86,48.37 -175.23,0l-252.23 -252.23 -261.65 261.61z"/>
   </g>
  </g>
 </g>
</svg>
