<?xml version="1.0" encoding="UTF-8"?>
<!DOCTYPE svg PUBLIC "-//W3C//DTD SVG 1.1//EN" "http://www.w3.org/Graphics/SVG/1.1/DTD/svg11.dtd">
<!-- Creator: CorelDRAW 2017 -->
<svg xmlns="http://www.w3.org/2000/svg" xml:space="preserve" width="458.199mm" height="458.199mm" version="1.1" style="shape-rendering:geometricPrecision; text-rendering:geometricPrecision; image-rendering:optimizeQuality; fill-rule:evenodd; clip-rule:evenodd"
viewBox="0 0 2877.21 2877.21"
 xmlns:xlink="http://www.w3.org/1999/xlink">
 <defs>
  <style type="text/css">
   <![CDATA[
    .fil1 {fill:#4D4D4D}
    .fil0 {fill:gray}
   ]]>
  </style>
 </defs>
 <g id="Слой_x0020_1">
  <metadata id="CorelCorpID_0Corel-Layer"/>
  <g id="_1602372048">
   <circle class="fil0" cx="1438.61" cy="1438.61" r="1438.61"/>
   <path class="fil1" d="M892.02 745.1c192.05,0 384.1,0 576.15,0 68.8,-1.58 136.68,1.21 199.55,11.84 259.06,43.78 410.31,292.37 267.9,519.11 -43.51,69.27 -89.45,95.09 -154.4,137.6 0,0 57.35,12.82 92.43,31.71 335.41,180.63 244.45,630.8 -54.63,743.45 -103.89,39.13 -350.85,45.9 -350.85,45.9 -192.05,0 -384.1,0 -576.15,0l0 -1489.6zm576.15 273.9l-206.44 0 0 312.36 214.56 0c32.6,0 64.45,-6.8 87.48,-32.26 25.64,-28.32 58.72,-78.24 48.6,-145.03 -10.12,-66.79 -51.61,-129.1 -144.2,-135.07zm66.14 568.72l-272.58 0 0 373.09 206.44 0c325.54,12.09 297.48,-373.09 66.14,-373.09z"/>
  </g>
 </g>
</svg>
