<?xml version="1.0" encoding="UTF-8"?>
<!DOCTYPE svg PUBLIC "-//W3C//DTD SVG 1.1//EN" "http://www.w3.org/Graphics/SVG/1.1/DTD/svg11.dtd">
<!-- Creator: CorelDRAW 2017 -->
<svg xmlns="http://www.w3.org/2000/svg" xml:space="preserve" width="458.199mm" height="458.199mm" version="1.1" style="shape-rendering:geometricPrecision; text-rendering:geometricPrecision; image-rendering:optimizeQuality; fill-rule:evenodd; clip-rule:evenodd"
viewBox="0 0 2036.39 2036.39"
 xmlns:xlink="http://www.w3.org/1999/xlink">
 <defs>
  <style type="text/css">
   <![CDATA[
    .fil1 {fill:#4D4D4D}
    .fil0 {fill:gray}
   ]]>
  </style>
 </defs>
 <g id="Слой_x0020_1">
  <metadata id="CorelCorpID_0Corel-Layer"/>
  <g id="_1060546640">
   <circle class="fil0" cx="1018.2" cy="1018.2" r="1018.2"/>
   <path class="fil1" d="M565.15 890.41c318.74,-15.21 587.33,-13.23 906.19,0 88.43,3.67 158.68,52.62 164.95,140.8 15.11,212.58 15.24,350.68 0,563.24 -6.32,88.18 -76.61,136.93 -164.95,140.8 -318.94,13.96 -587.28,14.35 -906.19,0 -88.34,-3.97 -158,-52.58 -164.95,-140.8 -16.71,-212.09 -13.86,-350.92 0,-563.24 5.76,-88.31 76.53,-136.58 164.95,-140.8z"/>
   <g>
    <path class="fil1" d="M1132.17 502.65l0 210.1c0,137.89 -208.47,137.89 -208.47,0l0 -210.1c0,-137.89 208.47,-137.89 208.47,0zm-65.85 -2.42l0 214.94c0,50.78 -76.76,50.78 -76.76,0l0 -214.94c0,-50.78 76.76,-50.78 76.76,0z"/>
    <polygon class="fil1" points="731.39,811.72 814.62,811.72 814.62,554.55 925.3,264.24 841.84,264.24 773,445.61 704.17,264.24 620.7,264.24 731.39,554.55 "/>
    <path class="fil1" d="M1343.75 401.93l71.93 0 0 414.52 -71.93 0 0 -53.36c-28.46,25.02 -43.74,47.4 -75.8,52.34 -11.97,1.85 -23.74,1.56 -34.96,-3.48 -18.02,-8.1 -30.67,-26.25 -30.67,-47.2l0 -362.82 71.93 0 0 330.63c0.03,18.09 12.83,26.04 26.89,23.04 15.44,-3.29 31.32,-23.98 42.61,-35.17l0 -318.51z"/>
   </g>
   <g>
    <path class="fil0" d="M917.11 1163.89l71.89 0 0 414.52 -71.89 0 0 -53.4c-31.97,28.1 -47.53,53.4 -89.73,53.4 -28.47,0 -51.74,-23.26 -51.74,-51.7l0 -362.82 71.93 0 0 330.63c0,5.89 1.92,14.13 7.68,19.34 21.22,19.32 49.34,-19.09 61.85,-31.47l0 -318.51z"/>
    <polygon class="fil0" points="667.75,1103.36 667.75,1578.48 582.91,1578.48 582.91,1103.36 494.42,1103.36 494.42,1021.76 756.23,1021.76 756.23,1103.36 "/>
    <path class="fil0" d="M1054.83 1024.17l79.19 0 0 172.08c9.95,-9.86 22.37,-21.68 30.73,-29.59 24.63,-23.31 57.51,-25.48 83.71,-3.59 21.09,17.59 26.13,47.6 26.13,73.6l0 260.58c0,45.8 -23.73,98.87 -77.48,87.64 -24.46,-5.12 -45.67,-29.97 -63.09,-47.21l0 44.01 -79.19 0 0 -557.53zm79.19 218.57l0 248.46c27.02,30.06 64.63,36.16 64.63,-9.6l0 -232.58c0,-13.45 -5.68,-25.87 -21.77,-26.89 -12.93,-0.77 -28.35,5.25 -42.86,20.61z"/>
    <path class="fil0" d="M1415.2 1263.35l0 58.99 70.3 0 0 -58.99 -0.01 0c0,-19.41 -15.73,-35.14 -35.14,-35.14 -19.41,0 -35.14,15.73 -35.14,35.14zm35.14 340.51c61.96,0 112.23,-49.99 112.71,-111.84l0.01 0 0 -0.81 0 -57.33 -77.57 0 0 57.33 -0.01 0c0,19.41 -15.73,35.14 -35.14,35.14 -19.41,0 -35.14,-15.73 -35.14,-35.14l0 -106.66 70.3 0 77.57 0 0 -62.21 0 -58.99c-0.04,-62.22 -50.49,-112.65 -112.72,-112.65 -62.23,0 -112.68,50.43 -112.72,112.65l0 227.87c0.04,62.22 50.49,112.65 112.72,112.65z"/>
   </g>
  </g>
 </g>
</svg>
