<?xml version="1.0" encoding="UTF-8"?>
<!DOCTYPE svg PUBLIC "-//W3C//DTD SVG 1.1//EN" "http://www.w3.org/Graphics/SVG/1.1/DTD/svg11.dtd">
<!-- Creator: CorelDRAW 2017 -->
<svg xmlns="http://www.w3.org/2000/svg" xml:space="preserve" width="377.219mm" height="377.25mm" version="1.1" style="shape-rendering:geometricPrecision; text-rendering:geometricPrecision; image-rendering:optimizeQuality; fill-rule:evenodd; clip-rule:evenodd"
viewBox="0 0 3113.93 3114.18"
 xmlns:xlink="http://www.w3.org/1999/xlink">
 <defs>
  <style type="text/css">
   <![CDATA[
    .fil0 {fill:#999999;fill-rule:nonzero}
   ]]>
  </style>
 </defs>
 <g id="Слой_x0020_1">
  <metadata id="CorelCorpID_0Corel-Layer"/>
  <path class="fil0" d="M1556.97 0c210.5,0 411.63,42 595.06,117.9 190,78.94 362.04,194.81 505.24,338.26 143.7,143.7 259.83,315.49 338.51,505.75 76.15,183.17 118.15,384.81 118.15,595.31 0,210.5 -42,411.63 -117.9,595.06 -78.94,190 -194.81,361.79 -338.26,505.24 -143.45,143.7 -315.24,259.83 -505.49,338.51 -183.17,76.15 -384.81,118.15 -595.31,118.15 -210.5,0 -411.63,-42 -595.06,-117.9 -190,-78.94 -361.79,-194.81 -505.24,-338.26 -282.1,-282.1 -456.67,-671.46 -456.67,-1100.81 0,-210.5 42,-411.63 117.9,-595.06 78.94,-190 194.81,-362.04 338.26,-505.5 282.1,-282.1 671.46,-456.67 1100.81,-456.67zm443.26 2365.81c-113.85,59.2 -247.18,94.62 -409.35,94.62 -249.46,0 -469.82,-100.95 -627.69,-261.6 -161.41,-164.7 -259.07,-393.16 -259.07,-641.61 0,-247.18 97.91,-476.15 260.09,-641.36 157.62,-160.91 377.22,-262.11 626.68,-262.11 163.69,0 297.02,34.66 408.6,90.07 111.57,55.41 203.41,132.57 283.36,217.58l8.1 8.35 -178.87 189.75 -9.11 -9.36c-66.29,-69.57 -139.4,-131.81 -223.15,-176.09 -83.49,-43.77 -178.87,-70.59 -292.47,-70.59 -168.75,0 -317.52,71.6 -424.28,187.98 -107.53,117.65 -173.05,282.35 -173.05,465.77 0,182.41 67.05,346.11 177.86,463.24 109.55,115.62 262.61,186.97 436.17,186.97 106.26,0 199.62,-27.83 282.1,-72.61 83.24,-45.29 156.86,-109.04 223.15,-180.39l8.6 -9.36 186.71 172.04 -8.35 9.36c-86.53,96.39 -182.41,180.39 -296.01,239.34zm488.29 -1740.39c-120.68,-120.93 -266.41,-219.35 -427.32,-285.89 -155.09,-64.01 -325.61,-99.68 -504.23,-99.68 -178.37,0 -349.14,35.67 -504.23,99.68 -160.91,66.54 -306.13,164.45 -427.06,285.64 -121.19,120.93 -219.35,266.66 -286.14,427.57 -64.01,155.09 -99.68,325.86 -99.68,504.48 0,178.37 35.67,349.14 99.68,504.23 66.54,160.91 164.45,306.13 285.64,427.06 120.93,121.19 266.66,219.35 427.57,285.89 155.09,64.26 325.86,99.93 504.23,99.93 178.37,0 349.14,-35.67 504.23,-99.68 160.91,-66.54 306.13,-164.45 427.06,-285.64 121.19,-120.93 219.35,-266.41 286.14,-427.57 64.01,-155.09 99.68,-325.61 99.68,-504.23 0,-178.62 -35.67,-349.39 -99.68,-504.48 -66.79,-160.91 -164.96,-306.64 -285.89,-427.32z"/>
 </g>
</svg>
