<?xml version="1.0" encoding="UTF-8"?>
<!DOCTYPE svg PUBLIC "-//W3C//DTD SVG 1.1//EN" "http://www.w3.org/Graphics/SVG/1.1/DTD/svg11.dtd">
<!-- Creator: CorelDRAW 2017 -->
<svg xmlns="http://www.w3.org/2000/svg" xml:space="preserve" width="196.478mm" height="196.478mm" version="1.1" style="shape-rendering:geometricPrecision; text-rendering:geometricPrecision; image-rendering:optimizeQuality; fill-rule:evenodd; clip-rule:evenodd"
viewBox="0 0 455.71 455.71"
 xmlns:xlink="http://www.w3.org/1999/xlink">
 <defs>
  <style type="text/css">
   <![CDATA[
    .fil0 {fill:#B3B3B3}
    .fil1 {fill:white}
   ]]>
  </style>
 </defs>
 <g id="Слой_x0020_1">
  <metadata id="CorelCorpID_0Corel-Layer"/>
  <g id="_1011701584">
   <path class="fil0" d="M29.15 -0l397.39 0c16.03,0 29.17,13.12 29.17,29.15l0 397.39c0,16.03 -13.13,29.17 -29.17,29.17l-397.39 0c-16.03,0 -29.15,-13.13 -29.15,-29.17l0 -397.39c0,-16.04 13.12,-29.15 29.15,-29.15z"/>
   <path class="fil1" d="M180.43 97.54l126.06 69.24c10.51,5.77 14.11,21.74 0.45,29.63l-126.51 69.5 0 100.78c0,9.51 -7.72,17.22 -17.22,17.22 -9.51,0 -17.22,-7.72 -17.22,-17.22l0 -270.25c0,-9.51 7.72,-17.22 17.22,-17.22 9.51,0 17.22,7.72 17.22,17.22l0 1.1z"/>
  </g>
 </g>
</svg>
