<?xml version="1.0" encoding="UTF-8"?>
<!DOCTYPE svg PUBLIC "-//W3C//DTD SVG 1.1//EN" "http://www.w3.org/Graphics/SVG/1.1/DTD/svg11.dtd">
<!-- Creator: CorelDRAW 2017 -->
<svg xmlns="http://www.w3.org/2000/svg" xml:space="preserve" width="298.806mm" height="199.282mm" version="1.1" style="shape-rendering:geometricPrecision; text-rendering:geometricPrecision; image-rendering:optimizeQuality; fill-rule:evenodd; clip-rule:evenodd"
viewBox="0 0 379.16 252.88"
 xmlns:xlink="http://www.w3.org/1999/xlink">
 <defs>
  <style type="text/css">
   <![CDATA[
    .fil0 {fill:#B3B3B3}
    .fil1 {fill:white}
    .fil2 {fill:white;fill-rule:nonzero}
   ]]>
  </style>
 </defs>
 <g id="Слой_x0020_1">
  <metadata id="CorelCorpID_0Corel-Layer"/>
  <g id="_1011736656">
   <path class="fil0" d="M16.18 0c116.17,0 231.22,0 347.39,0 8.58,0 15.59,7.17 15.59,15.59l0 221.7c0,8.42 -7.01,15.59 -15.59,15.59 -116.17,0 -231.22,0 -347.39,0 -8.91,0 -16.18,-7.27 -16.18,-16.18l0 -220.51c0,-8.91 7.27,-16.18 16.18,-16.18z"/>
   <path class="fil1" d="M52.1 77.3l36.02 0 0 -0.99c0,-10.58 8.63,-19.19 19.2,-19.19l53.73 0c10.58,0 19.2,8.62 19.2,19.19l0 0.99 36.04 0c10.56,0 19.19,8.63 19.19,19.19l0 80.09c0,10.56 -8.63,19.19 -19.19,19.19l-164.2 0c-10.58,0 -19.19,-8.63 -19.19,-19.19l0 -80.09c0,-10.56 8.62,-19.19 19.19,-19.19zm82.09 16.22c22.03,0 39.89,17.86 39.89,39.89 0,22.01 -17.87,39.88 -39.89,39.88 -22.01,0 -39.88,-17.86 -39.88,-39.88 0,-22.02 17.87,-39.89 39.88,-39.89z"/>
   <path class="fil1" d="M357.97 115.48l-26.86 28.94c-1.87,2.01 -5.02,2.12 -7.03,0.25l-27.33 -29.43c-1.87,-2.01 -1.76,-5.16 0.25,-7.03 0.96,-0.89 2.17,-1.33 3.39,-1.33l54.17 -0.01c2.75,0 4.98,2.23 4.98,4.98 0,1.43 -0.6,2.72 -1.57,3.63z"/>
   <path class="fil2" d="M268.57 43.97c0,-1.32 1.07,-2.39 2.39,-2.39 1.32,0 2.39,1.07 2.39,2.39l0 164.95c0,1.32 -1.07,2.39 -2.39,2.39 -1.32,0 -2.39,-1.07 -2.39,-2.39l0 -164.95z"/>
  </g>
 </g>
</svg>
