<?xml version="1.0" encoding="UTF-8"?>
<!DOCTYPE svg PUBLIC "-//W3C//DTD SVG 1.1//EN" "http://www.w3.org/Graphics/SVG/1.1/DTD/svg11.dtd">
<!-- Creator: CorelDRAW 2017 -->
<svg xmlns="http://www.w3.org/2000/svg" xml:space="preserve" width="196.478mm" height="196.478mm" version="1.1" style="shape-rendering:geometricPrecision; text-rendering:geometricPrecision; image-rendering:optimizeQuality; fill-rule:evenodd; clip-rule:evenodd"
viewBox="0 0 407.45 407.45"
 xmlns:xlink="http://www.w3.org/1999/xlink">
 <defs>
  <style type="text/css">
   <![CDATA[
    .fil0 {fill:#B3B3B3}
    .fil1 {fill:white}
   ]]>
  </style>
 </defs>
 <g id="Слой_x0020_1">
  <metadata id="CorelCorpID_0Corel-Layer"/>
  <g id="_1011674640">
   <path class="fil0" d="M26.07 -0l355.32 0c14.34,0 26.07,11.73 26.07,26.07l0 355.3c0,14.34 -11.73,26.08 -26.07,26.08l-355.32 0c-14.34,0 -26.07,-11.74 -26.07,-26.08l0 -355.3c0,-14.34 11.73,-26.07 26.07,-26.07z"/>
   <path class="fil1" d="M82.88 113.26l0.57 189.63c0.04,12.96 10.6,23.61 23.62,23.61l193.88 0c13.03,0 23.62,-10.61 23.62,-23.61 0,-3.04 0,-6.08 0,-9.12l0 -141.46c0,-5.58 -1.3,-9.92 -3.97,-12.34 -4.18,-3.82 -11.24,-3.44 -16.94,2.25 -22.83,22.83 -45.67,45.67 -68.5,68.5 -8.06,8.06 -15.8,7.43 -22.27,0.96l-107.93 -107.93c-6.92,-6.92 -14.64,-7.34 -18.84,-2.38 -2.15,2.52 -3.25,6.33 -3.24,11.9z"/>
  </g>
 </g>
</svg>
