<?xml version="1.0" encoding="UTF-8"?>
<!DOCTYPE svg PUBLIC "-//W3C//DTD SVG 1.1//EN" "http://www.w3.org/Graphics/SVG/1.1/DTD/svg11.dtd">
<!-- Creator: CorelDRAW 2017 -->
<svg xmlns="http://www.w3.org/2000/svg" xml:space="preserve" width="298.806mm" height="199.282mm" version="1.1" style="shape-rendering:geometricPrecision; text-rendering:geometricPrecision; image-rendering:optimizeQuality; fill-rule:evenodd; clip-rule:evenodd"
viewBox="0 0 358.36 239"
 xmlns:xlink="http://www.w3.org/1999/xlink">
 <defs>
  <style type="text/css">
   <![CDATA[
    .fil0 {fill:#B3B3B3}
    .fil1 {fill:white}
    .fil2 {fill:white;fill-rule:nonzero}
   ]]>
  </style>
 </defs>
 <g id="Слой_x0020_1">
  <metadata id="CorelCorpID_0Corel-Layer"/>
  <g id="_1011706160">
   <path class="fil0" d="M15.29 0c109.8,0 218.53,0 328.33,0 8.11,0 14.73,6.77 14.73,14.73l0 209.53c0,7.96 -6.62,14.73 -14.73,14.73 -109.8,0 -218.53,0 -328.33,0 -8.42,0 -15.29,-6.87 -15.29,-15.29l0 -208.41c0,-8.42 6.87,-15.29 15.29,-15.29z"/>
   <path class="fil1" d="M338.33 109.15l-25.39 27.35c-1.77,1.9 -4.74,2 -6.64,0.24l-25.83 -27.81c-1.77,-1.9 -1.66,-4.88 0.24,-6.64 0.9,-0.84 2.05,-1.26 3.2,-1.26l51.2 -0.01c2.6,0 4.71,2.11 4.71,4.71 0,1.35 -0.57,2.57 -1.48,3.43z"/>
   <path class="fil2" d="M253.83 41.55c0,-1.25 1.01,-2.26 2.26,-2.26 1.25,0 2.26,1.01 2.26,2.26l0 155.9c0,1.25 -1.01,2.26 -2.26,2.26 -1.25,0 -2.26,-1.01 -2.26,-2.26l0 -155.9z"/>
   <path class="fil1" d="M79.45 54.34l94.37 0c9.9,0 17.97,8.08 17.97,17.97l0 94.37c0,9.9 -8.07,17.98 -17.97,17.98l-94.37 0c-9.9,0 -17.98,-8.08 -17.98,-17.98l0 -94.37c0,-9.89 8.08,-17.97 17.98,-17.97z"/>
  </g>
 </g>
</svg>
