<?xml version="1.0" encoding="UTF-8"?>
<!DOCTYPE svg PUBLIC "-//W3C//DTD SVG 1.1//EN" "http://www.w3.org/Graphics/SVG/1.1/DTD/svg11.dtd">
<!-- Creator: CorelDRAW 2017 -->
<svg xmlns="http://www.w3.org/2000/svg" xml:space="preserve" width="298.806mm" height="199.282mm" version="1.1" style="shape-rendering:geometricPrecision; text-rendering:geometricPrecision; image-rendering:optimizeQuality; fill-rule:evenodd; clip-rule:evenodd"
viewBox="0 0 368.47 245.74"
 xmlns:xlink="http://www.w3.org/1999/xlink">
 <defs>
  <style type="text/css">
   <![CDATA[
    .fil0 {fill:#B3B3B3}
    .fil1 {fill:white}
    .fil2 {fill:white;fill-rule:nonzero}
   ]]>
  </style>
 </defs>
 <g id="Слой_x0020_1">
  <metadata id="CorelCorpID_0Corel-Layer"/>
  <g id="_1011699536">
   <path class="fil0" d="M15.72 0c112.9,0 224.7,0 337.59,0 8.34,0 15.15,6.97 15.15,15.15l0 215.44c0,8.18 -6.81,15.15 -15.15,15.15 -112.9,0 -224.7,0 -337.59,0 -8.66,0 -15.72,-7.07 -15.72,-15.72l0 -214.29c0,-8.66 7.07,-15.72 15.72,-15.72z"/>
   <path class="fil1" d="M347.87 112.23l-26.1 28.12c-1.82,1.95 -4.88,2.06 -6.83,0.24l-26.56 -28.6c-1.82,-1.95 -1.71,-5.01 0.24,-6.83 0.93,-0.87 2.11,-1.29 3.29,-1.29l52.64 -0.01c2.67,0 4.84,2.17 4.84,4.84 0,1.39 -0.59,2.64 -1.53,3.53z"/>
   <path class="fil2" d="M260.99 42.72c0,-1.28 1.04,-2.32 2.32,-2.32 1.28,0 2.32,1.04 2.32,2.32l0 160.3c0,1.28 -1.04,2.32 -2.32,2.32 -1.28,0 -2.32,-1.04 -2.32,-2.32l0 -160.3z"/>
   <path class="fil1" d="M120.26 60.38l59.3 55.04c4.12,3.83 4.34,10.28 0.51,14.4l-60.3 56.01c-4.12,3.83 -10.57,3.61 -14.4,-0.51 -1.83,-1.96 -2.73,-4.45 -2.73,-6.95l-0.03 -111c0,-5.64 4.58,-10.21 10.21,-10.21 2.93,0 5.58,1.24 7.44,3.22z"/>
  </g>
 </g>
</svg>
