<?xml version="1.0" encoding="UTF-8"?>
<!DOCTYPE svg PUBLIC "-//W3C//DTD SVG 1.1//EN" "http://www.w3.org/Graphics/SVG/1.1/DTD/svg11.dtd">
<!-- Creator: CorelDRAW 2017 -->
<svg xmlns="http://www.w3.org/2000/svg" xml:space="preserve" width="196.478mm" height="196.478mm" version="1.1" style="shape-rendering:geometricPrecision; text-rendering:geometricPrecision; image-rendering:optimizeQuality; fill-rule:evenodd; clip-rule:evenodd"
viewBox="0 0 368.43 368.43"
 xmlns:xlink="http://www.w3.org/1999/xlink">
 <defs>
  <style type="text/css">
   <![CDATA[
    .fil0 {fill:#B3B3B3}
    .fil1 {fill:white;fill-rule:nonzero}
   ]]>
  </style>
 </defs>
 <g id="Слой_x0020_1">
  <metadata id="CorelCorpID_0Corel-Layer"/>
  <g id="_1011715440">
   <path class="fil0" d="M23.57 -0l321.28 0c12.96,0 23.58,10.61 23.58,23.57l0 321.28c0,12.96 -10.62,23.58 -23.58,23.58l-321.28 0c-12.96,0 -23.57,-10.62 -23.57,-23.58l0 -321.28c0,-12.96 10.61,-23.57 23.57,-23.57z"/>
   <path class="fil1" d="M78.24 141.81c0,7.69 -6.24,13.93 -13.93,13.93 -7.69,0 -13.93,-6.24 -13.93,-13.93l0 -77.49c0,-0.72 0.06,-1.43 0.17,-2.13l0.06 -0.31 0.18 -0.88 0.08 -0.33 0.24 -0.81 0.11 -0.31 0.29 -0.72 0.04 -0.1 0.13 -0.28 0.08 -0.17 0.31 -0.61 0.25 -0.43 0.32 -0.52 0.13 -0.2 0.2 -0.28 0.53 -0.71 0.03 -0.03 0.13 -0.14 0.58 -0.67 0.47 -0.47 0.67 -0.58 0.14 -0.13 0.03 -0.03 0.71 -0.53 0.28 -0.19 0.2 -0.13 0.52 -0.32 0.43 -0.25 0.61 -0.31 0.17 -0.08 0.28 -0.13 0.1 -0.04 0.72 -0.29 0.31 -0.11 0.81 -0.24 0.33 -0.08 0.88 -0.18 0.31 -0.06c0.7,-0.1 1.41,-0.17 2.13,-0.17l77.49 0c7.69,0 13.93,6.24 13.93,13.93 0,7.69 -6.24,13.93 -13.93,13.93l-43.88 0 53.72 53.72c5.43,5.43 5.43,14.26 0,19.69 -5.43,5.43 -14.26,5.43 -19.69,0l-53.72 -53.72 0 43.88zm192.26 148.39l-53.72 -53.72c-5.43,-5.43 -5.43,-14.26 0,-19.69 5.43,-5.43 14.26,-5.43 19.69,0l53.72 53.72 0 -43.88c0,-7.69 6.24,-13.93 13.93,-13.93 7.69,0 13.93,6.24 13.93,13.93l0 77.49c0,0.72 -0.06,1.43 -0.17,2.13l-0.06 0.31 -0.18 0.88 -0.08 0.33 -0.24 0.81 -0.11 0.31 -0.29 0.72 -0.04 0.1 -0.13 0.28 -0.08 0.17 -0.31 0.61 -0.25 0.43 -0.32 0.52 -0.13 0.19 -0.2 0.28 -0.53 0.71 -0.03 0.03 -0.13 0.14 -0.58 0.67 -0.47 0.47 -0.67 0.58 -0.14 0.13 -0.03 0.03 -0.71 0.53 -0.28 0.2 -0.2 0.13 -0.52 0.32 -0.43 0.25 -0.61 0.31 -0.17 0.08 -0.28 0.13 -0.1 0.04 -0.72 0.29 -0.31 0.11 -0.81 0.24 -0.33 0.08 -0.88 0.18 -0.31 0.06c-0.7,0.1 -1.41,0.17 -2.13,0.17l-77.49 0c-7.69,0 -13.93,-6.24 -13.93,-13.93 0,-7.69 6.24,-13.93 13.93,-13.93l43.88 0zm-192.26 -19.69l53.72 -53.72c5.43,-5.43 14.26,-5.43 19.69,0 5.43,5.43 5.43,14.26 0,19.69l-53.72 53.72 43.88 0c7.69,0 13.93,6.24 13.93,13.93 0,7.69 -6.24,13.93 -13.93,13.93l-77.49 0c-0.72,0 -1.43,-0.06 -2.13,-0.17l-0.31 -0.06 -0.88 -0.18 -0.33 -0.08 -0.81 -0.24 -0.31 -0.11 -0.72 -0.29 -0.1 -0.04 -0.28 -0.13 -0.17 -0.08 -0.61 -0.31 -0.43 -0.25 -0.52 -0.32 -0.2 -0.13 -0.28 -0.2 -0.71 -0.53 -0.03 -0.03 -0.14 -0.13 -0.67 -0.58 -0.47 -0.47 -0.58 -0.67 -0.13 -0.14 -0.03 -0.03 -0.53 -0.71 -0.2 -0.28 -0.13 -0.19 -0.32 -0.52 -0.25 -0.43 -0.31 -0.61 -0.08 -0.17 -0.13 -0.28 -0.04 -0.1 -0.29 -0.72 -0.11 -0.31 -0.24 -0.81 -0.08 -0.33 -0.18 -0.88 -0.06 -0.31c-0.1,-0.7 -0.17,-1.41 -0.17,-2.13l0 -77.49c0,-7.69 6.24,-13.93 13.93,-13.93 7.69,0 13.93,6.24 13.93,13.93l0 43.88zm211.96 -172.57l-53.72 53.72c-5.43,5.43 -14.26,5.43 -19.69,0 -5.43,-5.43 -5.43,-14.26 0,-19.69l53.72 -53.72 -43.88 0c-7.69,0 -13.93,-6.24 -13.93,-13.93 0,-7.69 6.24,-13.93 13.93,-13.93l77.49 0c0.72,0 1.43,0.06 2.13,0.17l0.31 0.06 0.88 0.18 0.33 0.08 0.81 0.24 0.31 0.11 0.72 0.29 0.1 0.04 0.28 0.13 0.17 0.08 0.61 0.31 0.43 0.25 0.52 0.32 0.2 0.13 0.28 0.19 0.71 0.53 0.03 0.03 0.14 0.13 0.67 0.58 0.47 0.47 0.58 0.67 0.13 0.14 0.03 0.03 0.53 0.71 0.2 0.28 0.13 0.2 0.32 0.52 0.25 0.43 0.31 0.61 0.08 0.17 0.13 0.28 0.04 0.1 0.29 0.72 0.11 0.31 0.24 0.81 0.08 0.33 0.18 0.88 0.06 0.31c0.1,0.7 0.17,1.41 0.17,2.13l0 77.49c0,7.69 -6.24,13.93 -13.93,13.93 -7.69,0 -13.93,-6.24 -13.93,-13.93l0 -43.88z"/>
  </g>
 </g>
</svg>
