<?xml version="1.0" encoding="UTF-8"?>
<!DOCTYPE svg PUBLIC "-//W3C//DTD SVG 1.1//EN" "http://www.w3.org/Graphics/SVG/1.1/DTD/svg11.dtd">
<!-- Creator: CorelDRAW 2017 -->
<svg xmlns="http://www.w3.org/2000/svg" xml:space="preserve" width="196.478mm" height="196.478mm" version="1.1" style="shape-rendering:geometricPrecision; text-rendering:geometricPrecision; image-rendering:optimizeQuality; fill-rule:evenodd; clip-rule:evenodd"
viewBox="0 0 351.6 351.6"
 xmlns:xlink="http://www.w3.org/1999/xlink">
 <defs>
  <style type="text/css">
   <![CDATA[
    .fil0 {fill:#B3B3B3}
    .fil1 {fill:white}
   ]]>
  </style>
 </defs>
 <g id="Слой_x0020_1">
  <metadata id="CorelCorpID_0Corel-Layer"/>
  <g id="_1011734768">
   <path class="fil0" d="M22.5 -0l306.6 0c12.37,0 22.49,10.12 22.49,22.49l0 306.6c0,12.37 -10.12,22.5 -22.49,22.5l-306.6 0c-12.37,0 -22.5,-10.13 -22.5,-22.5l0 -306.6c0,-12.37 10.13,-22.49 22.5,-22.49z"/>
   <path class="fil1" d="M92.65 67.42l11.87 0 0 58.66c0,7.47 6.1,13.57 13.57,13.57l86.46 0c7.47,0 13.57,-6.1 13.57,-13.57l0 -58.66 1.05 0c9.79,0 14.56,1.46 21.77,8.66l34.02 34.02c6.82,6.82 9.24,12.97 9.24,21.54l0 127.33c0,13.86 -11.34,25.2 -25.2,25.2l-166.34 0c-13.89,0 -25.22,-11.34 -25.22,-25.2l0 -166.34c0,-13.89 11.34,-25.22 25.22,-25.22zm103.36 9.26c4.65,0 6.74,1.94 6.74,6.59 0,13.5 0,27.02 0,40.52 0,4.65 -2.09,6.59 -6.74,6.59 -5.69,0 -11.39,0 -17.08,0 -4.65,0 -6.74,-1.94 -6.74,-6.59 0,-13.5 0,-27.02 0,-40.52 0,-4.65 2.09,-6.59 6.74,-6.59 5.69,0 11.39,0 17.08,0zm-80.25 192.89l120.08 0c6.19,0 11.24,-5.05 11.24,-11.24l0 -64.21c0,-6.19 -5.05,-11.24 -11.24,-11.24l-120.08 0c-6.19,0 -11.24,5.05 -11.24,11.24l0 64.21c0,6.19 5.05,11.24 11.24,11.24z"/>
  </g>
 </g>
</svg>
