<?xml version="1.0" encoding="UTF-8"?>
<!DOCTYPE svg PUBLIC "-//W3C//DTD SVG 1.1//EN" "http://www.w3.org/Graphics/SVG/1.1/DTD/svg11.dtd">
<!-- Creator: CorelDRAW 2017 -->
<svg xmlns="http://www.w3.org/2000/svg" xml:space="preserve" width="196.478mm" height="196.478mm" version="1.1" style="shape-rendering:geometricPrecision; text-rendering:geometricPrecision; image-rendering:optimizeQuality; fill-rule:evenodd; clip-rule:evenodd"
viewBox="0 0 386.96 386.96"
 xmlns:xlink="http://www.w3.org/1999/xlink">
 <defs>
  <style type="text/css">
   <![CDATA[
    .fil0 {fill:#B3B3B3}
    .fil1 {fill:white;fill-rule:nonzero}
   ]]>
  </style>
 </defs>
 <g id="Слой_x0020_1">
  <metadata id="CorelCorpID_0Corel-Layer"/>
  <g id="_1074661488">
   <path class="fil0" d="M24.77 -0l337.44 0c13.62,0 24.75,11.14 24.75,24.75l0 337.44c0,13.62 -11.14,24.77 -24.75,24.77l-337.44 0c-13.62,0 -24.77,-11.15 -24.77,-24.77l0 -337.44c0,-13.62 11.15,-24.75 24.77,-24.75z"/>
   <path class="fil1" d="M100.23 100.22c16.94,-16.94 39.17,-25.4 61.35,-25.4 22.2,0 44.42,8.47 61.35,25.4 16.94,16.94 25.42,39.17 25.42,61.35 0,17.58 -5.32,35.19 -15.94,50.15l75.47 75.47c5.7,5.7 5.7,14.98 0,20.68 -5.7,5.7 -14.98,5.7 -20.68,0l-75.47 -75.47c-14.96,10.62 -32.57,15.94 -50.15,15.94 -22.19,0 -44.42,-8.48 -61.35,-25.42 -16.94,-16.94 -25.4,-39.15 -25.4,-61.35 0,-22.19 8.47,-44.42 25.4,-61.35zm61.35 3.85c-14.71,0 -29.46,5.62 -40.67,16.83 -11.22,11.22 -16.83,25.96 -16.83,40.67 0,14.71 5.62,29.46 16.83,40.67 11.22,11.22 25.96,16.85 40.67,16.85 14.6,0 29.22,-5.54 40.41,-16.59l0.26 -0.26 0.26 -0.26c11.04,-11.19 16.59,-25.81 16.59,-40.41 0,-14.71 -5.63,-29.46 -16.85,-40.67 -11.22,-11.22 -25.96,-16.83 -40.67,-16.83z"/>
  </g>
 </g>
</svg>
