<?xml version="1.0" encoding="UTF-8"?>
<!DOCTYPE svg PUBLIC "-//W3C//DTD SVG 1.1//EN" "http://www.w3.org/Graphics/SVG/1.1/DTD/svg11.dtd">
<!-- Creator: CorelDRAW 2017 -->
<svg xmlns="http://www.w3.org/2000/svg" xml:space="preserve" width="199.282mm" height="199.282mm" version="1.1" style="shape-rendering:geometricPrecision; text-rendering:geometricPrecision; image-rendering:optimizeQuality; fill-rule:evenodd; clip-rule:evenodd"
viewBox="0 0 181.76 181.76"
 xmlns:xlink="http://www.w3.org/1999/xlink">
 <defs>
  <style type="text/css">
   <![CDATA[
    .fil0 {fill:#B3B3B3}
   ]]>
  </style>
 </defs>
 <g id="Слой_x0020_1">
  <metadata id="CorelCorpID_0Corel-Layer"/>
  <path class="fil0" d="M11.63 181.76l158.5 0c6.4,0 11.63,-5.23 11.63,-11.63l0 -158.5c0,-6.4 -5.23,-11.63 -11.63,-11.63l-158.5 0c-6.4,0 -11.63,5.23 -11.63,11.63l0 158.5c0,6.4 5.23,11.63 11.63,11.63zm50.47 -78.85l10.98 0 0 -53.89c0,-3.2 2.61,-5.81 5.81,-5.81l23.98 0c3.2,0 5.81,2.61 5.81,5.81l0 53.89 10.98 0c3.79,0 6.87,3.08 6.87,6.87 0,1.9 -0.77,3.61 -2.01,4.86l-28.78 28.78c-2.68,2.68 -7.03,2.68 -9.71,0l-28.78 -28.78c-2.68,-2.68 -2.68,-7.03 0,-9.71 1.34,-1.34 3.1,-2.01 4.86,-2.01z"/>
 </g>
</svg>
