<?xml version="1.0" encoding="UTF-8"?>
<!DOCTYPE svg PUBLIC "-//W3C//DTD SVG 1.1//EN" "http://www.w3.org/Graphics/SVG/1.1/DTD/svg11.dtd">
<!-- Creator: CorelDRAW 2017 -->
<svg xmlns="http://www.w3.org/2000/svg" xml:space="preserve" width="199.282mm" height="199.282mm" version="1.1" style="shape-rendering:geometricPrecision; text-rendering:geometricPrecision; image-rendering:optimizeQuality; fill-rule:evenodd; clip-rule:evenodd"
viewBox="0 0 177.77 177.77"
 xmlns:xlink="http://www.w3.org/1999/xlink">
 <defs>
  <style type="text/css">
   <![CDATA[
    .fil0 {fill:#B3B3B3}
   ]]>
  </style>
 </defs>
 <g id="Слой_x0020_1">
  <metadata id="CorelCorpID_0Corel-Layer"/>
  <path class="fil0" d="M11.38 0l155.02 0c6.26,0 11.38,5.11 11.38,11.38l0 155.02c0,6.26 -5.11,11.38 -11.38,11.38l-155.02 0c-6.26,0 -11.38,-5.11 -11.38,-11.38l0 -155.02c0,-6.26 5.11,-11.38 11.38,-11.38zm105.66 77.12l-10.74 0 0 52.71c0,3.13 -2.55,5.68 -5.68,5.68l-23.45 0c-3.13,0 -5.68,-2.55 -5.68,-5.68l0 -52.71 -10.74 0c-1.72,0 -3.44,-0.66 -4.75,-1.97 -2.62,-2.62 -2.62,-6.88 0,-9.5l28.15 -28.15c2.62,-2.62 6.88,-2.62 9.5,0l28.15 28.15c1.22,1.22 1.97,2.9 1.97,4.75 0,3.71 -3.01,6.72 -6.72,6.72z"/>
 </g>
</svg>
