<?xml version="1.0" encoding="UTF-8"?>
<!DOCTYPE svg PUBLIC "-//W3C//DTD SVG 1.1//EN" "http://www.w3.org/Graphics/SVG/1.1/DTD/svg11.dtd">
<!-- Creator: CorelDRAW 2017 -->
<svg xmlns="http://www.w3.org/2000/svg" xml:space="preserve" width="199.288mm" height="199.282mm" version="1.1" style="shape-rendering:geometricPrecision; text-rendering:geometricPrecision; image-rendering:optimizeQuality; fill-rule:evenodd; clip-rule:evenodd"
viewBox="0 0 173.97 173.96"
 xmlns:xlink="http://www.w3.org/1999/xlink">
 <defs>
  <style type="text/css">
   <![CDATA[
    .fil0 {fill:#B3B3B3}
    .fil1 {fill:white}
    .fil2 {fill:white;fill-rule:nonzero}
   ]]>
  </style>
 </defs>
 <g id="Слой_x0020_1">
  <metadata id="CorelCorpID_0Corel-Layer"/>
  <g id="_1011696848">
   <g>
    <path class="fil0" d="M11.14 -0l151.7 0c6.12,0 11.14,5.01 11.14,11.13l0 151.7c0,6.12 -5.01,11.14 -11.14,11.14l-151.7 0c-6.12,0 -11.14,-5.01 -11.14,-11.14l0 -151.7c0,-6.12 5.01,-11.13 11.14,-11.13z"/>
    <path class="fil1" d="M56.67 62.32l18.43 0 26.98 -23.93c2.71,-2.39 6.85,-2.14 9.24,0.57 1.1,1.25 1.64,2.79 1.64,4.34l0.03 87.34c0,3.63 -2.95,6.58 -6.58,6.58 -1.88,0 -3.58,-0.8 -4.78,-2.06l-26.54 -23.54 -18.43 0c-3.77,0 -6.84,-2.59 -6.84,-5.79l0 -37.7c0,-3.2 3.07,-5.79 6.84,-5.79z"/>
   </g>
   <path class="fil2" d="M146.71 23.71c0.97,-0.97 2.56,-0.97 3.54,0 0.97,0.97 0.97,2.56 0,3.54l-123 123c-0.97,0.97 -2.56,0.97 -3.54,0 -0.97,-0.97 -0.97,-2.56 0,-3.54l123 -123z"/>
  </g>
 </g>
</svg>
