<?xml version="1.0" encoding="UTF-8"?>
<!DOCTYPE svg PUBLIC "-//W3C//DTD SVG 1.1//EN" "http://www.w3.org/Graphics/SVG/1.1/DTD/svg11.dtd">
<!-- Creator: CorelDRAW 2017 -->
<svg xmlns="http://www.w3.org/2000/svg" xml:space="preserve" width="170.591mm" height="170.591mm" version="1.1" style="shape-rendering:geometricPrecision; text-rendering:geometricPrecision; image-rendering:optimizeQuality; fill-rule:evenodd; clip-rule:evenodd"
viewBox="0 0 347.87 347.87"
 xmlns:xlink="http://www.w3.org/1999/xlink">
 <defs>
  <style type="text/css">
   <![CDATA[
    .fil0 {fill:white}
   ]]>
  </style>
 </defs>
 <g id="Слой_x0020_1">
  <metadata id="CorelCorpID_0Corel-Layer"/>
  <path class="fil0" d="M22.26 0l303.35 0c12.25,0 22.26,10.01 22.26,22.26l0 303.35c0,12.25 -10.01,22.26 -22.26,22.26l-303.35 0c-12.25,0 -22.26,-10.01 -22.26,-22.26l0 -303.35c0,-12.25 10.01,-22.26 22.26,-22.26zm151.67 71.29c47.86,0 86.67,38.8 86.67,86.67 0,23.76 -9.57,45.29 -25.07,60.94l0 0.01 -0.32 0.33 -54.59 54.58c-3.68,3.69 -9.7,3.69 -13.4,0l-54.58 -54.58 -0.05 -0.07c-15.66,-15.67 -25.34,-37.31 -25.34,-61.22 0,-47.87 38.8,-86.67 86.67,-86.67zm0 41.09c25.18,0 45.58,20.41 45.58,45.58 0,25.17 -20.41,45.57 -45.58,45.57 -25.18,0 -45.58,-20.41 -45.58,-45.57 0,-25.18 20.41,-45.58 45.58,-45.58z"/>
 </g>
</svg>
