<?xml version="1.0" encoding="UTF-8"?>
<!DOCTYPE svg PUBLIC "-//W3C//DTD SVG 1.1//EN" "http://www.w3.org/Graphics/SVG/1.1/DTD/svg11.dtd">
<!-- Creator: CorelDRAW 2017 -->
<svg xmlns="http://www.w3.org/2000/svg" xml:space="preserve" width="170.582mm" height="170.582mm" version="1.1" style="shape-rendering:geometricPrecision; text-rendering:geometricPrecision; image-rendering:optimizeQuality; fill-rule:evenodd; clip-rule:evenodd"
viewBox="0 0 226.7 226.7"
 xmlns:xlink="http://www.w3.org/1999/xlink">
 <defs>
  <style type="text/css">
   <![CDATA[
    .fil0 {fill:white}
   ]]>
  </style>
 </defs>
 <g id="Слой_x0020_1">
  <metadata id="CorelCorpID_0Corel-Layer"/>
  <path class="fil0" d="M14.51 0l197.69 0c7.99,0 14.51,6.52 14.51,14.51l0 197.69c0,7.99 -6.52,14.51 -14.51,14.51l-197.69 0c-7.99,0 -14.51,-6.52 -14.51,-14.51l0 -197.69c0,-7.99 6.52,-14.51 14.51,-14.51zm98.84 47.93c21.84,0 39.54,17.7 39.54,39.54 0,21.84 -17.7,39.54 -39.54,39.54 -21.84,0 -39.54,-17.7 -39.54,-39.54 0,-21.84 17.7,-39.54 39.54,-39.54zm-37.61 118.41l2.76 0c4.76,0 7.24,-2.1 7.24,-5.36 0,-3.38 -1.77,-5.14 -5.64,-5.14 -2.04,0 -3.26,0.16 -4.36,0.44l0 10.06zm19.34 19.01c0.06,0.27 0.11,0.56 0.11,0.77 0,0.61 -0.33,0.94 -1.38,0.94l-5.36 0c-1.22,0 -1.77,-0.5 -2.04,-1.6l-2.1 -8.73c-0.89,-3.7 -2.88,-4.31 -5.53,-4.31l-3.04 0 0 12.88c0,1.05 -0.61,1.77 -1.66,1.77l-5.03 0c-1.05,0 -1.65,-0.72 -1.65,-1.77l0 -32.28c0,-1.55 0.77,-2.1 1.83,-2.38 2.98,-0.77 6.57,-1.11 9.95,-1.11 8.4,0 14.98,2.05 14.98,10.78 0,4.7 -3.92,7.96 -7.13,9.12l0 0.17c2.6,1.05 4.7,2.48 5.69,6.46l2.37 9.29zm28.69 -5.19c1.05,0 1.66,0.72 1.66,1.77l0 3.38c0,1.05 -0.61,1.77 -1.66,1.77l-20.44 0c-1.05,0 -1.66,-0.72 -1.66,-1.77l0 -33.72c0,-1.05 0.61,-1.77 1.66,-1.77l20.5 0c0.88,0 1.44,0.66 1.44,1.54 0,0.06 -0.06,0.61 -0.11,1.05l-0.45 2.65c-0.16,1 -0.88,1.66 -1.82,1.66l-12.82 0 0 7.74 11.71 0c0.88,0 1.44,0.66 1.44,1.55 0,0.05 0,0.55 -0.11,1.05l-0.45 2.6c-0.16,0.99 -0.88,1.66 -1.82,1.66l-10.78 0 0 8.84 13.7 0zm25.7 7.45c-12.88,0 -19.51,-8.06 -19.51,-18.68 0,-12.66 9.07,-19.67 20.34,-19.67 3.2,0 5.91,0.45 7.74,1.05 0.61,0.16 1.27,0.5 1.27,1.22 0,0.16 -0.16,0.77 -0.27,1.16l-0.99 3.76c-0.11,0.55 -0.45,0.77 -0.94,0.77 -0.33,0 -0.72,-0.16 -1.11,-0.27 -1.49,-0.45 -2.93,-0.78 -5.36,-0.78 -6.63,0 -11.82,4.04 -11.82,12.33 0,7.4 4.42,12.1 11.88,12.1 1.65,0 3.37,-0.16 5.03,-0.61 0.44,-0.1 0.82,-0.27 1.22,-0.27 0.55,0 0.93,0.22 1.05,0.77l0.88 3.6c0.11,0.39 0.22,0.99 0.22,1.16 0,0.77 -0.72,1.11 -1.38,1.28 -1.99,0.6 -4.7,1.1 -8.23,1.1z"/>
 </g>
</svg>
