<?xml version="1.0" encoding="UTF-8"?>
<!DOCTYPE svg PUBLIC "-//W3C//DTD SVG 1.1//EN" "http://www.w3.org/Graphics/SVG/1.1/DTD/svg11.dtd">
<!-- Creator: CorelDRAW 2017 -->
<svg xmlns="http://www.w3.org/2000/svg" xml:space="preserve" width="170.582mm" height="170.582mm" version="1.1" style="shape-rendering:geometricPrecision; text-rendering:geometricPrecision; image-rendering:optimizeQuality; fill-rule:evenodd; clip-rule:evenodd"
viewBox="0 0 294.41 294.41"
 xmlns:xlink="http://www.w3.org/1999/xlink">
 <defs>
  <style type="text/css">
   <![CDATA[
    .fil0 {fill:white}
   ]]>
  </style>
 </defs>
 <g id="Слой_x0020_1">
  <metadata id="CorelCorpID_0Corel-Layer"/>
  <path class="fil0" d="M18.84 0l256.73 0c10.38,0 18.84,8.46 18.84,18.84l0 256.73c0,10.38 -8.46,18.84 -18.84,18.84l-256.73 0c-10.38,0 -18.84,-8.46 -18.84,-18.84l0 -256.73c0,-10.38 8.46,-18.84 18.84,-18.84zm21.29 28.86l24.48 0c5.9,0 10.7,4.8 10.7,10.71l0 24.47c0,5.91 -4.8,10.72 -10.7,10.72l-24.48 0c-5.91,0 -10.71,-4.81 -10.71,-10.72l0 -24.47c0,-5.91 4.8,-10.71 10.71,-10.71zm189.67 190.79l24.48 0c5.91,0 10.71,4.81 10.71,10.72l0 24.48c0,5.9 -4.8,10.7 -10.71,10.7l-24.48 0c-5.9,0 -10.7,-4.8 -10.7,-10.7l0 -24.48c0,-5.91 4.8,-10.72 10.7,-10.72zm0 -63.58l24.48 0c5.91,0 10.71,4.8 10.71,10.71l0 24.47c0,5.91 -4.8,10.71 -10.71,10.71l-24.48 0c-5.9,0 -10.7,-4.8 -10.7,-10.71l0 -24.47c0,-5.91 4.8,-10.71 10.7,-10.71zm0 -63.59l24.48 0c5.91,0 10.71,4.8 10.71,10.71l0 24.46c0,5.92 -4.8,10.72 -10.71,10.72l-24.48 0c-5.9,0 -10.7,-4.8 -10.7,-10.72l0 -24.46c0,-5.91 4.8,-10.71 10.7,-10.71zm0 -63.62l24.48 0c5.91,0 10.71,4.8 10.71,10.71l0 24.47c0,5.91 -4.8,10.72 -10.71,10.72l-24.48 0c-5.9,0 -10.7,-4.81 -10.7,-10.72l0 -24.47c0,-5.91 4.8,-10.71 10.7,-10.71zm-189.67 190.79l24.48 0c5.9,0 10.7,4.81 10.7,10.72l0 24.48c0,5.9 -4.8,10.7 -10.7,10.7l-24.48 0c-5.91,0 -10.71,-4.8 -10.71,-10.7l0 -24.48c0,-5.91 4.8,-10.72 10.71,-10.72zm0 -63.58l24.48 0c5.9,0 10.7,4.8 10.7,10.71l0 24.47c0,5.91 -4.8,10.71 -10.7,10.71l-24.48 0c-5.91,0 -10.71,-4.8 -10.71,-10.71l0 -24.47c0,-5.91 4.8,-10.71 10.71,-10.71zm0 -63.59l24.48 0c5.9,0 10.7,4.8 10.7,10.71l0 24.46c0,5.92 -4.8,10.72 -10.7,10.72l-24.48 0c-5.91,0 -10.71,-4.8 -10.71,-10.72l0 -24.46c0,-5.91 4.8,-10.71 10.71,-10.71z"/>
 </g>
</svg>
