<?xml version="1.0" encoding="UTF-8"?>
<!DOCTYPE svg PUBLIC "-//W3C//DTD SVG 1.1//EN" "http://www.w3.org/Graphics/SVG/1.1/DTD/svg11.dtd">
<!-- Creator: CorelDRAW 2017 -->
<svg xmlns="http://www.w3.org/2000/svg" xml:space="preserve" width="232.685mm" height="232.689mm" version="1.1" style="shape-rendering:geometricPrecision; text-rendering:geometricPrecision; image-rendering:optimizeQuality; fill-rule:evenodd; clip-rule:evenodd"
viewBox="0 0 606.32 606.33"
 xmlns:xlink="http://www.w3.org/1999/xlink">
 <defs>
  <style type="text/css">
   <![CDATA[
    .fil0 {fill:#62A0DE}
   ]]>
  </style>
 </defs>
 <g id="Слой_x0020_1">
  <metadata id="CorelCorpID_0Corel-Layer"/>
  <g id="_1174785968">
   <rect class="fil0" x="475.5" y="158.53" width="130.81" height="130.81" rx="26.48" ry="26.48"/>
   <rect class="fil0" x="475.5" y="317.02" width="130.81" height="130.81" rx="26.48" ry="26.48"/>
   <path class="fil0" d="M501.99 475.52l77.86 0c14.56,0 26.48,11.92 26.48,26.48l0 65.51c0,21.36 -17.47,38.83 -38.83,38.83l-65.51 0c-14.56,0 -26.48,-11.92 -26.48,-26.48l0 -77.86c0,-14.56 11.92,-26.48 26.48,-26.48z"/>
   <path class="fil0" d="M501.98 0.02l65.51 0c21.36,0 38.83,17.47 38.83,38.83l0 65.51c0,14.56 -11.92,26.48 -26.48,26.48l-77.86 0c-14.56,0 -26.48,-11.92 -26.48,-26.48l0 -77.86c0,-14.56 11.92,-26.48 26.48,-26.48z"/>
   <rect class="fil0" x="317" y="158.5" width="130.81" height="130.81" rx="26.48" ry="26.48"/>
   <rect class="fil0" x="317" y="317" width="130.81" height="130.81" rx="26.48" ry="26.48"/>
   <rect class="fil0" x="317" y="475.5" width="130.81" height="130.81" rx="26.48" ry="26.48"/>
   <rect class="fil0" x="317" y="0" width="130.81" height="130.81" rx="26.48" ry="26.48"/>
   <rect class="fil0" x="158.51" y="158.5" width="130.81" height="130.81" rx="26.48" ry="26.48"/>
   <rect class="fil0" x="158.51" y="317" width="130.81" height="130.81" rx="26.48" ry="26.48"/>
   <rect class="fil0" x="158.51" y="475.5" width="130.81" height="130.81" rx="26.48" ry="26.48"/>
   <rect class="fil0" x="158.51" y="0" width="130.81" height="130.81" rx="26.48" ry="26.48"/>
   <rect class="fil0" x="-0" y="158.53" width="130.81" height="130.81" rx="26.48" ry="26.48"/>
   <rect class="fil0" x="-0" y="317.02" width="130.81" height="130.81" rx="26.48" ry="26.48"/>
   <path class="fil0" d="M26.48 475.52l77.86 0c14.56,0 26.48,11.92 26.48,26.48l0 77.86c0,14.56 -11.92,26.48 -26.48,26.48l-65.51 0c-21.36,0 -38.83,-17.47 -38.83,-38.83l0 -65.51c0,-14.56 11.92,-26.48 26.48,-26.48z"/>
   <path class="fil0" d="M38.83 0.02l65.51 0c14.56,0 26.48,11.92 26.48,26.48l0 77.86c0,14.56 -11.92,26.48 -26.48,26.48l-77.86 0c-14.56,0 -26.48,-11.92 -26.48,-26.48l0 -65.51c0,-21.36 17.47,-38.83 38.83,-38.83z"/>
  </g>
 </g>
</svg>
