<?xml version="1.0" encoding="UTF-8"?>
<!DOCTYPE svg PUBLIC "-//W3C//DTD SVG 1.1//EN" "http://www.w3.org/Graphics/SVG/1.1/DTD/svg11.dtd">
<!-- Creator: CorelDRAW 2017 -->
<svg xmlns="http://www.w3.org/2000/svg" xml:space="preserve" width="232.681mm" height="232.681mm" version="1.1" style="shape-rendering:geometricPrecision; text-rendering:geometricPrecision; image-rendering:optimizeQuality; fill-rule:evenodd; clip-rule:evenodd"
viewBox="0 0 775.58 775.58"
 xmlns:xlink="http://www.w3.org/1999/xlink">
 <defs>
  <style type="text/css">
   <![CDATA[
    .fil0 {fill:#62A0DE}
   ]]>
  </style>
 </defs>
 <g id="Слой_x0020_1">
  <metadata id="CorelCorpID_0Corel-Layer"/>
  <g id="_1174827984">
   <rect class="fil0" x="0" y="0" width="478.97" height="478.97" rx="49.67" ry="49.67"/>
   <path class="fil0" d="M582.88 0l143.03 0c27.32,0 49.67,22.35 49.67,49.67l0 143.03c0,18.62 -15.24,33.87 -33.87,33.87l-158.83 0c-18.62,0 -33.87,-15.24 -33.87,-33.87l0 -158.83c0,-18.62 15.24,-33.87 33.87,-33.87z"/>
   <rect class="fil0" x="549.01" y="274.5" width="226.56" height="226.56" rx="33.87" ry="33.87"/>
   <path class="fil0" d="M582.89 549.02l158.83 0c18.62,0 33.87,15.24 33.87,33.87l0 143.03c0,27.32 -22.35,49.67 -49.67,49.67l-143.03 0c-18.62,0 -33.87,-15.24 -33.87,-33.87l0 -158.83c0,-18.62 15.24,-33.87 33.87,-33.87z"/>
   <rect class="fil0" transform="matrix(6.80388E-13 25.69 -25.69 6.80388E-13 501.076 549.013)" width="8.82" height="8.82" rx="1.32" ry="1.32"/>
   <path class="fil0" d="M226.56 582.89l0 158.83c0,18.62 -15.24,33.87 -33.87,33.87l-143.03 0c-27.32,0 -49.67,-22.35 -49.67,-49.67l0 -143.03c0,-18.62 15.24,-33.87 33.87,-33.87l158.83 0c18.62,0 33.87,15.24 33.87,33.87z"/>
  </g>
 </g>
</svg>
