<?xml version="1.0" encoding="UTF-8"?>
<!DOCTYPE svg PUBLIC "-//W3C//DTD SVG 1.1//EN" "http://www.w3.org/Graphics/SVG/1.1/DTD/svg11.dtd">
<!-- Creator: CorelDRAW 2017 -->
<svg xmlns="http://www.w3.org/2000/svg" xml:space="preserve" width="232.682mm" height="232.68mm" version="1.1" style="shape-rendering:geometricPrecision; text-rendering:geometricPrecision; image-rendering:optimizeQuality; fill-rule:evenodd; clip-rule:evenodd"
viewBox="0 0 653.88 653.87"
 xmlns:xlink="http://www.w3.org/1999/xlink">
 <defs>
  <style type="text/css">
   <![CDATA[
    .fil0 {fill:#62A0DE}
   ]]>
  </style>
 </defs>
 <g id="Слой_x0020_1">
  <metadata id="CorelCorpID_0Corel-Layer"/>
  <g id="_1174815248">
   <path class="fil0" d="M491.42 0l120.59 0c23.03,0 41.87,18.84 41.87,41.87l0 120.59c0,15.7 -12.85,28.55 -28.55,28.55l-133.9 0c-15.7,0 -28.55,-12.85 -28.55,-28.55l0 -133.9c0,-15.7 12.85,-28.55 28.55,-28.55z"/>
   <rect class="fil0" x="462.86" y="231.43" width="191.01" height="191.01" rx="28.55" ry="28.55"/>
   <path class="fil0" d="M491.42 462.86l133.9 0c15.7,0 28.55,12.85 28.55,28.55l0 120.59c0,23.03 -18.84,41.87 -41.87,41.87l-120.59 0c-15.7,0 -28.55,-12.85 -28.55,-28.55l0 -133.9c0,-15.7 12.85,-28.55 28.55,-28.55z"/>
   <rect class="fil0" x="231.44" y="0" width="191.01" height="191.01" rx="28.55" ry="28.55"/>
   <rect class="fil0" x="231.44" y="231.43" width="191.01" height="191.01" rx="28.55" ry="28.55"/>
   <rect class="fil0" x="231.45" y="462.86" width="191.01" height="191.01" rx="28.55" ry="28.55"/>
   <path class="fil0" d="M41.87 0l120.59 0c15.7,0 28.55,12.85 28.55,28.55l0 133.9c0,15.7 -12.85,28.55 -28.55,28.55l-133.9 0c-15.7,0 -28.55,-12.85 -28.55,-28.55l0 -120.59c0,-23.03 18.84,-41.87 41.87,-41.87z"/>
   <rect class="fil0" x="-0" y="231.43" width="191.01" height="191.01" rx="28.55" ry="28.55"/>
   <path class="fil0" d="M28.56 462.86l133.9 0c15.7,0 28.55,12.85 28.55,28.55l0 133.9c0,15.7 -12.85,28.55 -28.55,28.55l-120.59 0c-23.03,0 -41.87,-18.84 -41.87,-41.87l0 -120.59c0,-15.7 12.85,-28.55 28.55,-28.55z"/>
  </g>
 </g>
</svg>
