<?xml version="1.0" encoding="UTF-8"?>
<!DOCTYPE svg PUBLIC "-//W3C//DTD SVG 1.1//EN" "http://www.w3.org/Graphics/SVG/1.1/DTD/svg11.dtd">
<!-- Creator: CorelDRAW 2017 -->
<svg xmlns="http://www.w3.org/2000/svg" xml:space="preserve" width="29.6661mm" height="0.2mm" version="1.1" style="shape-rendering:geometricPrecision; text-rendering:geometricPrecision; image-rendering:optimizeQuality; fill-rule:evenodd; clip-rule:evenodd"
viewBox="0 0 2281.03 15.38"
 xmlns:xlink="http://www.w3.org/1999/xlink">
 <defs>
  <style type="text/css">
   <![CDATA[
    .fil0 {fill:#666666;fill-rule:nonzero}
   ]]>
  </style>
 </defs>
 <g id="Слой_x0020_1">
  <metadata id="CorelCorpID_0Corel-Layer"/>
  <path class="fil0" d="M2265.66 15.38l0 -15.38 15.38 0 0 15.38 -15.38 0zm-2265.66 0l5.09 0 0 -15.38 -5.09 0 0 15.38zm20.47 0l0 -15.38 15.38 0 0 15.38 -15.38 0zm30.76 0l0 -15.38 15.38 0 0 15.38 -15.38 0zm30.76 0l0 -15.38 15.38 0 0 15.38 -15.38 0zm30.76 0l0 -15.38 15.38 0 0 15.38 -15.38 0zm30.76 0l0 -15.38 15.38 0 0 15.38 -15.38 0zm30.76 0l0 -15.38 15.38 0 0 15.38 -15.38 0zm30.76 0l0 -15.38 15.38 0 0 15.38 -15.38 0zm30.76 0l0 -15.38 15.38 0 0 15.38 -15.38 0zm30.76 0l0 -15.38 15.38 0 0 15.38 -15.38 0zm30.76 0l0 -15.38 15.38 0 0 15.38 -15.38 0zm30.76 0l0 -15.38 15.38 0 0 15.38 -15.38 0zm30.76 0l0 -15.38 15.38 0 0 15.38 -15.38 0zm30.76 0l0 -15.38 15.38 0 0 15.38 -15.38 0zm30.76 0l0 -15.38 15.38 0 0 15.38 -15.38 0zm30.76 0l0 -15.38 15.38 0 0 15.38 -15.38 0zm30.76 0l0 -15.38 15.38 0 0 15.38 -15.38 0zm30.76 0l0 -15.38 15.38 0 0 15.38 -15.38 0zm30.76 0l0 -15.38 15.38 0 0 15.38 -15.38 0zm30.76 0l0 -15.38 15.38 0 0 15.38 -15.38 0zm30.76 0l0 -15.38 15.38 0 0 15.38 -15.38 0zm30.76 0l0 -15.38 15.38 0 0 15.38 -15.38 0zm30.76 0l0 -15.38 15.38 0 0 15.38 -15.38 0zm30.76 0l0 -15.38 15.38 0 0 15.38 -15.38 0zm30.76 0l0 -15.38 15.38 0 0 15.38 -15.38 0zm30.76 0l0 -15.38 15.38 0 0 15.38 -15.38 0zm30.76 0l0 -15.38 15.38 0 0 15.38 -15.38 0zm30.76 0l0 -15.38 15.38 0 0 15.38 -15.38 0zm30.76 0l0 -15.38 15.38 0 0 15.38 -15.38 0zm30.76 0l0 -15.38 15.38 0 0 15.38 -15.38 0zm30.76 0l0 -15.38 15.38 0 0 15.38 -15.38 0zm30.76 0l0 -15.38 15.38 0 0 15.38 -15.38 0zm30.76 0l0 -15.38 15.38 0 0 15.38 -15.38 0zm30.76 0l0 -15.38 15.38 0 0 15.38 -15.38 0zm30.76 0l0 -15.38 15.38 0 0 15.38 -15.38 0zm30.76 0l0 -15.38 15.38 0 0 15.38 -15.38 0zm30.76 0l0 -15.38 15.38 0 0 15.38 -15.38 0zm30.76 0l0 -15.38 15.38 0 0 15.38 -15.38 0zm30.76 0l0 -15.38 15.38 0 0 15.38 -15.38 0zm30.76 0l0 -15.38 15.38 0 0 15.38 -15.38 0zm30.76 0l0 -15.38 15.38 0 0 15.38 -15.38 0zm30.76 0l0 -15.38 15.38 0 0 15.38 -15.38 0zm30.76 0l0 -15.38 15.38 0 0 15.38 -15.38 0zm30.76 0l0 -15.38 15.38 0 0 15.38 -15.38 0zm30.76 0l0 -15.38 15.38 0 0 15.38 -15.38 0zm30.76 0l0 -15.38 15.38 0 0 15.38 -15.38 0zm30.76 0l0 -15.38 15.38 0 0 15.38 -15.38 0zm30.76 0l0 -15.38 15.38 0 0 15.38 -15.38 0zm30.76 0l0 -15.38 15.38 0 0 15.38 -15.38 0zm30.76 0l0 -15.38 15.38 0 0 15.38 -15.38 0zm30.76 0l0 -15.38 15.38 0 0 15.38 -15.38 0zm30.76 0l0 -15.38 15.38 0 0 15.38 -15.38 0zm30.76 0l0 -15.38 15.38 0 0 15.38 -15.38 0zm30.76 0l0 -15.38 15.38 0 0 15.38 -15.38 0zm30.76 0l0 -15.38 15.38 0 0 15.38 -15.38 0zm30.76 0l0 -15.38 15.38 0 0 15.38 -15.38 0zm30.76 0l0 -15.38 15.38 0 0 15.38 -15.38 0zm30.76 0l0 -15.38 15.38 0 0 15.38 -15.38 0zm30.76 0l0 -15.38 15.38 0 0 15.38 -15.38 0zm30.76 0l0 -15.38 15.38 0 0 15.38 -15.38 0zm30.76 0l0 -15.38 15.38 0 0 15.38 -15.38 0zm30.76 0l0 -15.38 15.38 0 0 15.38 -15.38 0zm30.76 0l0 -15.38 15.38 0 0 15.38 -15.38 0zm30.76 0l0 -15.38 15.38 0 0 15.38 -15.38 0zm30.76 0l0 -15.38 15.38 0 0 15.38 -15.38 0zm30.76 0l0 -15.38 15.38 0 0 15.38 -15.38 0zm30.76 0l0 -15.38 15.38 0 0 15.38 -15.38 0zm30.76 0l0 -15.38 15.38 0 0 15.38 -15.38 0zm30.76 0l0 -15.38 15.38 0 0 15.38 -15.38 0zm30.76 0l0 -15.38 15.38 0 0 15.38 -15.38 0zm30.76 0l0 -15.38 15.38 0 0 15.38 -15.38 0zm30.76 0l0 -15.38 15.37 0 0 15.38 -15.37 0zm30.75 0l0 -15.38 15.38 0 0 15.38 -15.38 0zm30.76 0l0 -15.38 15.38 0 0 15.38 -15.38 0z"/>
 </g>
</svg>
