<?xml version="1.0" encoding="UTF-8"?>
<!DOCTYPE svg PUBLIC "-//W3C//DTD SVG 1.1//EN" "http://www.w3.org/Graphics/SVG/1.1/DTD/svg11.dtd">
<!-- Creator: CorelDRAW 2017 -->
<svg xmlns="http://www.w3.org/2000/svg" xml:space="preserve" width="94.8951mm" height="0.2mm" version="1.1" style="shape-rendering:geometricPrecision; text-rendering:geometricPrecision; image-rendering:optimizeQuality; fill-rule:evenodd; clip-rule:evenodd"
viewBox="0 0 8588.54 18.1"
 xmlns:xlink="http://www.w3.org/1999/xlink">
 <defs>
  <style type="text/css">
   <![CDATA[
    .fil0 {fill:gray;fill-rule:nonzero}
   ]]>
  </style>
 </defs>
 <g id="Слой_x0020_1">
  <metadata id="CorelCorpID_0Corel-Layer"/>
  <path class="fil0" d="M8570.43 18.1l0 -18.1 18.1 0 0 18.1 -18.1 0zm-8570.43 0l8.62 0 0 -18.1 -8.62 0 0 18.1zm26.72 0l0 -18.1 18.1 0 0 18.1 -18.1 0zm36.2 0l0 -18.1 18.1 0 0 18.1 -18.1 0zm36.2 0l0 -18.1 18.1 0 0 18.1 -18.1 0zm36.2 0l0 -18.1 18.1 0 0 18.1 -18.1 0zm36.2 0l0 -18.1 18.1 0 0 18.1 -18.1 0zm36.2 0l0 -18.1 18.1 0 0 18.1 -18.1 0zm36.2 0l0 -18.1 18.1 0 0 18.1 -18.1 0zm36.2 0l0 -18.1 18.1 0 0 18.1 -18.1 0zm36.2 0l0 -18.1 18.1 0 0 18.1 -18.1 0zm36.2 0l0 -18.1 18.1 0 0 18.1 -18.1 0zm36.2 0l0 -18.1 18.1 0 0 18.1 -18.1 0zm36.2 0l0 -18.1 18.1 0 0 18.1 -18.1 0zm36.2 0l0 -18.1 18.1 0 0 18.1 -18.1 0zm36.2 0l0 -18.1 18.1 0 0 18.1 -18.1 0zm36.2 0l0 -18.1 18.1 0 0 18.1 -18.1 0zm36.2 0l0 -18.1 18.1 0 0 18.1 -18.1 0zm36.2 0l0 -18.1 18.1 0 0 18.1 -18.1 0zm36.2 0l0 -18.1 18.1 0 0 18.1 -18.1 0zm36.2 0l0 -18.1 18.1 0 0 18.1 -18.1 0zm36.2 0l0 -18.1 18.1 0 0 18.1 -18.1 0zm36.2 0l0 -18.1 18.1 0 0 18.1 -18.1 0zm36.2 0l0 -18.1 18.1 0 0 18.1 -18.1 0zm36.2 0l0 -18.1 18.1 0 0 18.1 -18.1 0zm36.2 0l0 -18.1 18.1 0 0 18.1 -18.1 0zm36.2 0l0 -18.1 18.1 0 0 18.1 -18.1 0zm36.2 0l0 -18.1 18.1 0 0 18.1 -18.1 0zm36.2 0l0 -18.1 18.1 0 0 18.1 -18.1 0zm36.2 0l0 -18.1 18.1 0 0 18.1 -18.1 0zm36.2 0l0 -18.1 18.1 0 0 18.1 -18.1 0zm36.2 0l0 -18.1 18.1 0 0 18.1 -18.1 0zm36.2 0l0 -18.1 18.1 0 0 18.1 -18.1 0zm36.2 0l0 -18.1 18.1 0 0 18.1 -18.1 0zm36.2 0l0 -18.1 18.1 0 0 18.1 -18.1 0zm36.2 0l0 -18.1 18.1 0 0 18.1 -18.1 0zm36.2 0l0 -18.1 18.1 0 0 18.1 -18.1 0zm36.2 0l0 -18.1 18.1 0 0 18.1 -18.1 0zm36.2 0l0 -18.1 18.1 0 0 18.1 -18.1 0zm36.2 0l0 -18.1 18.1 0 0 18.1 -18.1 0zm36.2 0l0 -18.1 18.1 0 0 18.1 -18.1 0zm36.2 0l0 -18.1 18.1 0 0 18.1 -18.1 0zm36.2 0l0 -18.1 18.1 0 0 18.1 -18.1 0zm36.2 0l0 -18.1 18.1 0 0 18.1 -18.1 0zm36.2 0l0 -18.1 18.1 0 0 18.1 -18.1 0zm36.2 0l0 -18.1 18.1 0 0 18.1 -18.1 0zm36.2 0l0 -18.1 18.1 0 0 18.1 -18.1 0zm36.2 0l0 -18.1 18.1 0 0 18.1 -18.1 0zm36.2 0l0 -18.1 18.1 0 0 18.1 -18.1 0zm36.2 0l0 -18.1 18.1 0 0 18.1 -18.1 0zm36.2 0l0 -18.1 18.1 0 0 18.1 -18.1 0zm36.2 0l0 -18.1 18.1 0 0 18.1 -18.1 0zm36.2 0l0 -18.1 18.1 0 0 18.1 -18.1 0zm36.2 0l0 -18.1 18.1 0 0 18.1 -18.1 0zm36.2 0l0 -18.1 18.1 0 0 18.1 -18.1 0zm36.2 0l0 -18.1 18.1 0 0 18.1 -18.1 0zm36.2 0l0 -18.1 18.1 0 0 18.1 -18.1 0zm36.2 0l0 -18.1 18.1 0 0 18.1 -18.1 0zm36.2 0l0 -18.1 18.1 0 0 18.1 -18.1 0zm36.2 0l0 -18.1 18.1 0 0 18.1 -18.1 0zm36.2 0l0 -18.1 18.1 0 0 18.1 -18.1 0zm36.2 0l0 -18.1 18.1 0 0 18.1 -18.1 0zm36.2 0l0 -18.1 18.1 0 0 18.1 -18.1 0zm36.2 0l0 -18.1 18.1 0 0 18.1 -18.1 0zm36.2 0l0 -18.1 18.1 0 0 18.1 -18.1 0zm36.2 0l0 -18.1 18.1 0 0 18.1 -18.1 0zm36.2 0l0 -18.1 18.1 0 0 18.1 -18.1 0zm36.2 0l0 -18.1 18.1 0 0 18.1 -18.1 0zm36.2 0l0 -18.1 18.1 0 0 18.1 -18.1 0zm36.2 0l0 -18.1 18.1 0 0 18.1 -18.1 0zm36.2 0l0 -18.1 18.1 0 0 18.1 -18.1 0zm36.2 0l0 -18.1 18.1 0 0 18.1 -18.1 0zm36.2 0l0 -18.1 18.1 0 0 18.1 -18.1 0zm36.2 0l0 -18.1 18.1 0 0 18.1 -18.1 0zm36.2 0l0 -18.1 18.1 0 0 18.1 -18.1 0zm36.2 0l0 -18.1 18.1 0 0 18.1 -18.1 0zm36.2 0l0 -18.1 18.1 0 0 18.1 -18.1 0zm36.2 0l0 -18.1 18.1 0 0 18.1 -18.1 0zm36.2 0l0 -18.1 18.1 0 0 18.1 -18.1 0zm36.2 0l0 -18.1 18.1 0 0 18.1 -18.1 0zm36.2 0l0 -18.1 18.1 0 0 18.1 -18.1 0zm36.2 0l0 -18.1 18.1 0 0 18.1 -18.1 0zm36.2 0l0 -18.1 18.1 0 0 18.1 -18.1 0zm36.2 0l0 -18.1 18.1 0 0 18.1 -18.1 0zm36.2 0l0 -18.1 18.1 0 0 18.1 -18.1 0zm36.2 0l0 -18.1 18.1 0 0 18.1 -18.1 0zm36.2 0l0 -18.1 18.1 0 0 18.1 -18.1 0zm36.2 0l0 -18.1 18.1 0 0 18.1 -18.1 0zm36.2 0l0 -18.1 18.1 0 0 18.1 -18.1 0zm36.2 0l0 -18.1 18.1 0 0 18.1 -18.1 0zm36.2 0l0 -18.1 18.1 0 0 18.1 -18.1 0zm36.2 0l0 -18.1 18.1 0 0 18.1 -18.1 0zm36.2 0l0 -18.1 18.1 0 0 18.1 -18.1 0zm36.2 0l0 -18.1 18.1 0 0 18.1 -18.1 0zm36.2 0l0 -18.1 18.1 0 0 18.1 -18.1 0zm36.2 0l0 -18.1 18.1 0 0 18.1 -18.1 0zm36.2 0l0 -18.1 18.1 0 0 18.1 -18.1 0zm36.2 0l0 -18.1 18.1 0 0 18.1 -18.1 0zm36.2 0l0 -18.1 18.1 0 0 18.1 -18.1 0zm36.2 0l0 -18.1 18.1 0 0 18.1 -18.1 0zm36.2 0l0 -18.1 18.1 0 0 18.1 -18.1 0zm36.2 0l0 -18.1 18.1 0 0 18.1 -18.1 0zm36.2 0l0 -18.1 18.1 0 0 18.1 -18.1 0zm36.2 0l0 -18.1 18.1 0 0 18.1 -18.1 0zm36.2 0l0 -18.1 18.1 0 0 18.1 -18.1 0zm36.2 0l0 -18.1 18.1 0 0 18.1 -18.1 0zm36.2 0l0 -18.1 18.1 0 0 18.1 -18.1 0zm36.2 0l0 -18.1 18.1 0 0 18.1 -18.1 0zm36.2 0l0 -18.1 18.1 0 0 18.1 -18.1 0zm36.2 0l0 -18.1 18.1 0 0 18.1 -18.1 0zm36.2 0l0 -18.1 18.1 0 0 18.1 -18.1 0zm36.2 0l0 -18.1 18.1 0 0 18.1 -18.1 0zm36.2 0l0 -18.1 18.1 0 0 18.1 -18.1 0zm36.2 0l0 -18.1 18.1 0 0 18.1 -18.1 0zm36.2 0l0 -18.1 18.1 0 0 18.1 -18.1 0zm36.2 0l0 -18.1 18.1 0 0 18.1 -18.1 0zm36.2 0l0 -18.1 18.1 0 0 18.1 -18.1 0zm36.2 0l0 -18.1 18.1 0 0 18.1 -18.1 0zm36.2 0l0 -18.1 18.1 0 0 18.1 -18.1 0zm36.2 0l0 -18.1 18.1 0 0 18.1 -18.1 0zm36.2 0l0 -18.1 18.1 0 0 18.1 -18.1 0zm36.2 0l0 -18.1 18.1 0 0 18.1 -18.1 0zm36.2 0l0 -18.1 18.1 0 0 18.1 -18.1 0zm36.2 0l0 -18.1 18.1 0 0 18.1 -18.1 0zm36.2 0l0 -18.1 18.1 0 0 18.1 -18.1 0zm36.2 0l0 -18.1 18.1 0 0 18.1 -18.1 0zm36.2 0l0 -18.1 18.1 0 0 18.1 -18.1 0zm36.2 0l0 -18.1 18.1 0 0 18.1 -18.1 0zm36.2 0l0 -18.1 18.1 0 0 18.1 -18.1 0zm36.2 0l0 -18.1 18.1 0 0 18.1 -18.1 0zm36.2 0l0 -18.1 18.1 0 0 18.1 -18.1 0zm36.2 0l0 -18.1 18.1 0 0 18.1 -18.1 0zm36.2 0l0 -18.1 18.1 0 0 18.1 -18.1 0zm36.2 0l0 -18.1 18.1 0 0 18.1 -18.1 0zm36.2 0l0 -18.1 18.1 0 0 18.1 -18.1 0zm36.2 0l0 -18.1 18.1 0 0 18.1 -18.1 0zm36.2 0l0 -18.1 18.1 0 0 18.1 -18.1 0zm36.2 0l0 -18.1 18.1 0 0 18.1 -18.1 0zm36.2 0l0 -18.1 18.1 0 0 18.1 -18.1 0zm36.2 0l0 -18.1 18.1 0 0 18.1 -18.1 0zm36.2 0l0 -18.1 18.1 0 0 18.1 -18.1 0zm36.2 0l0 -18.1 18.1 0 0 18.1 -18.1 0zm36.2 0l0 -18.1 18.1 0 0 18.1 -18.1 0zm36.2 0l0 -18.1 18.1 0 0 18.1 -18.1 0zm36.2 0l0 -18.1 18.1 0 0 18.1 -18.1 0zm36.2 0l0 -18.1 18.1 0 0 18.1 -18.1 0zm36.2 0l0 -18.1 18.1 0 0 18.1 -18.1 0zm36.2 0l0 -18.1 18.1 0 0 18.1 -18.1 0zm36.2 0l0 -18.1 18.1 0 0 18.1 -18.1 0zm36.2 0l0 -18.1 18.1 0 0 18.1 -18.1 0zm36.2 0l0 -18.1 18.1 0 0 18.1 -18.1 0zm36.2 0l0 -18.1 18.1 0 0 18.1 -18.1 0zm36.2 0l0 -18.1 18.1 0 0 18.1 -18.1 0zm36.2 0l0 -18.1 18.1 0 0 18.1 -18.1 0zm36.2 0l0 -18.1 18.1 0 0 18.1 -18.1 0zm36.2 0l0 -18.1 18.1 0 0 18.1 -18.1 0zm36.2 0l0 -18.1 18.1 0 0 18.1 -18.1 0zm36.2 0l0 -18.1 18.1 0 0 18.1 -18.1 0zm36.2 0l0 -18.1 18.1 0 0 18.1 -18.1 0zm36.2 0l0 -18.1 18.1 0 0 18.1 -18.1 0zm36.2 0l0 -18.1 18.1 0 0 18.1 -18.1 0zm36.2 0l0 -18.1 18.1 0 0 18.1 -18.1 0zm36.2 0l0 -18.1 18.1 0 0 18.1 -18.1 0zm36.2 0l0 -18.1 18.1 0 0 18.1 -18.1 0zm36.2 0l0 -18.1 18.1 0 0 18.1 -18.1 0zm36.2 0l0 -18.1 18.1 0 0 18.1 -18.1 0zm36.2 0l0 -18.1 18.1 0 0 18.1 -18.1 0zm36.2 0l0 -18.1 18.1 0 0 18.1 -18.1 0zm36.2 0l0 -18.1 18.1 0 0 18.1 -18.1 0zm36.2 0l0 -18.1 18.1 0 0 18.1 -18.1 0zm36.2 0l0 -18.1 18.1 0 0 18.1 -18.1 0zm36.2 0l0 -18.1 18.1 0 0 18.1 -18.1 0zm36.2 0l0 -18.1 18.1 0 0 18.1 -18.1 0zm36.2 0l0 -18.1 18.1 0 0 18.1 -18.1 0zm36.2 0l0 -18.1 18.1 0 0 18.1 -18.1 0zm36.2 0l0 -18.1 18.1 0 0 18.1 -18.1 0zm36.2 0l0 -18.1 18.1 0 0 18.1 -18.1 0zm36.2 0l0 -18.1 18.1 0 0 18.1 -18.1 0zm36.2 0l0 -18.1 18.1 0 0 18.1 -18.1 0zm36.2 0l0 -18.1 18.1 0 0 18.1 -18.1 0zm36.2 0l0 -18.1 18.1 0 0 18.1 -18.1 0zm36.2 0l0 -18.1 18.1 0 0 18.1 -18.1 0zm36.2 0l0 -18.1 18.1 0 0 18.1 -18.1 0zm36.2 0l0 -18.1 18.1 0 0 18.1 -18.1 0zm36.2 0l0 -18.1 18.1 0 0 18.1 -18.1 0zm36.2 0l0 -18.1 18.1 0 0 18.1 -18.1 0zm36.2 0l0 -18.1 18.1 0 0 18.1 -18.1 0zm36.2 0l0 -18.1 18.1 0 0 18.1 -18.1 0zm36.2 0l0 -18.1 18.1 0 0 18.1 -18.1 0zm36.2 0l0 -18.1 18.1 0 0 18.1 -18.1 0zm36.2 0l0 -18.1 18.1 0 0 18.1 -18.1 0zm36.2 0l0 -18.1 18.1 0 0 18.1 -18.1 0zm36.2 0l0 -18.1 18.1 0 0 18.1 -18.1 0zm36.2 0l0 -18.1 18.1 0 0 18.1 -18.1 0zm36.2 0l0 -18.1 18.1 0 0 18.1 -18.1 0zm36.2 0l0 -18.1 18.1 0 0 18.1 -18.1 0zm36.2 0l0 -18.1 18.1 0 0 18.1 -18.1 0zm36.2 0l0 -18.1 18.1 0 0 18.1 -18.1 0zm36.2 0l0 -18.1 18.1 0 0 18.1 -18.1 0zm36.2 0l0 -18.1 18.1 0 0 18.1 -18.1 0zm36.2 0l0 -18.1 18.1 0 0 18.1 -18.1 0zm36.2 0l0 -18.1 18.1 0 0 18.1 -18.1 0zm36.2 0l0 -18.1 18.1 0 0 18.1 -18.1 0zm36.2 0l0 -18.1 18.1 0 0 18.1 -18.1 0zm36.2 0l0 -18.1 18.1 0 0 18.1 -18.1 0zm36.2 0l0 -18.1 18.1 0 0 18.1 -18.1 0zm36.2 0l0 -18.1 18.1 0 0 18.1 -18.1 0zm36.2 0l0 -18.1 18.1 0 0 18.1 -18.1 0zm36.2 0l0 -18.1 18.1 0 0 18.1 -18.1 0zm36.2 0l0 -18.1 18.1 0 0 18.1 -18.1 0zm36.2 0l0 -18.1 18.1 0 0 18.1 -18.1 0zm36.2 0l0 -18.1 18.1 0 0 18.1 -18.1 0zm36.2 0l0 -18.1 18.1 0 0 18.1 -18.1 0zm36.2 0l0 -18.1 18.1 0 0 18.1 -18.1 0zm36.2 0l0 -18.1 18.1 0 0 18.1 -18.1 0zm36.2 0l0 -18.1 18.1 0 0 18.1 -18.1 0zm36.2 0l0 -18.1 18.1 0 0 18.1 -18.1 0zm36.2 0l0 -18.1 18.1 0 0 18.1 -18.1 0zm36.2 0l0 -18.1 18.1 0 0 18.1 -18.1 0zm36.2 0l0 -18.1 18.1 0 0 18.1 -18.1 0zm36.2 0l0 -18.1 18.1 0 0 18.1 -18.1 0zm36.2 0l0 -18.1 18.1 0 0 18.1 -18.1 0zm36.2 0l0 -18.1 18.1 0 0 18.1 -18.1 0zm36.2 0l0 -18.1 18.1 0 0 18.1 -18.1 0zm36.2 0l0 -18.1 18.1 0 0 18.1 -18.1 0zm36.2 0l0 -18.1 18.1 0 0 18.1 -18.1 0zm36.2 0l0 -18.1 18.1 0 0 18.1 -18.1 0zm36.2 0l0 -18.1 18.1 0 0 18.1 -18.1 0zm36.2 0l0 -18.1 18.1 0 0 18.1 -18.1 0zm36.2 0l0 -18.1 18.1 0 0 18.1 -18.1 0zm36.2 0l0 -18.1 18.1 0 0 18.1 -18.1 0zm36.2 0l0 -18.1 18.1 0 0 18.1 -18.1 0zm36.2 0l0 -18.1 18.1 0 0 18.1 -18.1 0zm36.2 0l0 -18.1 18.1 0 0 18.1 -18.1 0zm36.2 0l0 -18.1 18.1 0 0 18.1 -18.1 0zm36.2 0l0 -18.1 18.1 0 0 18.1 -18.1 0zm36.19 0l0 -18.1 18.1 0 0 18.1 -18.1 0zm36.2 0l0 -18.1 18.1 0 0 18.1 -18.1 0z"/>
 </g>
</svg>
