<?xml version="1.0" encoding="UTF-8"?>
<!DOCTYPE svg PUBLIC "-//W3C//DTD SVG 1.1//EN" "http://www.w3.org/Graphics/SVG/1.1/DTD/svg11.dtd">
<!-- Creator: CorelDRAW 2017 -->
<svg xmlns="http://www.w3.org/2000/svg" xml:space="preserve" width="117.263mm" height="117.263mm" version="1.1" style="shape-rendering:geometricPrecision; text-rendering:geometricPrecision; image-rendering:optimizeQuality; fill-rule:evenodd; clip-rule:evenodd"
viewBox="0 0 134.71 134.71"
 xmlns:xlink="http://www.w3.org/1999/xlink">
 <defs>
  <style type="text/css">
   <![CDATA[
    .fil0 {fill:white;fill-rule:nonzero}
   ]]>
  </style>
 </defs>
 <g id="Слой_x0020_1">
  <metadata id="CorelCorpID_0Corel-Layer"/>
  <path class="fil0" d="M67.36 0c18.6,0 35.44,7.54 47.63,19.73 12.19,12.19 19.73,29.03 19.73,47.63 0,18.6 -7.54,35.44 -19.73,47.63 -12.19,12.19 -29.03,19.73 -47.63,19.73 -18.6,0 -35.44,-7.54 -47.63,-19.73 -12.19,-12.19 -19.73,-29.03 -19.73,-47.63 0,-18.6 7.54,-35.44 19.73,-47.63 12.19,-12.19 29.03,-19.73 47.63,-19.73zm-4.34 32.85c0,-2.4 1.94,-4.34 4.34,-4.34 2.4,0 4.34,1.94 4.34,4.34l0 32.71 15.34 15.34c1.69,1.69 1.69,4.44 0,6.13 -1.69,1.69 -4.44,1.69 -6.13,0l-16.58 -16.58c-0.8,-0.79 -1.3,-1.88 -1.3,-3.09l0 -34.51zm62.86 38.84l-3.39 0c-2.4,0 -4.34,-1.94 -4.34,-4.34 0,-2.4 1.94,-4.34 4.34,-4.34l3.39 0c-0.55,-7.55 -2.53,-14.7 -5.67,-21.19l-2.96 1.71c-2.07,1.19 -4.71,0.48 -5.9,-1.59 -1.19,-2.07 -0.48,-4.71 1.59,-5.9l2.93 -1.69c-2.08,-3.05 -4.43,-5.89 -7.03,-8.49 -2.6,-2.6 -5.44,-4.96 -8.49,-7.03l-1.69 2.94c-1.19,2.07 -3.83,2.78 -5.9,1.59 -2.07,-1.19 -2.78,-3.83 -1.59,-5.9l1.71 -2.96c-6.49,-3.14 -13.64,-5.12 -21.19,-5.67l0 3.39c0,2.4 -1.94,4.34 -4.34,4.34 -2.4,0 -4.34,-1.94 -4.34,-4.34l0 -3.39c-7.55,0.55 -14.7,2.53 -21.19,5.67l1.71 2.96c1.19,2.07 0.48,4.71 -1.59,5.9 -2.07,1.19 -4.71,0.48 -5.9,-1.59l-1.69 -2.93c-3.05,2.08 -5.89,4.43 -8.49,7.03 -2.6,2.6 -4.96,5.44 -7.03,8.49l2.93 1.69c2.07,1.19 2.78,3.83 1.59,5.9 -1.19,2.07 -3.83,2.78 -5.9,1.59l-2.96 -1.71c-3.14,6.49 -5.12,13.64 -5.67,21.19l3.39 0c2.4,0 4.34,1.94 4.34,4.34 0,2.4 -1.94,4.34 -4.34,4.34l-3.39 0c0.55,7.55 2.53,14.7 5.67,21.19l2.96 -1.71c2.07,-1.19 4.71,-0.48 5.9,1.59 1.19,2.07 0.48,4.71 -1.59,5.9l-2.94 1.69c2.08,3.05 4.43,5.89 7.03,8.49 2.6,2.6 5.44,4.96 8.49,7.03l1.69 -2.93c1.19,-2.07 3.83,-2.78 5.9,-1.59 2.07,1.19 2.78,3.83 1.59,5.9l-1.71 2.96c6.49,3.14 13.64,5.12 21.19,5.67l0 -3.39c0,-2.4 1.94,-4.34 4.34,-4.34 2.4,0 4.34,1.94 4.34,4.34l0 3.39c7.55,-0.55 14.7,-2.53 21.19,-5.67l-1.71 -2.96c-1.19,-2.07 -0.48,-4.71 1.59,-5.9 2.07,-1.19 4.71,-0.48 5.9,1.59l1.69 2.94c3.05,-2.08 5.89,-4.43 8.49,-7.03 2.6,-2.6 4.96,-5.44 7.03,-8.49l-2.94 -1.69c-2.07,-1.19 -2.78,-3.83 -1.59,-5.9 1.19,-2.07 3.83,-2.78 5.9,-1.59l2.96 1.71c3.14,-6.49 5.12,-13.64 5.67,-21.19z"/>
 </g>
</svg>
