<?xml version="1.0" encoding="UTF-8"?>
<!DOCTYPE svg PUBLIC "-//W3C//DTD SVG 1.1//EN" "http://www.w3.org/Graphics/SVG/1.1/DTD/svg11.dtd">
<!-- Creator: CorelDRAW 2017 -->
<svg xmlns="http://www.w3.org/2000/svg" xml:space="preserve" width="140.62mm" height="121.174mm" version="1.1" style="shape-rendering:geometricPrecision; text-rendering:geometricPrecision; image-rendering:optimizeQuality; fill-rule:evenodd; clip-rule:evenodd"
viewBox="0 0 133.46 115.01"
 xmlns:xlink="http://www.w3.org/1999/xlink">
 <defs>
  <style type="text/css">
   <![CDATA[
    .fil0 {fill:white;fill-rule:nonzero}
   ]]>
  </style>
 </defs>
 <g id="Слой_x0020_1">
  <metadata id="CorelCorpID_0Corel-Layer"/>
  <path class="fil0" d="M24.74 108.76c1.42,1.42 1.42,3.75 0,5.17 -1.42,1.42 -3.75,1.42 -5.17,0 -6.13,-6.13 -11.1,-13.5 -14.5,-21.68 -3.25,-7.88 -5.06,-16.51 -5.06,-25.52 0,-18.41 7.48,-35.1 19.54,-47.18 12.09,-12.08 28.78,-19.55 47.19,-19.55 18.43,0 35.13,7.48 47.19,19.54 12.06,12.09 19.54,28.78 19.54,47.19 0,9 -1.8,17.63 -5.05,25.48 -3.38,8.16 -8.34,15.53 -14.45,21.65 -1.42,1.42 -3.73,1.43 -5.16,0.01 -1.42,-1.42 -1.43,-3.73 -0.01,-5.16 2.79,-2.79 5.31,-5.88 7.5,-9.17l-10.75 -6.2c-1.74,-1.01 -2.34,-3.24 -1.33,-4.98 1.01,-1.74 3.24,-2.34 4.98,-1.33l10.75 6.21c0.62,-1.23 1.2,-2.51 1.73,-3.79 2.44,-5.91 3.97,-12.34 4.37,-19.08l-12.39 -0.01c-2.01,0 -3.64,-1.63 -3.64,-3.64 0,-2.01 1.63,-3.64 3.64,-3.64l12.39 0.01c-0.5,-8.18 -2.65,-15.91 -6.12,-22.87l-10.75 6.2c-1.74,0.99 -3.98,0.39 -4.97,-1.34 -0.99,-1.74 -0.39,-3.98 1.34,-4.97l10.73 -6.18c-2.2,-3.32 -4.72,-6.41 -7.53,-9.21 -2.81,-2.8 -5.88,-5.33 -9.2,-7.53l-6.2 10.73c-1.01,1.74 -3.24,2.34 -4.98,1.33 -1.74,-1.01 -2.34,-3.24 -1.33,-4.98l6.2 -10.73c-6.96,-3.47 -14.67,-5.61 -22.85,-6.11l0 12.38c0,2.02 -1.64,3.65 -3.65,3.65 -2.02,0 -3.65,-1.64 -3.65,-3.65l0 -12.39c-8.17,0.5 -15.9,2.65 -22.86,6.12l6.2 10.74c0.99,1.74 0.39,3.98 -1.34,4.97 -1.74,0.99 -3.98,0.39 -4.97,-1.34l-6.19 -10.73c-3.32,2.2 -6.4,4.73 -9.21,7.53 -2.81,2.81 -5.33,5.9 -7.53,9.22l10.72 6.19c1.74,0.99 2.34,3.23 1.34,4.97 -0.99,1.74 -3.23,2.34 -4.97,1.34l-10.75 -6.2c-3.47,6.96 -5.61,14.69 -6.11,22.86l12.39 0c2.02,0 3.65,1.64 3.65,3.65 0,2.02 -1.64,3.65 -3.65,3.65l-12.39 0c0.41,6.73 1.94,13.16 4.38,19.08 0.53,1.28 1.11,2.54 1.73,3.78l10.75 -6.2c1.74,-0.99 3.98,-0.39 4.97,1.34 0.99,1.74 0.39,3.98 -1.34,4.97l-10.72 6.19c2.21,3.32 4.74,6.41 7.56,9.22zm20.5 -10.82l43 0c1.7,0 3.09,1.39 3.09,3.09l0 7.23c0,1.7 -1.39,3.09 -3.09,3.09l-43 0c-1.7,0 -3.09,-1.39 -3.09,-3.09l0 -7.23c0,-1.7 1.39,-3.09 3.09,-3.09zm23.28 -41.58l9.59 -16.61c0.99,-1.74 3.23,-2.34 4.97,-1.34 1.74,0.99 2.34,3.23 1.34,4.97l-9.6 16.63c1.51,1.83 2.43,4.17 2.43,6.72 0,5.81 -4.71,10.52 -10.52,10.52 -5.81,0 -10.52,-4.71 -10.52,-10.52 0,-5.81 4.71,-10.52 10.52,-10.52 0.61,0 1.2,0.04 1.78,0.15z"/>
 </g>
</svg>
