<?xml version="1.0" encoding="UTF-8"?>
<!DOCTYPE svg PUBLIC "-//W3C//DTD SVG 1.1//EN" "http://www.w3.org/Graphics/SVG/1.1/DTD/svg11.dtd">
<!-- Creator: CorelDRAW 2017 -->
<svg xmlns="http://www.w3.org/2000/svg" xml:space="preserve" width="371.815mm" height="152.353mm" version="1.1" style="shape-rendering:geometricPrecision; text-rendering:geometricPrecision; image-rendering:optimizeQuality; fill-rule:evenodd; clip-rule:evenodd"
viewBox="0 0 806.52 330.48"
 xmlns:xlink="http://www.w3.org/1999/xlink">
 <defs>
  <style type="text/css">
   <![CDATA[
    .fil0 {fill:#4D4D4D}
    .fil1 {fill:#4D4D4D;fill-rule:nonzero}
   ]]>
  </style>
 </defs>
 <g id="Слой_x0020_1">
  <metadata id="CorelCorpID_0Corel-Layer"/>
  <g id="_1011681648">
   <path class="fil0" d="M704.57 168.44c44.74,0 81.02,36.28 81.02,81.02 0,44.74 -36.28,81.02 -81.02,81.02 -44.74,0 -81.02,-36.28 -81.02,-81.02 0,-44.74 36.28,-81.02 81.02,-81.02zm0 40.23c22.52,0 40.79,18.27 40.79,40.79 0,22.52 -18.27,40.79 -40.79,40.79 -22.52,0 -40.79,-18.27 -40.79,-40.79 0,-22.52 18.27,-40.79 40.79,-40.79z"/>
   <path class="fil0" d="M527.96 168.44c44.74,0 81.02,36.28 81.02,81.02 0,44.74 -36.28,81.02 -81.02,81.02 -44.74,0 -81.02,-36.28 -81.02,-81.02 0,-44.74 36.28,-81.02 81.02,-81.02zm0 40.23c22.52,0 40.79,18.27 40.79,40.79 0,22.52 -18.27,40.79 -40.79,40.79 -22.52,0 -40.79,-18.27 -40.79,-40.79 0,-22.52 18.27,-40.79 40.79,-40.79z"/>
   <path class="fil0" d="M240.36 168.44c44.74,0 81.02,36.28 81.02,81.02 0,44.74 -36.28,81.02 -81.02,81.02 -44.74,0 -81.02,-36.28 -81.02,-81.02 0,-44.74 36.28,-81.02 81.02,-81.02zm0 40.23c22.52,0 40.79,18.27 40.79,40.79 0,22.52 -18.27,40.79 -40.79,40.79 -22.52,0 -40.79,-18.27 -40.79,-40.79 0,-22.52 18.27,-40.79 40.79,-40.79z"/>
   <path class="fil1" d="M-0 130.91c25,0 47.65,10.13 64.02,26.52 16.35,16.37 26.5,38.99 26.52,63.97l0 0.06 0 29.55 0 25.92 0 22.26 -22.56 0 0 -22.26 0 -25.92 0 -29.55 0 -0.06c-0.02,-18.72 -7.63,-35.79 -19.91,-48.05 -12.29,-12.26 -29.31,-19.89 -48.08,-19.89l0 -22.56z"/>
   <path class="fil0" d="M446.21 0l102.8 0c17.52,0 31.82,14.32 31.82,31.82l0 63.08 204.1 0c11.88,0 21.58,9.7 21.58,21.58l0 80.57c0,4.91 -1.65,9.46 -4.44,13.08 -15.56,-38.57 -53.35,-65.79 -97.5,-65.79 -37.03,0 -69.59,19.15 -88.31,48.08 -18.72,-28.93 -51.28,-48.08 -88.29,-48.08 -47.31,0 -87.35,31.26 -100.53,74.29l-86.56 0c-9.34,-30.47 -32.14,-55.06 -61.47,-66.79l119.04 0 15.92 -120.02c2.31,-17.37 14.3,-31.82 31.82,-31.82zm-306.36 218.63l-18.16 0c-9.89,0 -17.99,-8.08 -17.99,-17.99l0 -30.81c0,-9.91 8.1,-17.99 17.99,-17.99l79.64 0c-29.32,11.73 -52.14,36.32 -61.49,66.79z"/>
  </g>
 </g>
</svg>
