<?xml version="1.0" encoding="UTF-8"?>
<!DOCTYPE svg PUBLIC "-//W3C//DTD SVG 1.1//EN" "http://www.w3.org/Graphics/SVG/1.1/DTD/svg11.dtd">
<!-- Creator: CorelDRAW 2017 -->
<svg xmlns="http://www.w3.org/2000/svg" xml:space="preserve" width="288.112mm" height="157.866mm" version="1.1" style="shape-rendering:geometricPrecision; text-rendering:geometricPrecision; image-rendering:optimizeQuality; fill-rule:evenodd; clip-rule:evenodd"
viewBox="0 0 914.37 501.01"
 xmlns:xlink="http://www.w3.org/1999/xlink">
 <defs>
  <style type="text/css">
   <![CDATA[
    .fil0 {fill:#4D4D4D}
    .fil1 {fill:#4D4D4D;fill-rule:nonzero}
   ]]>
  </style>
 </defs>
 <g id="Слой_x0020_1">
  <metadata id="CorelCorpID_0Corel-Layer"/>
  <g id="_1011717968">
   <path class="fil0" d="M738.34 287.02c59.08,0 106.99,47.91 106.99,106.99 0,59.08 -47.91,106.99 -106.99,106.99 -59.08,0 -106.99,-47.91 -106.99,-106.99 0,-59.08 47.91,-106.99 106.99,-106.99zm0 53.12c29.74,0 53.87,24.13 53.87,53.87 0,29.74 -24.13,53.87 -53.87,53.87 -29.74,0 -53.87,-24.13 -53.87,-53.87 0,-29.74 24.13,-53.87 53.87,-53.87z"/>
   <path class="fil0" d="M496.62 0l375.72 0c23.14,0 42.03,18.89 42.03,42.03l0 277.19c0,22.86 -18.39,41.53 -41.16,42 -14.75,-60.8 -69.56,-105.98 -134.87,-105.98 -65.31,0 -120.13,45.18 -134.87,106l-106.85 0c-23.14,0 -42.03,-18.89 -42.03,-42.03l0 -277.19c0,-23.14 18.89,-42.03 42.03,-42.03z"/>
   <path class="fil0" d="M275.85 0l94.63 0c23.14,0 42.03,18.89 42.03,42.03l0 239.19c-22.76,-16.33 -50.64,-25.97 -80.78,-25.97 -76.61,0 -138.77,62.16 -138.77,138.77 0,17.38 3.2,34.01 9.04,49.35l-10.2 0c-23.14,0 -42.03,-18.89 -42.03,-42.03l0 -275.26c0,-69.36 56.72,-126.08 126.08,-126.08z"/>
   <path class="fil0" d="M331.73 287.02c59.08,0 106.99,47.91 106.99,106.99 0,59.08 -47.91,106.99 -106.99,106.99 -59.08,0 -106.99,-47.91 -106.99,-106.99 0,-59.08 47.91,-106.99 106.99,-106.99zm0 53.12c29.74,0 53.87,24.13 53.87,53.87 0,29.74 -24.13,53.87 -53.87,53.87 -29.74,0 -53.87,-24.13 -53.87,-53.87 0,-29.74 24.13,-53.87 53.87,-53.87z"/>
   <path class="fil1" d="M0 230.87c33.02,0 62.93,13.38 84.55,35.03 21.6,21.62 35,51.49 35.03,84.48l0 0.07 0 39.02 0 34.23 0 29.39 -29.79 0 0 -29.39 0 -34.23 0 -39.02 0 -0.07c-0.02,-24.73 -10.08,-47.27 -26.29,-63.45 -16.24,-16.19 -38.7,-26.26 -63.5,-26.26l0 -29.79z"/>
  </g>
 </g>
</svg>
