<?xml version="1.0" encoding="UTF-8"?>
<!DOCTYPE svg PUBLIC "-//W3C//DTD SVG 1.1//EN" "http://www.w3.org/Graphics/SVG/1.1/DTD/svg11.dtd">
<!-- Creator: CorelDRAW 2017 -->
<svg xmlns="http://www.w3.org/2000/svg" xml:space="preserve" width="108.53mm" height="71.1151mm" version="1.1" style="shape-rendering:geometricPrecision; text-rendering:geometricPrecision; image-rendering:optimizeQuality; fill-rule:evenodd; clip-rule:evenodd"
viewBox="0 0 1229.88 805.89"
 xmlns:xlink="http://www.w3.org/1999/xlink">
 <defs>
  <style type="text/css">
   <![CDATA[
    .fil0 {fill:white}
   ]]>
  </style>
 </defs>
 <g id="Слой_x0020_1">
  <metadata id="CorelCorpID_0Corel-Layer"/>
  <g id="_1234710256">
   <path class="fil0" d="M946.73 461.68c95.04,0 172.1,77.07 172.1,172.1 0,95.04 -77.07,172.1 -172.1,172.1 -95.04,0 -172.1,-77.07 -172.1,-172.1 0,-95.04 77.07,-172.1 172.1,-172.1zm0 85.45c47.84,0 86.65,38.81 86.65,86.65 0,47.84 -38.81,86.65 -86.65,86.65 -47.84,0 -86.65,-38.81 -86.65,-86.65 0,-47.84 38.81,-86.65 86.65,-86.65z"/>
   <path class="fil0" d="M557.92 0l604.36 0c37.22,0 67.6,30.39 67.6,67.6l0 445.87c0,36.78 -29.59,66.81 -66.21,67.56 -23.72,-97.79 -111.89,-170.47 -216.95,-170.47 -105.06,0 -193.23,72.67 -216.95,170.51l-171.86 0c-37.22,0 -67.6,-30.39 -67.6,-67.6l0 -445.87c0,-37.22 30.39,-67.6 67.6,-67.6z"/>
   <path class="fil0" d="M202.81 0l152.22 0c37.22,0 67.6,30.39 67.6,67.6l0 384.74c-36.62,-26.27 -81.46,-41.77 -129.94,-41.77 -123.23,0 -223.21,99.99 -223.21,223.21 0,27.95 5.15,54.71 14.53,79.38l-16.41 0c-37.22,0 -67.6,-30.39 -67.6,-67.6l0 -442.76c0,-111.57 91.24,-202.81 202.81,-202.81z"/>
   <path class="fil0" d="M292.69 461.68c95.04,0 172.1,77.07 172.1,172.1 0,95.04 -77.07,172.1 -172.1,172.1 -95.04,0 -172.1,-77.07 -172.1,-172.1 0,-95.04 77.07,-172.1 172.1,-172.1zm0 85.45c47.84,0 86.65,38.81 86.65,86.65 0,47.84 -38.81,86.65 -86.65,86.65 -47.84,0 -86.65,-38.81 -86.65,-86.65 0,-47.84 38.81,-86.65 86.65,-86.65z"/>
  </g>
 </g>
</svg>
