<?xml version="1.0" encoding="UTF-8"?>
<!DOCTYPE svg PUBLIC "-//W3C//DTD SVG 1.1//EN" "http://www.w3.org/Graphics/SVG/1.1/DTD/svg11.dtd">
<!-- Creator: CorelDRAW 2017 -->
<svg xmlns="http://www.w3.org/2000/svg" xml:space="preserve" width="163.006mm" height="89.3163mm" version="1.1" style="shape-rendering:geometricPrecision; text-rendering:geometricPrecision; image-rendering:optimizeQuality; fill-rule:evenodd; clip-rule:evenodd"
viewBox="0 0 3125.91 1712.79"
 xmlns:xlink="http://www.w3.org/1999/xlink">
 <defs>
  <style type="text/css">
   <![CDATA[
    .fil0 {fill:white}
    .fil1 {fill:white;fill-rule:nonzero}
   ]]>
  </style>
 </defs>
 <g id="Слой_x0020_1">
  <metadata id="CorelCorpID_0Corel-Layer"/>
  <g id="_1274186912">
   <path class="fil0" d="M2524.12 981.23c201.98,0 365.78,163.79 365.78,365.78 0,201.98 -163.79,365.78 -365.78,365.78 -201.98,0 -365.78,-163.79 -365.78,-365.78 0,-201.98 163.79,-365.78 365.78,-365.78zm0 181.62c101.67,0 184.16,82.49 184.16,184.16 0,101.67 -82.49,184.16 -184.16,184.16 -101.67,0 -184.16,-82.49 -184.16,-184.16 0,-101.67 82.49,-184.16 184.16,-184.16z"/>
   <path class="fil0" d="M1697.77 0l1284.46 0c79.1,0 143.68,64.58 143.68,143.68l0 947.63c0,78.16 -62.89,141.98 -140.71,143.6 -50.41,-207.84 -237.8,-362.3 -461.08,-362.3 -223.29,0 -410.67,154.46 -461.08,362.38l-365.27 0c-79.1,0 -143.68,-64.59 -143.68,-143.68l0 -947.63c0,-79.1 64.59,-143.68 143.68,-143.68z"/>
   <path class="fil0" d="M943.04 0l323.51 0c79.1,0 143.68,64.58 143.68,143.68l0 817.7c-77.82,-55.84 -173.13,-88.77 -276.16,-88.77 -261.9,0 -474.41,212.51 -474.41,474.41 0,59.41 10.95,116.27 30.89,168.72l-34.88 0c-79.1,0 -143.68,-64.59 -143.68,-143.68l0 -941.01c0,-237.12 193.92,-431.04 431.04,-431.04z"/>
   <path class="fil0" d="M1134.08 981.23c201.98,0 365.78,163.79 365.78,365.78 0,201.98 -163.79,365.78 -365.78,365.78 -201.98,0 -365.78,-163.79 -365.78,-365.78 0,-201.98 163.79,-365.78 365.78,-365.78zm0 181.62c101.67,0 184.16,82.49 184.16,184.16 0,101.67 -82.49,184.16 -184.16,184.16 -101.67,0 -184.16,-82.49 -184.16,-184.16 0,-101.67 82.49,-184.16 184.16,-184.16z"/>
   <path class="fil1" d="M-0 789.26c112.87,0 215.14,45.74 289.06,119.75 73.83,73.92 119.66,176.01 119.75,288.8l0 0.26 0 133.41 0 117.03 0 100.48 -101.84 0 0 -100.48 0 -117.03 0 -133.41 0 -0.26c-0.08,-84.53 -34.46,-161.59 -89.87,-216.92 -55.5,-55.33 -132.31,-89.79 -217.09,-89.79l0 -101.84z"/>
  </g>
 </g>
</svg>
