<?xml version="1.0" encoding="UTF-8"?>
<!DOCTYPE svg PUBLIC "-//W3C//DTD SVG 1.1//EN" "http://www.w3.org/Graphics/SVG/1.1/DTD/svg11.dtd">
<!-- Creator: CorelDRAW 2017 -->
<svg xmlns="http://www.w3.org/2000/svg" xml:space="preserve" width="108.53mm" height="71.1151mm" version="1.1" style="shape-rendering:geometricPrecision; text-rendering:geometricPrecision; image-rendering:optimizeQuality; fill-rule:evenodd; clip-rule:evenodd"
viewBox="0 0 1224.63 802.45"
 xmlns:xlink="http://www.w3.org/1999/xlink">
 <defs>
  <style type="text/css">
   <![CDATA[
    .fil0 {fill:#FF9736}
   ]]>
  </style>
 </defs>
 <g id="Слой_x0020_1">
  <metadata id="CorelCorpID_0Corel-Layer"/>
  <g id="_1235803248">
   <path class="fil0" d="M942.69 459.71c94.63,0 171.37,76.74 171.37,171.37 0,94.63 -76.74,171.37 -171.37,171.37 -94.63,0 -171.37,-76.74 -171.37,-171.37 0,-94.63 76.74,-171.37 171.37,-171.37zm0 85.09c47.63,0 86.28,38.65 86.28,86.28 0,47.63 -38.65,86.28 -86.28,86.28 -47.63,0 -86.28,-38.65 -86.28,-86.28 0,-47.63 38.65,-86.28 86.28,-86.28z"/>
   <path class="fil0" d="M555.54 0l601.78 0c37.06,0 67.32,30.26 67.32,67.32l0 443.97c0,36.62 -29.46,66.52 -65.92,67.28 -23.62,-97.37 -111.41,-169.74 -216.02,-169.74 -104.61,0 -192.4,72.36 -216.02,169.78l-171.13 0c-37.06,0 -67.32,-30.26 -67.32,-67.32l0 -443.97c0,-37.06 30.26,-67.32 67.32,-67.32z"/>
   <path class="fil0" d="M201.95 0l151.57 0c37.06,0 67.32,30.26 67.32,67.32l0 383.1c-36.46,-26.16 -81.11,-41.59 -129.38,-41.59 -122.7,0 -222.26,99.56 -222.26,222.26 0,27.83 5.13,54.47 14.47,79.04l-16.34 0c-37.06,0 -67.32,-30.26 -67.32,-67.32l0 -440.87c0,-111.09 90.85,-201.95 201.95,-201.95z"/>
   <path class="fil0" d="M291.45 459.71c94.63,0 171.37,76.74 171.37,171.37 0,94.63 -76.74,171.37 -171.37,171.37 -94.63,0 -171.37,-76.74 -171.37,-171.37 0,-94.63 76.74,-171.37 171.37,-171.37zm0 85.09c47.63,0 86.28,38.65 86.28,86.28 0,47.63 -38.65,86.28 -86.28,86.28 -47.63,0 -86.28,-38.65 -86.28,-86.28 0,-47.63 38.65,-86.28 86.28,-86.28z"/>
  </g>
 </g>
</svg>
