<?xml version="1.0" encoding="UTF-8"?>
<!DOCTYPE svg PUBLIC "-//W3C//DTD SVG 1.1//EN" "http://www.w3.org/Graphics/SVG/1.1/DTD/svg11.dtd">
<!-- Creator: CorelDRAW 2017 -->
<svg xmlns="http://www.w3.org/2000/svg" xml:space="preserve" width="173.955mm" height="95.3157mm" version="1.1" style="shape-rendering:geometricPrecision; text-rendering:geometricPrecision; image-rendering:optimizeQuality; fill-rule:evenodd; clip-rule:evenodd"
viewBox="0 0 524.38 287.33"
 xmlns:xlink="http://www.w3.org/1999/xlink">
 <defs>
  <style type="text/css">
   <![CDATA[
    .fil0 {fill:#FF9736}
    .fil1 {fill:#FF9736;fill-rule:nonzero}
   ]]>
  </style>
 </defs>
 <g id="Слой_x0020_1">
  <metadata id="CorelCorpID_0Corel-Layer"/>
  <g id="_1011717904">
   <path class="fil0" d="M423.43 164.61c33.88,0 61.36,27.48 61.36,61.36 0,33.88 -27.48,61.36 -61.36,61.36 -33.88,0 -61.36,-27.48 -61.36,-61.36 0,-33.88 27.48,-61.36 61.36,-61.36zm0 30.47c17.06,0 30.89,13.84 30.89,30.89 0,17.06 -13.84,30.89 -30.89,30.89 -17.06,0 -30.89,-13.84 -30.89,-30.89 0,-17.06 13.84,-30.89 30.89,-30.89z"/>
   <path class="fil0" d="M284.81 0l215.47 0c13.27,0 24.1,10.83 24.1,24.1l0 158.97c0,13.11 -10.55,23.82 -23.6,24.09 -8.46,-34.87 -39.89,-60.78 -77.35,-60.78 -37.46,0 -68.89,25.91 -77.35,60.79l-61.28 0c-13.27,0 -24.1,-10.83 -24.1,-24.1l0 -158.97c0,-13.27 10.83,-24.1 24.1,-24.1z"/>
   <path class="fil0" d="M158.2 0l54.27 0c13.27,0 24.1,10.83 24.1,24.1l0 137.17c-13.06,-9.37 -29.04,-14.89 -46.33,-14.89 -43.93,0 -79.58,35.65 -79.58,79.58 0,9.97 1.84,19.5 5.18,28.3l-5.85 0c-13.27,0 -24.1,-10.83 -24.1,-24.1l0 -157.86c0,-39.78 32.53,-72.31 72.31,-72.31z"/>
   <path class="fil0" d="M190.25 164.61c33.88,0 61.36,27.48 61.36,61.36 0,33.88 -27.48,61.36 -61.36,61.36 -33.88,0 -61.36,-27.48 -61.36,-61.36 0,-33.88 27.48,-61.36 61.36,-61.36zm0 30.47c17.06,0 30.89,13.84 30.89,30.89 0,17.06 -13.84,30.89 -30.89,30.89 -17.06,0 -30.89,-13.84 -30.89,-30.89 0,-17.06 13.84,-30.89 30.89,-30.89z"/>
   <path class="fil1" d="M-0 132.4c18.93,0 36.09,7.67 48.49,20.09 12.39,12.4 20.07,29.53 20.09,48.45l0 0.04 0 22.38 0 19.63 0 16.86 -17.08 0 0 -16.86 0 -19.63 0 -22.38 0 -0.04c-0.01,-14.18 -5.78,-27.11 -15.08,-36.39 -9.31,-9.28 -22.2,-15.06 -36.42,-15.06l0 -17.08z"/>
  </g>
 </g>
</svg>
