<?xml version="1.0" encoding="UTF-8"?>
<!DOCTYPE svg PUBLIC "-//W3C//DTD SVG 1.1//EN" "http://www.w3.org/Graphics/SVG/1.1/DTD/svg11.dtd">
<!-- Creator: CorelDRAW 2017 -->
<svg xmlns="http://www.w3.org/2000/svg" xml:space="preserve" width="219.413mm" height="89.9058mm" version="1.1" style="shape-rendering:geometricPrecision; text-rendering:geometricPrecision; image-rendering:optimizeQuality; fill-rule:evenodd; clip-rule:evenodd"
viewBox="0 0 5543.58 2271.52"
 xmlns:xlink="http://www.w3.org/1999/xlink">
 <defs>
  <style type="text/css">
   <![CDATA[
    .fil0 {fill:white}
    .fil1 {fill:white;fill-rule:nonzero}
   ]]>
  </style>
 </defs>
 <g id="Слой_x0020_1">
  <metadata id="CorelCorpID_0Corel-Layer"/>
  <g id="_1267786048">
   <path class="fil0" d="M4842.78 1157.79c307.5,0 556.86,249.36 556.86,556.86 0,307.5 -249.36,556.86 -556.86,556.86 -307.5,0 -556.86,-249.36 -556.86,-556.86 0,-307.5 249.36,-556.86 556.86,-556.86zm0 276.49c154.78,0 280.37,125.58 280.37,280.37 0,154.78 -125.59,280.37 -280.37,280.37 -154.78,0 -280.37,-125.58 -280.37,-280.37 0,-154.79 125.58,-280.37 280.37,-280.37z"/>
   <path class="fil0" d="M3628.92 1157.79c307.5,0 556.86,249.36 556.86,556.86 0,307.5 -249.36,556.86 -556.86,556.86 -307.5,0 -556.86,-249.36 -556.86,-556.86 0,-307.5 249.36,-556.86 556.86,-556.86zm0 276.49c154.79,0 280.37,125.58 280.37,280.37 0,154.78 -125.58,280.37 -280.37,280.37 -154.78,0 -280.37,-125.58 -280.37,-280.37 0,-154.79 125.58,-280.37 280.37,-280.37z"/>
   <path class="fil0" d="M1652.12 1157.79c307.5,0 556.86,249.36 556.86,556.86 0,307.5 -249.36,556.86 -556.86,556.86 -307.5,0 -556.86,-249.36 -556.86,-556.86 0,-307.5 249.36,-556.86 556.86,-556.86zm0 276.49c154.78,0 280.37,125.58 280.37,280.37 0,154.78 -125.58,280.37 -280.37,280.37 -154.78,0 -280.37,-125.58 -280.37,-280.37 0,-154.79 125.59,-280.37 280.37,-280.37z"/>
   <path class="fil1" d="M-0 899.77c171.84,0 327.53,69.64 440.06,182.31 112.41,112.54 182.18,267.97 182.31,439.68l0 0.39 0 203.11 0 178.17 0 152.98 -155.04 0 0 -152.98 0 -178.17 0 -203.11 0 -0.39c-0.13,-128.68 -52.46,-246 -136.83,-330.24 -84.5,-84.24 -201.43,-136.7 -330.5,-136.7l0 -155.04z"/>
   <path class="fil0" d="M3067.02 0l706.61 0c120.42,0 218.74,98.45 218.74,218.74l0 433.6 1402.88 0c81.66,0 148.33,66.67 148.33,148.32l0 553.76c0,33.72 -11.37,64.99 -30.49,89.93 -106.98,-265.12 -366.68,-452.21 -670.18,-452.21 -254.53,0 -478.31,131.66 -606.99,330.5 -128.69,-198.84 -352.47,-330.5 -606.87,-330.5 -325.21,0 -600.41,214.86 -690.98,510.61l-594.98 0c-64.21,-209.44 -220.94,-378.43 -422.49,-459.06l818.24 0 109.44 -824.96c15.89,-119.38 98.32,-218.74 218.74,-218.74zm-2105.75 1502.76l-124.81 0c-67.96,0 -123.65,-55.56 -123.65,-123.65l0 -211.76c0,-68.09 55.69,-123.65 123.65,-123.65l547.43 0c-201.56,80.62 -358.41,249.62 -422.62,459.06z"/>
  </g>
 </g>
</svg>
