<?xml version="1.0" encoding="UTF-8"?>
<!DOCTYPE svg PUBLIC "-//W3C//DTD SVG 1.1//EN" "http://www.w3.org/Graphics/SVG/1.1/DTD/svg11.dtd">
<!-- Creator: CorelDRAW 2017 -->
<svg xmlns="http://www.w3.org/2000/svg" xml:space="preserve" width="225.466mm" height="92.3863mm" version="1.1" style="shape-rendering:geometricPrecision; text-rendering:geometricPrecision; image-rendering:optimizeQuality; fill-rule:evenodd; clip-rule:evenodd"
viewBox="0 0 883.79 362.14"
 xmlns:xlink="http://www.w3.org/1999/xlink">
 <defs>
  <style type="text/css">
   <![CDATA[
    .fil0 {fill:#FF9736}
    .fil1 {fill:#FF9736;fill-rule:nonzero}
   ]]>
  </style>
 </defs>
 <g id="Слой_x0020_1">
  <metadata id="CorelCorpID_0Corel-Layer"/>
  <g id="_1011699472">
   <path class="fil0" d="M772.06 184.58c49.02,0 88.78,39.75 88.78,88.78 0,49.02 -39.75,88.78 -88.78,88.78 -49.02,0 -88.78,-39.75 -88.78,-88.78 0,-49.02 39.75,-88.78 88.78,-88.78zm0 44.08c24.68,0 44.7,20.02 44.7,44.7 0,24.68 -20.02,44.7 -44.7,44.7 -24.68,0 -44.7,-20.02 -44.7,-44.7 0,-24.68 20.02,-44.7 44.7,-44.7z"/>
   <path class="fil0" d="M578.54 184.58c49.02,0 88.78,39.75 88.78,88.78 0,49.02 -39.75,88.78 -88.78,88.78 -49.02,0 -88.78,-39.75 -88.78,-88.78 0,-49.02 39.75,-88.78 88.78,-88.78zm0 44.08c24.68,0 44.7,20.02 44.7,44.7 0,24.68 -20.02,44.7 -44.7,44.7 -24.68,0 -44.7,-20.02 -44.7,-44.7 0,-24.68 20.02,-44.7 44.7,-44.7z"/>
   <path class="fil0" d="M263.39 184.58c49.02,0 88.78,39.75 88.78,88.78 0,49.02 -39.75,88.78 -88.78,88.78 -49.02,0 -88.78,-39.75 -88.78,-88.78 0,-49.02 39.75,-88.78 88.78,-88.78zm0 44.08c24.68,0 44.7,20.02 44.7,44.7 0,24.68 -20.02,44.7 -44.7,44.7 -24.68,0 -44.7,-20.02 -44.7,-44.7 0,-24.68 20.02,-44.7 44.7,-44.7z"/>
   <path class="fil1" d="M-0 143.45c27.4,0 52.22,11.1 70.16,29.06 17.92,17.94 29.04,42.72 29.06,70.1l0 0.06 0 32.38 0 28.41 0 24.39 -24.72 0 0 -24.39 0 -28.41 0 -32.38 0 -0.06c-0.02,-20.52 -8.36,-39.22 -21.81,-52.65 -13.47,-13.43 -32.11,-21.79 -52.69,-21.79l0 -24.72z"/>
   <path class="fil0" d="M488.96 0l112.65 0c19.2,0 34.87,15.7 34.87,34.87l0 69.13 223.66 0c13.02,0 23.65,10.63 23.65,23.65l0 88.28c0,5.38 -1.81,10.36 -4.86,14.34 -17.06,-42.27 -58.46,-72.09 -106.84,-72.09 -40.58,0 -76.25,20.99 -96.77,52.69 -20.52,-31.7 -56.19,-52.69 -96.75,-52.69 -51.85,0 -95.72,34.25 -110.16,81.4l-94.86 0c-10.24,-33.39 -35.22,-60.33 -67.36,-73.19l130.45 0 17.45 -131.52c2.53,-19.03 15.68,-34.87 34.87,-34.87zm-335.71 239.58l-19.9 0c-10.83,0 -19.71,-8.86 -19.71,-19.71l0 -33.76c0,-10.86 8.88,-19.71 19.71,-19.71l87.27 0c-32.13,12.85 -57.14,39.8 -67.38,73.19z"/>
  </g>
 </g>
</svg>
