<?xml version="1.0" encoding="UTF-8"?>
<!DOCTYPE svg PUBLIC "-//W3C//DTD SVG 1.1//EN" "http://www.w3.org/Graphics/SVG/1.1/DTD/svg11.dtd">
<!-- Creator: CorelDRAW 2017 -->
<svg xmlns="http://www.w3.org/2000/svg" xml:space="preserve" width="288.112mm" height="157.866mm" version="1.1" style="shape-rendering:geometricPrecision; text-rendering:geometricPrecision; image-rendering:optimizeQuality; fill-rule:evenodd; clip-rule:evenodd"
viewBox="0 0 607.11 332.66"
 xmlns:xlink="http://www.w3.org/1999/xlink">
 <defs>
  <style type="text/css">
   <![CDATA[
    .fil0 {fill:#4D4D4D}
    .fil1 {fill:#FF9736}
    .fil2 {fill:#FF9736;fill-rule:nonzero}
   ]]>
  </style>
 </defs>
 <g id="Слой_x0020_1">
  <metadata id="CorelCorpID_0Corel-Layer"/>
  <g id="_1011702096">
   <path class="fil0" d="M490.23 190.58c39.23,0 71.04,31.81 71.04,71.04 0,39.23 -31.81,71.04 -71.04,71.04 -39.23,0 -71.04,-31.81 -71.04,-71.04 0,-39.23 31.81,-71.04 71.04,-71.04zm0 35.27c19.75,0 35.77,16.02 35.77,35.77 0,19.75 -16.02,35.77 -35.77,35.77 -19.75,0 -35.77,-16.02 -35.77,-35.77 0,-19.75 16.02,-35.77 35.77,-35.77z"/>
   <path class="fil1" d="M329.74 0l249.47 0c15.36,0 27.91,12.54 27.91,27.91l0 184.05c0,15.18 -12.21,27.58 -27.33,27.89 -9.79,-40.37 -46.18,-70.37 -89.55,-70.37 -43.37,0 -79.76,30 -89.55,70.38l-70.94 0c-15.36,0 -27.91,-12.54 -27.91,-27.91l0 -184.05c0,-15.36 12.54,-27.91 27.91,-27.91z"/>
   <path class="fil1" d="M183.16 0l62.83 0c15.36,0 27.91,12.54 27.91,27.91l0 158.81c-15.11,-10.85 -33.63,-17.24 -53.64,-17.24 -50.87,0 -92.14,41.27 -92.14,92.14 0,11.54 2.13,22.58 6,32.77l-6.77 0c-15.36,0 -27.91,-12.54 -27.91,-27.91l0 -182.76c0,-46.05 37.66,-83.72 83.72,-83.72z"/>
   <path class="fil0" d="M220.26 190.58c39.23,0 71.04,31.81 71.04,71.04 0,39.23 -31.81,71.04 -71.04,71.04 -39.23,0 -71.04,-31.81 -71.04,-71.04 0,-39.23 31.81,-71.04 71.04,-71.04zm0 35.27c19.75,0 35.77,16.02 35.77,35.77 0,19.75 -16.02,35.77 -35.77,35.77 -19.75,0 -35.77,-16.02 -35.77,-35.77 0,-19.75 16.02,-35.77 35.77,-35.77z"/>
   <path class="fil2" d="M0 153.29c21.92,0 41.78,8.88 56.14,23.26 14.34,14.36 23.24,34.19 23.26,56.09l0 0.05 0 25.91 0 22.73 0 19.52 -19.78 0 0 -19.52 0 -22.73 0 -25.91 0 -0.05c-0.02,-16.42 -6.69,-31.38 -17.46,-42.13 -10.78,-10.75 -25.7,-17.44 -42.16,-17.44l0 -19.78z"/>
  </g>
 </g>
</svg>
