<?xml version="1.0" encoding="UTF-8"?>
<!DOCTYPE svg PUBLIC "-//W3C//DTD SVG 1.1//EN" "http://www.w3.org/Graphics/SVG/1.1/DTD/svg11.dtd">
<!-- Creator: CorelDRAW 2017 -->
<svg xmlns="http://www.w3.org/2000/svg" xml:space="preserve" width="1355.01mm" height="231.885mm" version="1.1" style="shape-rendering:geometricPrecision; text-rendering:geometricPrecision; image-rendering:optimizeQuality; fill-rule:evenodd; clip-rule:evenodd"
viewBox="0 0 29797.6 5099.32"
 xmlns:xlink="http://www.w3.org/1999/xlink">
 <defs>
  <style type="text/css">
   <![CDATA[
    .fil0 {fill:white}
    .fil1 {fill:white;fill-rule:nonzero}
   ]]>
  </style>
 </defs>
 <g id="Слой_x0020_1">
  <metadata id="CorelCorpID_0Corel-Layer"/>
  <g id="_1062487632">
   <path class="fil0" d="M2925.27 5099.32l704.09 -12.41 -7.92 -445.85c255.6,-34.06 500.11,-102.98 728.38,-201.6l229.85 382.48 603.62 -362.67 -228.14 -379.44c200.54,-156.85 378.78,-340.76 529.42,-545.92l378.38 209.79 341.28 -615.9 -378.52 -209.79c42.91,-108.39 79.22,-220.09 108.39,-334.55l-464.2 0c-287.95,932.36 -1148.35,1617.04 -2177.09,1635.13 -1281.7,22.58 -2338.82,-998.24 -2361.39,-2279.8 -13.86,-785.55 364.26,-1486.6 954.01,-1917l-668.05 0c-67.99,73.67 -131.89,151.03 -191.7,231.7l-457.6 -253.49 -341.29 615.9 455.35 252.3c-88.32,220.22 -148.92,454.43 -178.1,697.88l-504.07 8.85 12.41 704.09 496.94 -8.71c33.27,247.81 99.28,484.93 193.42,707.12l-419.44 252.04 362.67 603.62 412.05 -247.68c150.64,195.66 326.76,370.46 523.35,519.52l-229.99 415.22 615.9 341.28 224.97 -405.98c228.14,94.53 471.33,159.62 724.95,190.25l8.05 453.64zm2362.85 -2515.86c-280.95,839.94 -1064.65,1451.61 -1998.2,1467.98 -1185.72,20.86 -2163.89,-926.42 -2184.88,-2115.7 -14.39,-818.16 427.89,-1537.69 1091.18,-1913.96l729.17 0 -127.27 712.01c-471.2,184.97 -801.26,648.9 -791.75,1186.11 12.01,690.09 579.59,1239.71 1267.57,1227.57 427.89,-7.53 801.39,-230.52 1019.89,-564.01l994.28 0zm-3726.8 -909.91c134.4,-2.38 245.43,104.7 247.68,239.23 2.38,134.4 -104.69,245.3 -239.1,247.68 -134.53,2.38 -245.43,-104.83 -247.68,-239.23 -2.51,-134.4 104.7,-245.3 239.1,-247.68zm1482.77 1915.55c-2.38,-134.4 104.7,-245.3 239.23,-247.68 134.4,-2.38 245.3,104.69 247.68,239.1 2.38,134.53 -104.7,245.43 -239.23,247.81 -134.4,2.38 -245.3,-104.7 -247.68,-239.23zm-1172.51 -660.39c93.34,-96.77 247.55,-99.55 344.32,-6.07 96.77,93.34 99.41,247.55 6.07,344.32 -93.47,96.64 -247.55,99.41 -344.32,5.94 -96.77,-93.34 -99.55,-247.55 -6.07,-344.19zm2766.71 -27.99c96.77,93.34 99.42,247.55 5.94,344.32 -93.34,96.77 -247.41,99.55 -344.19,6.07 -96.77,-93.34 -99.55,-247.55 -6.07,-344.32 93.47,-96.77 247.55,-99.41 344.32,-6.07zm-2432.95 -2348.85c96.77,93.34 99.41,247.55 6.07,344.19 -93.47,96.77 -247.55,99.55 -344.32,6.07 -96.77,-93.34 -99.42,-247.55 -6.07,-344.19 93.47,-96.77 247.55,-99.55 344.32,-6.07z"/>
   <path class="fil1" d="M3814.2 2084.8l108.92 -594.9 868.59 0c472.25,0 612.99,-356.33 686.66,-759.67 81.46,-444.4 12.15,-706.86 -456.54,-706.86l-1495.84 0 -377.19 2061.43 665.41 0zm15848.39 0l1177.79 0c506.84,0 663.82,-200.15 750.82,-692.07 55.85,-316.2 27.2,-594.77 -359.24,-594.77l-697.88 0 50.04 -273.95 1112.97 0 91.62 -500.64 -1778.51 0.13 -225.76 1233.77 957.05 0c101.4,0 189.85,26.8 164.37,147.21 -31.42,149.58 -108.79,167.93 -248.6,167.93l-901.07 0 -93.61 512.39zm-1148.35 0l665.41 0 51.23 -279.76 306.3 0 99.15 -541.83 -306.3 0 226.82 -1239.71 -650.49 -0.13 -1420.19 1097.52 -125.16 684.15 1204.33 0 -51.09 279.76zm150.25 -821.59l-610.75 0 710.16 -542.22 -99.41 542.22zm-1840.43 -1239.84l-665.41 0 -133.61 730.23 -747.92 0 133.48 -730.23 -665.41 0 -377.06 2061.43 665.4 0 149.72 -818.55 748.05 0 -149.85 818.55 665.41 0 377.19 -2061.43zm-3443.73 -23.37c-291.91,0 -676.89,5.41 -939.89,212.03 -260.62,204.51 -335.08,561.77 -386.7,842.05 -52.28,283.32 -105.09,633.72 78.56,842.18 182.33,206.75 576.02,212.43 862.25,212.16 289.79,-0.53 677.16,-3.83 939.89,-212.16 258.5,-205.03 335.74,-561.63 386.7,-842.18 51.36,-283.72 107.33,-634.51 -78.56,-842.05 -184.57,-206.22 -573.25,-212.03 -862.25,-212.03zm-643.49 1054.09c26.27,-143.38 49.11,-274.61 148.26,-391.72 118.95,-140.21 239.36,-150.11 401.49,-150.11 163.58,0 276.72,9.64 346.43,150.11 62.58,126.35 33.4,235.93 4.89,391.72 -26.01,142.19 -45.42,272.1 -148.13,391.72 -120.8,140.34 -241.34,150.38 -401.49,150.11 -155.39,-0.26 -281.21,-10.3 -346.43,-150.11 -52.02,-111.56 -29.84,-256.52 -5.02,-391.72zm-1107.29 1030.72l377.06 -2061.43 -808.52 0 -1015.4 1344.01 245.83 -1344.01 -665.54 0 -377.19 2061.43 795.32 0 1027.55 -1337.67 -244.64 1337.67 665.54 0zm-3463.01 0l283.32 -1548.91 1014.35 0 98.23 -512.52 -1684.37 0 -377.06 2061.43 665.54 0zm-871.76 0l91.63 -500.51 -1163.14 -0.13 59.81 -326.89 1124.72 0 81.99 -447.7 -1124.72 0 52.15 -285.57 1154.29 0 91.62 -500.64 -1819.7 0 -377.19 2061.3 1828.54 0.13zm-3277.91 -1107.29l80.67 -441.62 483.08 0c152.49,0 265.9,22.97 229.72,208.99 -42.91,220.35 -152.62,232.63 -316.6,232.63l-476.87 0z"/>
   <path class="fil0" d="M22500.59 4637.9c112.09,-612.6 221.67,-1226.51 336.53,-1838.31 1111.91,0 2223.96,0 3335.87,0l320.16 -1749.2 0 1772.83 90.7 0 1315.89 -240.94 -45.55 -570.08 -45.15 496.02 -1225.19 224.18 0 -2177.75 1179.64 215.86 0 181.54 1088.81 199.23 0 3486.64 -907.41 0 83.04 -453.64 370.72 0 0 -1029 -940.41 -172.03 426.57 168.73 -272.1 1485.94 -1281.56 0 124.5 -680.46 -215.33 680.46 -646.53 0 70.63 -385.65 466.18 -67.99 -1981.69 0 441.23 67.99 -70.63 385.65 -646.39 0 124.5 -680.46 -215.33 680.46 -1281.7 0zm5898.07 -2616.86c50.04,0 90.7,40.66 90.7,90.83 0,50.04 -40.66,90.7 -90.7,90.7 -50.17,0 -90.83,-40.66 -90.83,-90.7 0,-50.17 40.66,-90.83 90.83,-90.83z"/>
   <path class="fil0" d="M29797.6 4637.9l-831.1 0 0 -1592.09 530.08 97.04c0,522.29 65.48,1022.27 301.02,1495.05zm-6666.46 -4247.37l0 -369.41 2676.67 0 0 369.41 -2676.67 0zm-1173.83 2316.77c-185.89,0 -224.44,-167.01 -147.73,-308.94l730.49 -1349.29 -240.02 1311.14 317.39 347.09 -660.13 0zm469.61 600.19l-323.2 0 -215.2 -507.9 753.6 0 -215.2 507.9zm3640.72 -608.77l-3319.5 0 -337.98 -369.41 337.98 -1846.89 3355.81 0 84.5 -461.69 1082.07 0 -67.6 369.41 -712.8 0 -422.48 2308.59zm-782.64 -1846.89l748.19 0 -270.39 1477.49 -748.19 0 270.39 -1477.49zm-1117.46 0l748.19 0 -270.39 1477.49 -748.32 0 270.52 -1477.49zm-1117.59 0l748.19 0 -270.39 1477.49 -748.18 0 270.39 -1477.49z"/>
   <path class="fil1" d="M6916.12 2583.46l-143.91 823.97 218.1 0 110.11 -632.8 284.64 0 -110.24 632.8 218.1 0 143.91 -823.97 -720.72 0zm976.98 595.56l193.02 0c227.87,0 291.11,-72.61 331.38,-304.32 6.6,-39.61 10.96,-73.67 10.96,-104.43 0,-136.25 -73.01,-186.82 -238.83,-186.82l-410.99 0 -143.91 823.97 217.97 0 40.4 -228.4zm71.95 -415.35l149.32 0c63.24,0 85.15,15.45 85.15,59.28 0,14.39 -2.24,33.01 -6.6,53.87 -18.48,106.55 -37.1,121.99 -119.88,121.99l-149.45 0 41.45 -235.14zm834.13 654.84c221.27,0 388.15,-52.81 432.78,-306.56 45.81,-263.65 48.06,-291.11 48.06,-316.46 0,-182.33 -137.44,-219.69 -332.57,-219.69 -221.27,0 -386.04,49.51 -431.72,303.26 -45.81,256 -48.06,291.11 -48.06,316.33 0,182.46 137.44,223.12 331.52,223.12zm33.8 -191.17c-92.68,0 -134.14,-10.96 -134.14,-82.38 0,-15.45 1.06,-35.25 37.1,-242.79 21.78,-123.05 64.3,-135.19 177.71,-135.19 93.74,0 135.19,8.84 135.19,80.27 0,15.31 -1.06,32.87 -37.1,240.55 -21.78,123.05 -65.35,139.55 -178.76,139.55zm610.62 -643.89l-144.04 823.97 218.1 0 112.35 -643.75 361.88 0 31.69 -180.21 -579.98 0zm803.5 595.56l193.02 0c227.87,0 291.12,-72.61 331.38,-304.32 6.6,-39.61 10.96,-73.67 10.96,-104.43 0,-136.25 -73.01,-186.82 -238.83,-186.82l-410.99 0 -143.91 823.97 217.97 0 40.4 -228.4zm71.95 -415.35l149.32 0c63.24,0 85.16,15.45 85.16,59.28 0,14.39 -2.25,33.01 -6.6,53.87 -18.48,106.55 -37.1,121.99 -119.88,121.99l-149.45 0 41.46 -235.14zm810.1 0l371.78 0 31.69 -180.21 -589.89 0 -143.91 823.97 597.41 0 31.69 -180.08 -379.44 0 28.39 -160.41 348.81 0 26.27 -152.75 -348.94 0 26.14 -150.51zm1200.5 115.39c9.77,-59.41 13.07,-83.57 13.07,-106.55 0,-150.51 -105.75,-196.72 -294.41,-196.72 -239.89,0 -393.57,40.66 -440.44,313.16 -42.64,247.15 -47,286.76 -47,316.33 0,201.07 145.1,213.22 339.17,213.22 255.07,0 354.35,-61.52 391.45,-318.71l-224.71 0c-16.37,124.23 -66.41,127.54 -156.98,127.54 -91.62,0 -117.76,-25.35 -117.76,-82.38 0,-24.16 5.41,-54.92 34.99,-220.88 20.6,-117.5 39.21,-157.11 163.45,-157.11 74.2,0 121.07,15.45 121.07,61.52 0,13.2 -2.25,26.4 -6.6,50.57l224.71 0zm817.76 0c9.77,-59.41 13.07,-83.57 13.07,-106.55 0,-150.51 -105.75,-196.72 -294.41,-196.72 -239.89,0 -393.7,40.66 -440.57,313.16 -42.51,247.15 -46.87,286.76 -46.87,316.33 0,201.07 145.1,213.22 339.17,213.22 255.07,0 354.35,-61.52 391.32,-318.71l-224.57 0c-16.37,124.23 -66.54,127.54 -156.98,127.54 -91.62,0 -117.76,-25.35 -117.76,-82.38 0,-24.16 5.41,-54.92 34.85,-220.88 20.73,-117.5 39.34,-157.11 163.58,-157.11 74.2,0 121.07,15.45 121.07,61.52 0,13.2 -2.25,26.4 -6.6,50.57l224.71 0zm770.76 -295.6l-207.15 0 -143.91 823.97 296.53 0 340.23 -542.62 7.66 0 -94.93 542.62 207.15 0 143.91 -823.97 -286.76 0 -349.87 542.75 -7.66 0 94.79 -542.75zm1301.9 0l-218.1 0 -143.91 823.97 218.1 0 56.64 -322.93 65.48 0 171.1 322.93 270.39 0 -238.7 -419.57 358.71 -404.39 -263.92 0 -264.97 309.86 -65.35 0 54.53 -309.86zm1010.65 682.31l17.56 141.66 222.33 0 -104.69 -823.97 -331.38 0 -389.21 823.97 226.69 0 65.48 -141.66 293.23 0zm-17.43 -159.35l-201.73 0 162.52 -358.05 2.11 0 37.1 358.05zm420.9 -522.95c-46.87,258.24 -50.17,301.02 -50.17,328.61 0,130.7 69.84,187.74 252.96,187.74 63.24,0 133.08,-7.66 182.06,-21.92l-57.69 329.53 217.97 0 143.91 -823.97 -217.97 0 -54.53 309.86c-43.7,12.15 -73.14,15.45 -128.73,15.45 -80.67,0 -110.11,-15.45 -110.11,-70.37 0,-14.26 2.24,-39.61 40.4,-254.94l-218.1 0zm1018.31 180.21l371.91 0 31.55 -180.21 -589.89 0 -143.91 823.97 597.54 0 31.55 -180.08 -379.44 0 28.39 -160.41 348.94 0 26.14 -152.75 -348.94 0 26.14 -150.51zm1200.5 115.39c9.77,-59.41 13.07,-83.57 13.07,-106.55 0,-150.51 -105.75,-196.72 -294.41,-196.72 -239.89,0 -393.57,40.66 -440.44,313.16 -42.51,247.15 -46.87,286.76 -46.87,316.33 0,201.07 144.96,213.22 339.04,213.22 255.21,0 354.35,-61.52 391.45,-318.71l-224.57 0c-16.37,124.23 -66.54,127.54 -156.98,127.54 -91.63,0 -117.77,-25.35 -117.77,-82.38 0,-24.16 5.41,-54.92 34.86,-220.88 20.73,-117.5 39.21,-157.11 163.58,-157.11 74.07,0 120.93,15.45 120.93,61.52 0,13.2 -2.11,26.4 -6.47,50.57l224.57 0zm526.65 -104.43l220.22 0 33.8 -191.17 -658.54 0 -33.8 191.17 220.22 0 -110.11 632.8 218.1 0 110.11 -632.8zm202.79 632.8l433.97 0c173.35,0 271.44,-27.46 307.49,-229.59 4.36,-25.22 6.47,-49.38 6.47,-70.24 0,-66.01 -26.14,-108.79 -116.58,-114.33l2.11 -8.71c111.17,-17.56 143.91,-85.68 161.34,-190.12 4.36,-24.16 6.6,-46.08 6.6,-64.82 0,-123.05 -87.27,-146.15 -227.87,-146.15l-429.61 0 -143.91 823.97zm330.33 -643.75l183.25 0c44.63,0 59.94,12.15 59.94,41.72 0,7.79 -1.06,17.56 -3.3,28.65 -12.01,65.88 -32.74,79.08 -109.05,79.08l-156.98 0 26.14 -149.45zm-52.28 302.07l168.99 0c58.88,0 85.02,6.6 85.02,48.45 0,8.71 -1.06,18.62 -3.3,29.57 -12.01,67.07 -43.57,83.57 -114.46,83.57l-164.64 0 28.39 -161.6zm897.24 352.77c221.41,0 388.28,-52.81 432.91,-306.56 45.81,-263.65 47.92,-291.11 47.92,-316.46 0,-182.33 -137.31,-219.69 -332.44,-219.69 -221.41,0 -386.04,49.51 -431.85,303.26 -45.81,256 -47.93,291.11 -47.93,316.33 0,182.46 137.44,223.12 331.38,223.12zm33.8 -191.17c-92.68,0 -134.01,-10.96 -134.01,-82.38 0,-15.45 1.06,-35.25 36.97,-242.79 21.92,-123.05 64.43,-135.19 177.84,-135.19 93.74,0 135.19,8.84 135.19,80.27 0,15.31 -1.19,32.87 -37.1,240.55 -21.78,123.05 -65.48,139.55 -178.89,139.55z"/>
  </g>
 </g>
</svg>
