<?xml version="1.0" encoding="UTF-8"?>
<!DOCTYPE svg PUBLIC "-//W3C//DTD SVG 1.1//EN" "http://www.w3.org/Graphics/SVG/1.1/DTD/svg11.dtd">
<!-- Creator: CorelDRAW 2017 -->
<svg xmlns="http://www.w3.org/2000/svg" xml:space="preserve" width="99.9097mm" height="151.829mm" version="1.1" style="shape-rendering:geometricPrecision; text-rendering:geometricPrecision; image-rendering:optimizeQuality; fill-rule:evenodd; clip-rule:evenodd"
viewBox="0 0 137.71 209.27"
 xmlns:xlink="http://www.w3.org/1999/xlink">
 <defs>
  <style type="text/css">
   <![CDATA[
    .fil0 {fill:#666666}
   ]]>
  </style>
 </defs>
 <g id="Слой_x0020_1">
  <metadata id="CorelCorpID_0Corel-Layer"/>
  <path class="fil0" d="M68.85 0c32.72,0 59.24,26.52 59.24,59.24 0,32.72 -26.52,59.24 -59.24,59.24 -32.72,0 -59.24,-26.52 -59.24,-59.24 0,-32.72 26.52,-59.24 59.24,-59.24zm-56.35 177.38l4.15 0c7.11,0 10.85,-3.14 10.85,-8.04 0,-5.04 -2.66,-7.7 -8.45,-7.7 -3.07,0 -4.89,0.26 -6.55,0.67l0 15.07zm28.98 28.48c0.08,0.41 0.17,0.83 0.17,1.16 0,0.91 -0.5,1.41 -2.07,1.41l-8.04 0c-1.82,0 -2.66,-0.74 -3.07,-2.4l-3.14 -13.08c-1.32,-5.56 -4.3,-6.47 -8.28,-6.47l-4.56 0 0 19.31c0,1.57 -0.91,2.64 -2.48,2.64l-7.54 0c-1.58,0 -2.49,-1.08 -2.49,-2.64l0 -48.37c0,-2.31 1.16,-3.14 2.73,-3.56 4.47,-1.17 9.86,-1.66 14.9,-1.66 12.59,0 22.44,3.06 22.44,16.15 0,7.03 -5.88,11.92 -10.68,13.66l0 0.24c3.89,1.58 7.03,3.74 8.54,9.69l3.56 13.91zm42.98 -7.78c1.57,0 2.48,1.07 2.48,2.64l0 5.06c0,1.57 -0.91,2.64 -2.48,2.64l-30.64 0c-1.58,0 -2.49,-1.08 -2.49,-2.64l0 -50.52c0,-1.57 0.91,-2.64 2.49,-2.64l30.72 0c1.34,0 2.16,0.99 2.16,2.32 0,0.08 -0.08,0.91 -0.17,1.57l-0.65 3.98c-0.26,1.49 -1.34,2.48 -2.73,2.48l-19.22 0 0 11.6 17.56 0c1.32,0 2.14,0.99 2.14,2.31 0,0.09 0,0.83 -0.17,1.58l-0.65 3.89c-0.26,1.49 -1.32,2.48 -2.73,2.48l-16.15 0 0 13.26 20.54 0zm38.5 11.18c-19.29,0 -29.23,-12.09 -29.23,-28 0,-18.96 13.58,-29.47 30.47,-29.47 4.8,0 8.86,0.65 11.59,1.57 0.91,0.24 1.91,0.74 1.91,1.82 0,0.24 -0.26,1.16 -0.42,1.73l-1.49 5.64c-0.17,0.83 -0.65,1.16 -1.41,1.16 -0.49,0 -1.07,-0.24 -1.66,-0.41 -2.23,-0.65 -4.38,-1.16 -8.02,-1.16 -9.94,0 -17.73,6.05 -17.73,18.46 0,11.1 6.62,18.14 17.8,18.14 2.49,0 5.06,-0.24 7.53,-0.91 0.67,-0.17 1.25,-0.41 1.82,-0.41 0.83,0 1.41,0.33 1.58,1.16l1.32 5.39c0.17,0.58 0.33,1.49 0.33,1.73 0,1.16 -1.08,1.66 -2.08,1.9 -2.98,0.91 -7.03,1.67 -12.34,1.67z"/>
 </g>
</svg>
