<?xml version="1.0" encoding="UTF-8"?>
<!DOCTYPE svg PUBLIC "-//W3C//DTD SVG 1.1//EN" "http://www.w3.org/Graphics/SVG/1.1/DTD/svg11.dtd">
<!-- Creator: CorelDRAW 2017 -->
<svg xmlns="http://www.w3.org/2000/svg" xml:space="preserve" width="151.031mm" height="151.031mm" version="1.1" style="shape-rendering:geometricPrecision; text-rendering:geometricPrecision; image-rendering:optimizeQuality; fill-rule:evenodd; clip-rule:evenodd"
viewBox="0 0 281.85 281.85"
 xmlns:xlink="http://www.w3.org/1999/xlink">
 <defs>
  <style type="text/css">
   <![CDATA[
    .fil0 {fill:#666666}
   ]]>
  </style>
 </defs>
 <g id="Слой_x0020_1">
  <metadata id="CorelCorpID_0Corel-Layer"/>
  <path class="fil0" d="M32.8 0l15.43 0 0 76.27c0,9.71 7.93,17.64 17.64,17.64l112.42 0c9.71,0 17.64,-7.93 17.64,-17.64l0 -76.27 1.37 0c12.74,0 18.94,1.9 28.3,11.27l44.24 44.24c8.86,8.86 12.01,16.86 12.01,28.01l0 165.57c0,18.02 -14.74,32.76 -32.76,32.76l-216.29 0c-18.06,0 -32.8,-14.74 -32.8,-32.76l0 -216.29c0,-18.06 14.74,-32.8 32.8,-32.8zm134.4 12.04c6.05,0 8.76,2.52 8.76,8.57 0,17.56 0,35.13 0,52.69 0,6.05 -2.71,8.57 -8.76,8.57 -7.4,0 -14.81,0 -22.2,0 -6.05,0 -8.76,-2.52 -8.76,-8.57 0,-17.56 0,-35.13 0,-52.69 0,-6.05 2.71,-8.57 8.76,-8.57 7.4,0 14.81,0 22.2,0zm-104.35 250.81l156.14 0c8.05,0 14.62,-6.57 14.62,-14.62l0 -83.5c0,-8.05 -6.57,-14.62 -14.62,-14.62l-156.14 0c-8.05,0 -14.62,6.57 -14.62,14.62l0 83.5c0,8.05 6.57,14.62 14.62,14.62z"/>
 </g>
</svg>
