<?xml version="1.0" encoding="UTF-8"?>
<!DOCTYPE svg PUBLIC "-//W3C//DTD SVG 1.1//EN" "http://www.w3.org/Graphics/SVG/1.1/DTD/svg11.dtd">
<!-- Creator: CorelDRAW 2017 -->
<svg xmlns="http://www.w3.org/2000/svg" xml:space="preserve" width="117.258mm" height="117.258mm" version="1.1" style="shape-rendering:geometricPrecision; text-rendering:geometricPrecision; image-rendering:optimizeQuality; fill-rule:evenodd; clip-rule:evenodd"
viewBox="0 0 269.52 269.52"
 xmlns:xlink="http://www.w3.org/1999/xlink">
 <defs>
  <style type="text/css">
   <![CDATA[
    .fil0 {fill:#FF9736;fill-rule:nonzero}
    .fil1 {fill:white;fill-rule:nonzero}
   ]]>
  </style>
 </defs>
 <g id="Слой_x0020_1">
  <metadata id="CorelCorpID_0Corel-Layer"/>
  <g>
   <path class="fil0" d="M210.93 38.6l-152.33 0 0 -38.6 152.33 0 0 0 0 38.6zm58.6 19.99l-38.6 0 0 0 -0.03 -1.03 -0.08 -1.01 -0.13 -0.99 -0.17 -0.97 -0.22 -0.95 -0.27 -0.94 -0.31 -0.92 -0.36 -0.9 -0.4 -0.88 -0.44 -0.86 -0.48 -0.84 -0.53 -0.82 -0.56 -0.79 -0.6 -0.76 -0.64 -0.74 -0.67 -0.7 -0.7 -0.67 -0.74 -0.64 -0.76 -0.6 -0.79 -0.56 -0.82 -0.53 -0.84 -0.48 -0.86 -0.44 -0.88 -0.4 -0.9 -0.36 -0.92 -0.31 -0.94 -0.27 -0.95 -0.22 -0.97 -0.17 -0.99 -0.13 -1.01 -0.08 -1.03 -0.03 0 -38.6 3 0.08 2.97 0.23 2.93 0.38 2.89 0.52 2.84 0.66 2.79 0.8 2.73 0.93 2.66 1.06 2.6 1.18 2.53 1.3 2.45 1.41 2.37 1.53 2.29 1.63 2.21 1.74 2.12 1.84 2.03 1.94 1.94 2.03 1.84 2.12 1.74 2.21 1.63 2.29 1.53 2.37 1.41 2.45 1.3 2.53 1.18 2.6 1.06 2.66 0.93 2.73 0.8 2.79 0.66 2.84 0.52 2.89 0.38 2.93 0.23 2.97 0.08 3 0 0zm-38.6 152.33l0 -152.33 38.6 0 0 152.33 0 0 -38.6 0zm-19.99 58.6l0 -38.6 0 0 1.03 -0.03 1.01 -0.08 0.99 -0.13 0.97 -0.17 0.95 -0.22 0.94 -0.27 0.92 -0.31 0.9 -0.36 0.88 -0.4 0.86 -0.44 0.84 -0.48 0.82 -0.53 0.79 -0.56 0.76 -0.6 0.74 -0.64 0.7 -0.67 0.67 -0.7 0.64 -0.74 0.6 -0.76 0.56 -0.79 0.53 -0.82 0.48 -0.84 0.44 -0.86 0.4 -0.88 0.36 -0.9 0.31 -0.92 0.27 -0.94 0.22 -0.95 0.17 -0.97 0.13 -0.99 0.08 -1.01 0.03 -1.03 38.6 0 -0.08 3 -0.23 2.97 -0.38 2.93 -0.52 2.89 -0.66 2.84 -0.8 2.79 -0.93 2.73 -1.06 2.66 -1.18 2.6 -1.3 2.53 -1.41 2.45 -1.53 2.37 -1.63 2.29 -1.74 2.21 -1.84 2.12 -1.94 2.03 -2.03 1.94 -2.12 1.84 -2.21 1.74 -2.29 1.63 -2.37 1.53 -2.45 1.41 -2.53 1.3 -2.6 1.18 -2.66 1.06 -2.73 0.93 -2.79 0.8 -2.84 0.66 -2.89 0.52 -2.93 0.38 -2.97 0.23 -3 0.08 0 0zm-152.33 -38.6l152.33 0 0 38.6 -152.33 0 0 0 0 -38.6zm-58.6 -19.99l38.6 0 0 0 0.03 1.03 0.08 1.01 0.13 0.99 0.17 0.97 0.22 0.95 0.27 0.94 0.31 0.92 0.36 0.9 0.4 0.88 0.44 0.86 0.48 0.84 0.53 0.82 0.56 0.79 0.6 0.76 0.64 0.74 0.67 0.7 0.7 0.67 0.74 0.64 0.76 0.6 0.79 0.56 0.82 0.53 0.84 0.48 0.86 0.44 0.88 0.4 0.9 0.36 0.92 0.31 0.94 0.27 0.95 0.22 0.97 0.17 0.99 0.13 1.01 0.08 1.03 0.03 0 38.6 -3 -0.08 -2.97 -0.23 -2.93 -0.38 -2.89 -0.52 -2.84 -0.66 -2.79 -0.8 -2.73 -0.93 -2.66 -1.06 -2.6 -1.18 -2.53 -1.3 -2.45 -1.41 -2.37 -1.53 -2.29 -1.63 -2.21 -1.74 -2.12 -1.84 -2.03 -1.94 -1.94 -2.03 -1.84 -2.12 -1.74 -2.21 -1.63 -2.29 -1.53 -2.37 -1.41 -2.45 -1.3 -2.53 -1.18 -2.6 -1.06 -2.66 -0.93 -2.73 -0.8 -2.79 -0.66 -2.84 -0.52 -2.89 -0.38 -2.93 -0.23 -2.97 -0.08 -3 0 0zm38.6 -152.33l0 152.33 -38.6 0 0 -152.33 0 0 38.6 0zm19.99 -58.6l0 38.6 0 0 -1.03 0.03 -1.01 0.08 -0.99 0.13 -0.97 0.17 -0.95 0.22 -0.94 0.27 -0.92 0.31 -0.9 0.36 -0.88 0.4 -0.86 0.44 -0.84 0.48 -0.82 0.53 -0.79 0.56 -0.76 0.6 -0.74 0.64 -0.7 0.67 -0.67 0.7 -0.64 0.74 -0.6 0.76 -0.56 0.79 -0.53 0.82 -0.48 0.84 -0.44 0.86 -0.4 0.88 -0.36 0.9 -0.31 0.92 -0.27 0.94 -0.22 0.95 -0.17 0.97 -0.13 0.99 -0.08 1.01 -0.03 1.03 -38.6 0 0.08 -3 0.23 -2.97 0.38 -2.93 0.52 -2.89 0.66 -2.84 0.8 -2.79 0.93 -2.73 1.06 -2.66 1.18 -2.6 1.3 -2.53 1.41 -2.45 1.53 -2.37 1.63 -2.29 1.74 -2.21 1.84 -2.12 1.94 -2.03 2.03 -1.94 2.12 -1.84 2.21 -1.74 2.29 -1.63 2.37 -1.53 2.45 -1.41 2.53 -1.3 2.6 -1.18 2.66 -1.06 2.73 -0.93 2.79 -0.8 2.84 -0.66 2.89 -0.52 2.93 -0.38 2.97 -0.23 3 -0.08 0 0z"/>
  </g>
  <g>
   <path class="fil1" d="M115.5 85.93c0,-10.66 8.62,-19.29 19.25,-19.29 10.63,0 19.25,8.64 19.25,19.29l-38.5 0zm0 97.66l0 -97.66 38.5 0 0 97.66 -38.5 0zm38.5 0c0,10.66 -8.62,19.29 -19.25,19.29 -10.63,0 -19.25,-8.64 -19.25,-19.29l38.5 0z"/>
  </g>
  <g>
   <path class="fil1" d="M85.92 154.01c-10.66,0 -19.29,-8.62 -19.29,-19.25 0,-10.63 8.64,-19.25 19.29,-19.25l0 38.5zm97.66 0l-97.66 0 0 -38.5 97.66 0 0 38.5zm0 -38.5c10.66,0 19.29,8.62 19.29,19.25 0,10.63 -8.64,19.25 -19.29,19.25l0 -38.5z"/>
  </g>
 </g>
</svg>
