<?xml version="1.0" encoding="UTF-8"?>
<!DOCTYPE svg PUBLIC "-//W3C//DTD SVG 1.1//EN" "http://www.w3.org/Graphics/SVG/1.1/DTD/svg11.dtd">
<!-- Creator: CorelDRAW 2017 -->
<svg xmlns="http://www.w3.org/2000/svg" xml:space="preserve" width="141.469mm" height="141.469mm" version="1.1" style="shape-rendering:geometricPrecision; text-rendering:geometricPrecision; image-rendering:optimizeQuality; fill-rule:evenodd; clip-rule:evenodd"
viewBox="0 0 437.41 437.41"
 xmlns:xlink="http://www.w3.org/1999/xlink">
 <defs>
  <style type="text/css">
   <![CDATA[
    .fil0 {fill:#FF9736;fill-rule:nonzero}
   ]]>
  </style>
 </defs>
 <g id="Слой_x0020_1">
  <metadata id="CorelCorpID_0Corel-Layer"/>
  <g>
   <path class="fil0" d="M358.59 51.92l-279.77 0 0 -51.92 279.77 0 0 0 0 51.92zm78.82 26.9l-51.92 0 0 0 -0.04 -1.39 -0.1 -1.36 -0.17 -1.33 -0.24 -1.31 -0.3 -1.28 -0.36 -1.26 -0.42 -1.24 -0.48 -1.21 -0.54 -1.19 -0.6 -1.16 -0.65 -1.13 -0.7 -1.1 -0.76 -1.06 -0.81 -1.03 -0.86 -0.99 -0.9 -0.95 -0.95 -0.9 -0.99 -0.86 -1.03 -0.81 -1.06 -0.76 -1.1 -0.71 -1.13 -0.65 -1.16 -0.6 -1.18 -0.54 -1.21 -0.48 -1.24 -0.42 -1.26 -0.36 -1.28 -0.3 -1.31 -0.24 -1.33 -0.17 -1.36 -0.1 -1.39 -0.04 0 -51.92 4.03 0.1 3.99 0.31 3.94 0.5 3.89 0.7 3.82 0.89 3.75 1.07 3.67 1.25 3.58 1.42 3.49 1.59 3.4 1.75 3.3 1.9 3.19 2.05 3.08 2.2 2.97 2.34 2.85 2.47 2.73 2.6 2.6 2.73 2.47 2.85 2.34 2.97 2.2 3.08 2.05 3.19 1.9 3.3 1.75 3.4 1.59 3.49 1.42 3.58 1.25 3.67 1.07 3.75 0.89 3.82 0.7 3.89 0.5 3.94 0.31 3.99 0.1 4.03 0 0zm-51.92 279.77l0 -279.77 51.92 0 0 279.77 0 0 -51.92 0zm-26.9 78.82l0 -51.92 0 0 1.39 -0.04 1.36 -0.1 1.33 -0.17 1.31 -0.24 1.28 -0.3 1.26 -0.36 1.24 -0.42 1.21 -0.48 1.19 -0.54 1.16 -0.6 1.13 -0.65 1.1 -0.71 1.06 -0.76 1.03 -0.81 0.99 -0.86 0.95 -0.9 0.9 -0.95 0.86 -0.99 0.81 -1.03 0.76 -1.06 0.71 -1.1 0.65 -1.13 0.6 -1.16 0.54 -1.19 0.48 -1.21 0.42 -1.24 0.36 -1.26 0.3 -1.28 0.24 -1.31 0.17 -1.33 0.1 -1.36 0.04 -1.39 51.92 0 -0.1 4.03 -0.31 3.99 -0.5 3.94 -0.7 3.89 -0.89 3.82 -1.07 3.75 -1.25 3.67 -1.42 3.58 -1.59 3.49 -1.75 3.4 -1.9 3.3 -2.05 3.19 -2.2 3.08 -2.34 2.97 -2.47 2.85 -2.6 2.73 -2.73 2.6 -2.85 2.47 -2.97 2.34 -3.08 2.2 -3.19 2.05 -3.3 1.9 -3.4 1.75 -3.49 1.59 -3.58 1.42 -3.67 1.25 -3.75 1.07 -3.82 0.89 -3.89 0.7 -3.94 0.5 -3.99 0.31 -4.03 0.1 0 0zm-279.77 -51.92l279.77 0 0 51.92 -279.77 0 0 0 0 -51.92zm-78.82 -26.9l51.92 0 0 0 0.04 1.39 0.1 1.36 0.17 1.33 0.24 1.31 0.3 1.28 0.36 1.26 0.42 1.24 0.48 1.21 0.54 1.19 0.6 1.16 0.65 1.13 0.71 1.1 0.76 1.06 0.81 1.03 0.86 0.99 0.9 0.95 0.95 0.9 0.99 0.86 1.03 0.81 1.06 0.76 1.1 0.71 1.13 0.65 1.16 0.6 1.19 0.54 1.21 0.48 1.24 0.42 1.26 0.36 1.28 0.3 1.31 0.24 1.33 0.17 1.36 0.1 1.39 0.04 0 51.92 -4.03 -0.1 -3.99 -0.31 -3.94 -0.5 -3.89 -0.7 -3.82 -0.89 -3.75 -1.07 -3.67 -1.25 -3.58 -1.42 -3.49 -1.59 -3.4 -1.75 -3.3 -1.9 -3.19 -2.05 -3.08 -2.2 -2.97 -2.34 -2.85 -2.47 -2.73 -2.6 -2.6 -2.73 -2.47 -2.85 -2.34 -2.97 -2.2 -3.08 -2.05 -3.19 -1.9 -3.3 -1.75 -3.4 -1.59 -3.49 -1.42 -3.58 -1.25 -3.67 -1.07 -3.75 -0.89 -3.82 -0.7 -3.89 -0.5 -3.94 -0.31 -3.99 -0.1 -4.03 0 0zm51.92 -279.77l0 279.77 -51.92 0 0 -279.77 0 0 51.92 0zm26.9 -78.82l0 51.92 0 0 -1.39 0.04 -1.36 0.1 -1.33 0.17 -1.31 0.24 -1.28 0.3 -1.26 0.36 -1.24 0.42 -1.21 0.48 -1.18 0.54 -1.16 0.6 -1.13 0.65 -1.1 0.71 -1.06 0.76 -1.03 0.81 -0.99 0.86 -0.95 0.9 -0.9 0.95 -0.86 0.99 -0.81 1.03 -0.76 1.06 -0.7 1.1 -0.65 1.13 -0.6 1.16 -0.54 1.19 -0.48 1.21 -0.42 1.24 -0.36 1.26 -0.3 1.28 -0.24 1.31 -0.17 1.33 -0.1 1.36 -0.04 1.39 -51.92 0 0.1 -4.03 0.31 -3.99 0.5 -3.94 0.7 -3.89 0.89 -3.82 1.07 -3.75 1.25 -3.67 1.42 -3.58 1.59 -3.49 1.75 -3.4 1.9 -3.3 2.05 -3.19 2.2 -3.08 2.34 -2.97 2.47 -2.85 2.6 -2.73 2.73 -2.6 2.85 -2.47 2.97 -2.34 3.08 -2.2 3.19 -2.05 3.3 -1.9 3.4 -1.75 3.49 -1.59 3.58 -1.42 3.67 -1.25 3.75 -1.07 3.82 -0.89 3.89 -0.7 3.94 -0.5 3.99 -0.31 4.03 -0.1 0 0z"/>
  </g>
 </g>
</svg>
