<?xml version="1.0" encoding="UTF-8"?>
<!DOCTYPE svg PUBLIC "-//W3C//DTD SVG 1.1//EN" "http://www.w3.org/Graphics/SVG/1.1/DTD/svg11.dtd">
<!-- Creator: CorelDRAW 2017 -->
<svg xmlns="http://www.w3.org/2000/svg" xml:space="preserve" width="117.258mm" height="117.258mm" version="1.1" style="shape-rendering:geometricPrecision; text-rendering:geometricPrecision; image-rendering:optimizeQuality; fill-rule:evenodd; clip-rule:evenodd"
viewBox="0 0 335.52 335.52"
 xmlns:xlink="http://www.w3.org/1999/xlink">
 <defs>
  <style type="text/css">
   <![CDATA[
    .fil0 {fill:#FF9736;fill-rule:nonzero}
    .fil1 {fill:white;fill-rule:nonzero}
   ]]>
  </style>
 </defs>
 <g id="Слой_x0020_1">
  <metadata id="CorelCorpID_0Corel-Layer"/>
  <g>
   <path class="fil0" d="M262.58 48.06l-189.64 0 0 -48.06 189.64 0 0 0 0 48.06zm72.94 24.89l-48.06 0 0 0 -0.03 -1.28 -0.1 -1.25 -0.16 -1.23 -0.22 -1.21 -0.28 -1.19 -0.33 -1.17 -0.39 -1.14 -0.44 -1.12 -0.5 -1.1 -0.55 -1.07 -0.6 -1.05 -0.65 -1.02 -0.7 -0.98 -0.75 -0.95 -0.79 -0.92 -0.84 -0.88 -0.88 -0.84 -0.92 -0.79 -0.95 -0.75 -0.98 -0.7 -1.02 -0.65 -1.05 -0.6 -1.07 -0.55 -1.1 -0.5 -1.12 -0.44 -1.14 -0.39 -1.17 -0.33 -1.19 -0.28 -1.21 -0.22 -1.23 -0.16 -1.25 -0.1 -1.28 -0.03 0 -48.06 3.73 0.1 3.7 0.28 3.65 0.47 3.6 0.65 3.53 0.82 3.47 0.99 3.39 1.15 3.32 1.31 3.23 1.47 3.14 1.62 3.05 1.76 2.95 1.9 2.85 2.03 2.75 2.16 2.64 2.29 2.53 2.41 2.41 2.53 2.29 2.64 2.16 2.75 2.03 2.85 1.9 2.95 1.76 3.05 1.62 3.14 1.47 3.23 1.31 3.32 1.16 3.39 0.99 3.47 0.82 3.53 0.65 3.6 0.47 3.65 0.28 3.7 0.1 3.73 0 0zm-48.06 189.64l0 -189.64 48.06 0 0 189.64 0 0 -48.06 0zm-24.89 72.94l0 -48.06 0 0 1.28 -0.03 1.25 -0.1 1.23 -0.16 1.21 -0.22 1.19 -0.28 1.17 -0.33 1.14 -0.39 1.12 -0.44 1.1 -0.5 1.07 -0.55 1.05 -0.6 1.02 -0.65 0.98 -0.7 0.95 -0.75 0.92 -0.79 0.88 -0.84 0.84 -0.88 0.79 -0.92 0.75 -0.95 0.7 -0.98 0.65 -1.02 0.6 -1.05 0.55 -1.07 0.5 -1.1 0.44 -1.12 0.39 -1.14 0.33 -1.17 0.28 -1.19 0.22 -1.21 0.16 -1.23 0.1 -1.25 0.03 -1.28 48.06 0 -0.1 3.73 -0.28 3.7 -0.47 3.65 -0.65 3.6 -0.82 3.53 -0.99 3.47 -1.16 3.39 -1.31 3.32 -1.47 3.23 -1.62 3.14 -1.76 3.05 -1.9 2.95 -2.03 2.85 -2.16 2.75 -2.29 2.64 -2.41 2.53 -2.53 2.41 -2.64 2.29 -2.75 2.16 -2.85 2.03 -2.95 1.9 -3.05 1.76 -3.14 1.62 -3.23 1.47 -3.32 1.31 -3.39 1.15 -3.47 0.99 -3.53 0.82 -3.6 0.65 -3.65 0.47 -3.7 0.28 -3.73 0.1 0 0zm-189.64 -48.06l189.64 0 0 48.06 -189.64 0 0 0 0 -48.06zm-72.94 -24.89l48.06 0 0 0 0.03 1.28 0.1 1.25 0.16 1.23 0.22 1.21 0.28 1.19 0.33 1.17 0.39 1.14 0.44 1.12 0.5 1.1 0.55 1.07 0.6 1.05 0.65 1.02 0.7 0.98 0.75 0.95 0.79 0.92 0.84 0.88 0.88 0.84 0.92 0.79 0.95 0.75 0.98 0.7 1.02 0.65 1.05 0.6 1.07 0.55 1.1 0.5 1.12 0.44 1.14 0.39 1.17 0.33 1.19 0.28 1.21 0.22 1.23 0.16 1.25 0.1 1.28 0.03 0 48.06 -3.73 -0.1 -3.7 -0.28 -3.65 -0.47 -3.6 -0.65 -3.53 -0.82 -3.47 -0.99 -3.39 -1.15 -3.32 -1.31 -3.23 -1.47 -3.14 -1.62 -3.05 -1.76 -2.95 -1.9 -2.85 -2.03 -2.75 -2.16 -2.64 -2.29 -2.53 -2.41 -2.41 -2.53 -2.29 -2.64 -2.16 -2.75 -2.03 -2.85 -1.9 -2.95 -1.76 -3.05 -1.62 -3.14 -1.47 -3.23 -1.31 -3.32 -1.16 -3.39 -0.99 -3.47 -0.82 -3.53 -0.65 -3.6 -0.47 -3.65 -0.28 -3.7 -0.1 -3.73 0 0zm48.06 -189.64l0 189.64 -48.06 0 0 -189.64 0 0 48.06 0zm24.89 -72.94l0 48.06 0 0 -1.28 0.03 -1.25 0.1 -1.23 0.16 -1.21 0.22 -1.19 0.28 -1.17 0.33 -1.14 0.39 -1.12 0.44 -1.1 0.5 -1.07 0.55 -1.05 0.6 -1.02 0.65 -0.98 0.7 -0.95 0.75 -0.92 0.79 -0.88 0.84 -0.84 0.88 -0.79 0.92 -0.75 0.95 -0.7 0.98 -0.65 1.02 -0.6 1.05 -0.55 1.07 -0.5 1.1 -0.44 1.12 -0.39 1.14 -0.33 1.17 -0.28 1.19 -0.22 1.21 -0.16 1.23 -0.1 1.25 -0.03 1.28 -48.06 0 0.1 -3.73 0.28 -3.7 0.47 -3.65 0.65 -3.6 0.82 -3.53 0.99 -3.47 1.16 -3.39 1.31 -3.32 1.47 -3.23 1.62 -3.14 1.76 -3.05 1.9 -2.95 2.03 -2.85 2.16 -2.75 2.29 -2.64 2.41 -2.53 2.53 -2.41 2.64 -2.29 2.75 -2.16 2.85 -2.03 2.95 -1.9 3.05 -1.76 3.14 -1.62 3.23 -1.47 3.32 -1.31 3.39 -1.15 3.47 -0.99 3.53 -0.82 3.6 -0.65 3.65 -0.47 3.7 -0.28 3.73 -0.1 0 0z"/>
  </g>
  <g>
   <path class="fil1" d="M106.96 191.38c-13.26,0 -24.02,-10.73 -24.02,-23.97 0,-13.24 10.75,-23.97 24.02,-23.97l0 47.93zm121.58 0l-121.58 0 0 -47.93 121.58 0 0 47.93zm0 -47.93c13.26,0 24.02,10.73 24.02,23.97 0,13.24 -10.75,23.97 -24.02,23.97l0 -47.93z"/>
  </g>
 </g>
</svg>
