<?xml version="1.0" encoding="UTF-8"?>
<!DOCTYPE svg PUBLIC "-//W3C//DTD SVG 1.1//EN" "http://www.w3.org/Graphics/SVG/1.1/DTD/svg11.dtd">
<!-- Creator: CorelDRAW 2017 -->
<svg xmlns="http://www.w3.org/2000/svg" xml:space="preserve" width="162.771mm" height="146.94mm" version="1.1" style="shape-rendering:geometricPrecision; text-rendering:geometricPrecision; image-rendering:optimizeQuality; fill-rule:evenodd; clip-rule:evenodd"
viewBox="0 0 248.58 224.4"
 xmlns:xlink="http://www.w3.org/1999/xlink">
 <defs>
  <style type="text/css">
   <![CDATA[
    .fil0 {fill:white}
   ]]>
  </style>
 </defs>
 <g id="Слой_x0020_1">
  <metadata id="CorelCorpID_0Corel-Layer"/>
  <path class="fil0" d="M154.05 17.91l89.39 154.8c3.52,6.08 5.14,12.46 5.14,18.5 0,5.86 -1.52,11.51 -4.31,16.44 -2.8,4.93 -6.88,9.11 -12.02,12.06 -5.11,2.97 -11.22,4.69 -18.03,4.69l-179.08 0c-6.93,0 -13.26,-1.8 -18.55,-4.84 -5.1,-2.94 -9.23,-7.09 -12.09,-11.95 -2.89,-4.9 -4.49,-10.54 -4.49,-16.42 0,-5.84 1.57,-11.98 5.03,-17.94l89.54 -155.08c3.47,-6.02 8.16,-10.63 13.44,-13.66 5.08,-2.95 10.75,-4.48 16.39,-4.5 5.66,-0.04 11.35,1.41 16.45,4.34 5.1,2.94 9.64,7.38 13.05,13.29l0.15 0.27zm33.45 84.08l-44.92 -77.78c-2.23,-3.86 -5.11,-6.71 -8.27,-8.54 -3.05,-1.75 -6.46,-2.63 -9.81,-2.6 -3.36,0.02 -6.81,0.96 -9.92,2.76 -3.36,1.9 -6.4,4.9 -8.69,8.88l-89.54 155.1c-2.2,3.8 -3.21,7.7 -3.21,11.37 0,3.58 0.95,6.94 2.64,9.82 1.72,2.91 4.22,5.44 7.33,7.22 3.31,1.9 7.4,3.04 12.03,3.04l179.08 0c4.45,0 8.34,-1.06 11.47,-2.86 3.06,-1.74 5.51,-4.26 7.18,-7.19 1.65,-2.94 2.56,-6.37 2.56,-9.99 0,-3.91 -1.05,-8 -3.32,-11.93l-44.62 -77.3zm-79.7 -26.83c0,-9.05 7.32,-16.38 16.36,-16.38 9.03,0 16.38,7.33 16.38,16.38l0 54.87c0,9.03 -7.34,16.38 -16.38,16.38 -9.05,0 -16.36,-7.34 -16.36,-16.38l0 -54.87zm16.81 82.49c9.06,0 16.38,7.32 16.38,16.38 0,9.06 -7.32,16.38 -16.38,16.38 -9.03,0 -16.36,-7.32 -16.36,-16.38 0,-9.06 7.33,-16.38 16.36,-16.38z"/>
 </g>
</svg>
