<?xml version="1.0" encoding="UTF-8"?>
<!DOCTYPE svg PUBLIC "-//W3C//DTD SVG 1.1//EN" "http://www.w3.org/Graphics/SVG/1.1/DTD/svg11.dtd">
<!-- Creator: CorelDRAW 2017 -->
<svg xmlns="http://www.w3.org/2000/svg" xml:space="preserve" width="141.541mm" height="125.791mm" version="1.1" style="shape-rendering:geometricPrecision; text-rendering:geometricPrecision; image-rendering:optimizeQuality; fill-rule:evenodd; clip-rule:evenodd"
viewBox="0 0 236.58 210.25"
 xmlns:xlink="http://www.w3.org/1999/xlink">
 <defs>
  <style type="text/css">
   <![CDATA[
    .fil0 {fill:white}
   ]]>
  </style>
 </defs>
 <g id="Слой_x0020_1">
  <metadata id="CorelCorpID_0Corel-Layer"/>
  <path class="fil0" d="M28.73 0l179.12 0c7.91,0 15.11,3.23 20.31,8.42 5.18,5.2 8.42,12.4 8.42,20.3l0 107.5c0,7.91 -3.23,15.11 -8.42,20.3 -5.2,5.18 -12.4,8.43 -20.31,8.43l-179.12 0c-7.91,0 -15.11,-3.25 -20.31,-8.43 -5.18,-5.18 -8.42,-12.39 -8.42,-20.3l0 -107.5c0,-7.9 3.23,-15.1 8.42,-20.3 5.2,-5.18 12.4,-8.42 20.31,-8.42zm-15.63 131.67l210.39 0 0 -102.96c0,-4.27 -1.77,-8.18 -4.6,-11.02 -2.84,-2.82 -6.75,-4.6 -11.03,-4.6l-179.12 0c-4.28,0 -8.2,1.77 -11.04,4.6 -2.82,2.84 -4.6,6.75 -4.6,11.02l0 102.96zm58.33 78.58c-7.23,0 -13.09,-5.87 -13.09,-13.09 0,-7.23 5.87,-13.09 13.09,-13.09l93.74 0c7.23,0 13.09,5.87 13.09,13.09 0,7.23 -5.87,13.09 -13.09,13.09l-93.74 0z"/>
 </g>
</svg>
