<?xml version="1.0" encoding="UTF-8"?>
<!DOCTYPE svg PUBLIC "-//W3C//DTD SVG 1.1//EN" "http://www.w3.org/Graphics/SVG/1.1/DTD/svg11.dtd">
<!-- Creator: CorelDRAW 2017 -->
<svg xmlns="http://www.w3.org/2000/svg" xml:space="preserve" width="102.599mm" height="154.354mm" version="1.1" style="shape-rendering:geometricPrecision; text-rendering:geometricPrecision; image-rendering:optimizeQuality; fill-rule:evenodd; clip-rule:evenodd"
viewBox="0 0 73.21 110.14"
 xmlns:xlink="http://www.w3.org/1999/xlink">
 <defs>
  <style type="text/css">
   <![CDATA[
    .fil0 {fill:white;fill-rule:nonzero}
   ]]>
  </style>
 </defs>
 <g id="Слой_x0020_1">
  <metadata id="CorelCorpID_0Corel-Layer"/>
  <path class="fil0" d="M36.61 0c10.11,0 19.27,4.11 25.89,10.72 6.61,6.63 10.72,15.79 10.72,25.89 0,10.11 -4.11,19.27 -10.72,25.89 -2.35,2.35 -5.03,4.39 -7.96,6.04l0 23.2c0,3.57 -1.47,6.83 -3.81,9.17 -1.66,1.66 -3.78,2.88 -6.15,3.45 -1.09,3.37 -4.24,5.79 -7.97,5.79 -3.72,0 -6.88,-2.43 -7.97,-5.79 -2.37,-0.57 -4.49,-1.79 -6.15,-3.45 -2.34,-2.34 -3.8,-5.6 -3.8,-9.17l0 -23.21c-2.92,-1.65 -5.6,-3.69 -7.95,-6.03 -6.63,-6.61 -10.73,-15.78 -10.73,-25.89 0,-10.1 4.11,-19.25 10.72,-25.87 6.63,-6.63 15.79,-10.73 25.89,-10.73zm-2.96 51.82c0,-1.63 1.33,-2.96 2.96,-2.96 1.63,0 2.96,1.33 2.96,2.96l0 16.98c0,0.29 -2.96,-1.31 0.08,-1.65l0.1 -0.01 0.01 0 0.11 -0.01 0.11 -0.01 0.11 -0.01 0.05 -0.01 0.07 -0.01 0.11 -0.01 0.11 -0.01 0.1 -0.02 0.01 0 0.11 -0.01 0.11 -0.02 0.11 -0.01 0.04 -0.01 0.07 -0.01 0.11 -0.01 0.11 -0.02 0.1 -0.02 0.01 0 0.11 -0.02 0.22 -0.03 0.04 -0.01 0.07 -0.01 0.11 -0.02 0.11 -0.02 0.09 -0.02 0.01 0 0.11 -0.02 0.21 -0.04 0.05 -0.01 1.01 -0.21 0.11 -0.02 0 -0.01c5.68,-1.3 10.75,-4.18 14.77,-8.2 5.55,-5.55 8.99,-13.23 8.99,-21.7 0,-8.47 -3.44,-16.15 -8.99,-21.7 -5.55,-5.54 -13.23,-8.99 -21.7,-8.99 -8.47,0 -16.14,3.44 -21.7,8.98 -5.55,5.57 -8.99,13.24 -8.99,21.71 0,8.47 3.44,16.15 8.99,21.7 3.99,3.99 9.08,6.89 14.77,8.2l0 0.01 0.11 0.02 1.02 0.21 0.04 0.01 0.21 0.04 0.11 0.02 0.01 0 0.09 0.02 0.11 0.02 0.11 0.02 0.07 0.01 0.04 0.01 0.22 0.03 0.11 0.02 0.01 0 0.1 0.02 0.11 0.02 0.11 0.01 0.07 0.01 0.04 0.01 0.11 0.01 0.11 0.02 0.11 0.01 0.02 0 0.21 0.03 0.11 0.01 0.07 0.01 0.04 0.01 0.11 0.01 0.11 0.01 0.11 0.01 0.01 0 0.1 0.01c3.04,0.34 0.08,2.43 0.08,1.65l0 -16.98zm-3.5 -6.17c-1.63,0 -2.96,-1.33 -2.96,-2.96 0,-1.63 1.33,-2.96 2.96,-2.96l12.91 0c1.63,0 2.96,1.33 2.96,2.96 0,1.63 -1.33,2.96 -2.96,2.96l-12.91 0zm0 -8.97c-1.63,0 -2.96,-1.33 -2.96,-2.96 0,-1.63 1.33,-2.96 2.96,-2.96l12.91 0c1.63,0 2.96,1.33 2.96,2.96 0,1.63 -1.33,2.96 -2.96,2.96l-12.91 0zm18.46 34.51c-1.22,0.43 -2.47,0.78 -3.74,1.08l-0.02 0 -0.13 0.03 -0.12 0.03 -1.02 0.21 -0.04 0.01 -0.09 0.01 -0.12 0.02 -0.13 0.02 -0.1 0.02 -0.03 0 -0.13 0.02 -0.12 0.02 -0.13 0.02 -0.04 0.01 -0.09 0.01 -0.52 0.08 -0.13 0.02 -0.39 0.05 -0.13 0.02 -0.11 0.02 -0.02 0 -0.13 0.02 -0.4 0.05 -0.13 0.01 -0.13 0.02 -0.11 0.01 -0.02 0 -0.13 0.01 -0.14 0.01 -0.13 0.01 -0.04 0.01 -0.09 0.01 -0.14 0.01 -0.13 0.01 -0.11 0.01 -0.02 0 -0.14 0.01 -0.13 0.01 -0.13 0.01 -0.05 0 -0.08 0.01 -0.13 0.01 -0.14 0.01 -0.12 0.01 -0.01 0 -0.14 0.01 -0.13 0.01 -0.14 0.01 -0.05 0 -0.08 0.01 -0.14 0.01 -0.13 0 -0.12 0.01 -0.01 0 -0.13 0.01 -0.14 0 -0.14 0 -0.06 0 -0.07 0.01 -0.14 0 -0.13 0 -0.14 0 -0.14 0 -0.13 0 -0.14 0 -0.07 -0.01 -0.06 0 -0.14 0 -0.14 0 -0.13 -0.01 -0.01 0 -0.12 -0.01 -0.13 0 -0.14 -0.01 -0.08 -0.01 -0.05 0 -0.14 -0.01 -0.13 -0.01 -0.14 -0.01 -0.01 0 -0.12 -0.01 -0.14 -0.01 -0.13 -0.01 -0.08 -0.01 -0.05 0 -0.13 -0.01 -0.13 -0.01 -0.14 -0.01 -0.02 0 -0.11 -0.01 -0.13 -0.01 -0.14 -0.01 -0.08 -0.01 -0.05 -0.01 -0.13 -0.01 -0.14 -0.01 -0.13 -0.01 -0.02 0 -0.11 -0.01 -0.13 -0.02 -0.13 -0.01 -0.09 -0.01 -0.05 -0.01 -0.26 -0.03 -0.13 -0.02 -0.02 0 -0.11 -0.02 -0.13 -0.02 -0.13 -0.02 -0.13 -0.02 -0.13 -0.02 -0.13 -0.02 -0.52 -0.08 -0.08 -0.01 -0.05 -0.01 -0.13 -0.02 -0.12 -0.02 -0.13 -0.02 -0.02 0 -0.11 -0.02 -0.13 -0.02 -0.12 -0.02 -0.09 -0.01 -0.04 -0.01 -0.25 -0.05 -0.13 -0.02 -0.02 0 -0.11 -0.03 -0.12 -0.02 -0.13 -0.03 -0.25 -0.05 -0.12 -0.03 -0.13 -0.03 -0.02 0 -0.11 -0.03 -0.06 -0.01 -0.8 -0.2 -0.06 -0.02 -0.05 -0.01 -0.06 -0.02 -0.11 -0.03 -0.06 -0.01 0 -0.01 -0.06 -0.01 -0.05 -0.02 -0.12 -0.03 -0.05 -0.02 -0.85 -0.25 -0.06 -0.02 -0.06 -0.02 -0.05 -0.01 -0.01 -0.01 -0.06 -0.02 -0.05 -0.02 -0.06 -0.02 -0.05 -0.02 -0.06 -0.02 -0.34 -0.11 -0.05 -0.02 -0.06 -0.02 -0.22 -0.08 -0.05 -0.02 -0.11 -0.04 0 20.54c0,1.93 0.8,3.7 2.08,4.98 1.28,1.28 3.05,2.08 4.98,2.08l9.9 0c1.93,0 3.7,-0.8 4.97,-2.08 1.28,-1.28 2.08,-3.05 2.08,-4.98l0 -20.54z"/>
 </g>
</svg>
