<?xml version="1.0" encoding="UTF-8"?>
<!DOCTYPE svg PUBLIC "-//W3C//DTD SVG 1.1//EN" "http://www.w3.org/Graphics/SVG/1.1/DTD/svg11.dtd">
<!-- Creator: CorelDRAW 2017 -->
<svg xmlns="http://www.w3.org/2000/svg" xml:space="preserve" width="103.975mm" height="155.042mm" version="1.1" style="shape-rendering:geometricPrecision; text-rendering:geometricPrecision; image-rendering:optimizeQuality; fill-rule:evenodd; clip-rule:evenodd"
viewBox="0 0 84.2 125.56"
 xmlns:xlink="http://www.w3.org/1999/xlink">
 <defs>
  <style type="text/css">
   <![CDATA[
    .fil0 {fill:white}
   ]]>
  </style>
 </defs>
 <g id="Слой_x0020_1">
  <metadata id="CorelCorpID_0Corel-Layer"/>
  <path class="fil0" d="M42.1 0c23.25,0 42.1,18.85 42.1,42.1 0,15.87 -8.79,29.69 -21.76,36.86l0 25.7c0,4.03 -1.66,7.72 -4.32,10.39 -1.89,1.89 -4.29,3.28 -6.98,3.93 -1.24,3.82 -4.81,6.57 -9.04,6.57 -4.22,0 -7.81,-2.75 -9.04,-6.57 -2.69,-0.65 -5.1,-2.03 -6.98,-3.91 -2.65,-2.67 -4.32,-6.36 -4.32,-10.41l0 -25.7c-12.97,-7.17 -21.76,-20.99 -21.76,-36.86 0,-23.25 18.85,-42.1 42.1,-42.1zm13.63 81.94c-4.28,1.46 -8.86,2.26 -13.63,2.26 -4.77,0 -9.35,-0.8 -13.63,-2.26l0 22.73c0,2.2 0.91,4.21 2.35,5.66 1.46,1.44 3.47,2.36 5.66,2.36l11.24 0c2.19,0 4.2,-0.91 5.65,-2.36 1.45,-1.45 2.36,-3.46 2.36,-5.65l0 -22.73zm-16.99 -22.57c0,-1.85 1.5,-3.36 3.36,-3.36 1.85,0 3.36,1.5 3.36,3.36l0 14.66c0,0.35 -0.05,0.68 -0.15,1.01l-0.04 0.13 -0.01 0.02 -0.06 0.15 -0.03 0.07 -0.11 0.21 -0.01 0.02c-0.15,0.27 -0.33,0.51 -0.54,0.73l-0.03 0.03 -0.07 0.07 -0.3 0.25 0 0.01 -0.11 0.07 -0.03 0.01 -0.13 0.09 -0.06 0.04 -0.08 0.04 -0.03 0.02 -0.11 0.05 -0.01 0.01 -0.12 0.05 -0.01 0.01 -0.11 0.04 -0.05 0.02 -0.08 0.03 -0.07 0.03 -0.05 0.01 -0.11 0.03 -0.02 0.01 -0.13 0.03 -0.01 0 -0.13 0.02 -0.04 0.01 -0.09 0.01 -0.07 0.01 -0.06 0.01 -0.11 0.01 -0.03 0.01 -0.14 0 -0.14 0 -0.03 -0.01 -0.11 -0.01 -0.06 -0.01 -0.07 -0.01 -0.09 -0.01 -0.04 -0.01 -0.13 -0.02 -0.01 0 -0.13 -0.03 -0.02 -0.01 -0.11 -0.03 -0.05 -0.01 -0.07 -0.03 -0.08 -0.03 -0.05 -0.02 -0.11 -0.04 -0.01 -0.01 -0.12 -0.05 -0.01 -0.01 -0.11 -0.05 -0.03 -0.02 -0.08 -0.04 -0.06 -0.04 -0.13 -0.09 -0.03 -0.01 -0.11 -0.07 0 -0.01 -0.3 -0.25 -0.07 -0.07 -0.03 -0.03c-0.21,-0.21 -0.4,-0.47 -0.54,-0.73l-0.01 -0.02 -0.11 -0.21 -0.03 -0.07 -0.06 -0.15 -0.01 -0.02 -0.04 -0.13c-0.1,-0.32 -0.15,-0.66 -0.15,-1.01l0 -14.66zm-3.97 -7c-1.85,0 -3.36,-1.5 -3.36,-3.36 0,-1.85 1.5,-3.36 3.36,-3.36l14.66 0c1.85,0 3.36,1.5 3.36,3.36 0,1.85 -1.5,3.36 -3.36,3.36l-14.66 0zm0 -10.18c-1.85,0 -3.36,-1.5 -3.36,-3.36 0,-1.85 1.5,-3.36 3.36,-3.36l14.66 0c1.85,0 3.36,1.5 3.36,3.36 0,1.85 -1.5,3.36 -3.36,3.36l-14.66 0z"/>
 </g>
</svg>
