<?xml version="1.0" encoding="UTF-8"?>
<!DOCTYPE svg PUBLIC "-//W3C//DTD SVG 1.1//EN" "http://www.w3.org/Graphics/SVG/1.1/DTD/svg11.dtd">
<!-- Creator: CorelDRAW 2017 -->
<svg xmlns="http://www.w3.org/2000/svg" xml:space="preserve" width="327.783mm" height="223.378mm" version="1.1" style="shape-rendering:geometricPrecision; text-rendering:geometricPrecision; image-rendering:optimizeQuality; fill-rule:evenodd; clip-rule:evenodd"
viewBox="0 0 1428.71 973.64"
 xmlns:xlink="http://www.w3.org/1999/xlink">
 <defs>
  <style type="text/css">
   <![CDATA[
    .fil0 {fill:#FFB14A;fill-rule:nonzero}
   ]]>
  </style>
 </defs>
 <g id="Слой_x0020_1">
  <metadata id="CorelCorpID_0Corel-Layer"/>
  <path class="fil0" d="M279.94 0l868.89 0 2.25 0 1.37 0 0.88 0.06 2.25 0 0.44 0 1.81 0.06 1.75 0.06 0.5 0.06 2.25 0.06 0.81 0.06 1.44 0.06 2.12 0.13 0.13 0 2.25 0.19 1.19 0.06 1 0.13 2.25 0.19 0.25 0 1.94 0.19 1.62 0.12 0.63 0.06 2.19 0.25 0.69 0.06 1.5 0.19 2 0.25 0.19 0.06 2.19 0.31 1.06 0.13 1.12 0.19 2.19 0.31 0.19 0 2 0.31 1.44 0.25 0.75 0.13 2.19 0.38 0.5 0.06 1.62 0.31 1.81 0.37 0.37 0.06 2.12 0.44 0.94 0.19 1.19 0.25 2.19 0.44 2.12 0.5 1.25 0.25 0.87 0.25 2.13 0.5 0.37 0.06 1.75 0.5 1.62 0.37 0.44 0.13 2.12 0.56 0.75 0.19 1.38 0.37 1.94 0.56 0.13 0.06 3.19 0.88 1 0.31 2.06 0.69 0.25 0.06 1.81 0.56 1.44 0.44 0.63 0.25 2.06 0.69 0.56 0.19 1.44 0.5 1.81 0.63 0.25 0.06 2.06 0.75 0.94 0.31 1.06 0.44 2 0.75 0.13 0.06 1.87 0.75 1.31 0.44 0.75 0.31 1.94 0.81 0.5 0.19 1.5 0.63 1.62 0.69 0.38 0.19 2 0.81 0.75 0.37 1.19 0.5 1.94 0.88 2 0.87 1.06 0.56 0.88 0.37 1.94 0.94 0.25 0.13 1.69 0.81 1.38 0.69 0.5 0.25 1.94 0.94 0.63 0.37 1.25 0.63 1.75 0.94 0.19 0.06 1.88 1 0.94 0.5 0.94 0.5 3.81 2.13 1.12 0.69 0.81 0.44 1.88 1.12 0.25 0.19 7.25 4.37 1.37 0.94c12.31,7.94 24,16.75 34.88,26.44l0.5 0.37 1.62 1.5 0.38 0.37 9.69 9.31 2.38 2.38 0.19 0.12 6.06 6.38 0.69 0.81 0.75 0.81 1.5 1.62 0 0.06 8.5 9.94 0.19 0.31 1.19 1.44 0.87 1.19 0.44 0.5 2.69 3.5 1 1.37 0.31 0.38 1.31 1.75 0.38 0.56 0.94 1.25 1.06 1.5 0.19 0.25 1.25 1.81 0.5 0.69 0.75 1.12 1.12 1.62 0.13 0.19 1.25 1.81 0.5 0.81 0.69 1 1.19 1.81 0 0.06 1.81 2.81 0.19 0.25 17.56 27.44 -1.69 1.81c16.88,36 26.38,76.13 26.38,118.25l0 413.76c0,37.63 -7.44,73.56 -21.06,106.38l1.38 1.5 -11.81 20.75c-13.31,25.63 -30.5,48.94 -50.69,69.13 -32.88,32.88 -73.94,57.63 -119.69,71l-1.63 0.5 -0.56 0.13 -2.19 0.63 -0.56 0.19 -3.31 0.88 -0.56 0.12 -2.25 0.56 -0.56 0.19 -3.37 0.81 -0.5 0.06 -2.25 0.5 -0.63 0.19 -1.62 0.31 -4.5 0.94 -0.69 0.13 -1.62 0.31 -4.5 0.81 -0.75 0.12 -1.56 0.25 -1.88 0.31 -0.44 0.06 -2.25 0.31 -0.81 0.13 -1.5 0.19 -2 0.31 -0.31 0 -2.31 0.31 -0.88 0.13 -1.44 0.13 -2.06 0.25 -0.25 0 -2.31 0.25 -0.94 0.06 -1.44 0.13 -2.12 0.19 -0.19 0 -2.38 0.19 -1 0.06 -1.31 0.06 -2.25 0.13 -0.13 0 -2.38 0.13 -1.06 0.06 -1.25 0 -2.31 0.13 -0.06 0 -2.37 0 -1.13 0.06 -1.25 0 -2.38 0 -868.89 0 -2.38 0 -1.25 0 -1.12 -0.06 -2.38 0 -0.06 0 -2.31 -0.13 -1.25 0 -1.12 -0.06 -2.38 -0.13 -0.13 0 -2.25 -0.13 -1.31 -0.06 -1.06 -0.06 -2.31 -0.19 -0.13 0 -2.25 -0.19 -1.31 -0.13 -1 -0.06 -2.38 -0.25 -0.13 0 -2.19 -0.25 -1.38 -0.13 -0.94 -0.13 -2.31 -0.31 -0.25 0 -2.06 -0.31 -1.38 -0.19 -0.94 -0.13 -2.31 -0.31 -0.25 -0.06 -2.06 -0.31 -1.37 -0.25 -0.88 -0.12 -2.31 -0.44 -0.25 0 -2 -0.38 -1.44 -0.31 -0.87 -0.13 -2.25 -0.5 -0.31 0 -1.94 -0.44 -1.5 -0.31 -0.75 -0.19 -2.25 -0.5 -0.37 -0.06 -1.88 -0.5 -1.5 -0.31 -0.75 -0.19 -2.19 -0.56 -0.37 -0.12 -1.88 -0.5 -1.5 -0.37 -0.69 -0.19 -2.19 -0.63 -0.44 -0.13 -1.81 -0.5 -1.5 -0.44 -0.69 -0.25 -2.19 -0.63 -0.44 -0.13 -1.69 -0.56 -1.56 -0.5 -0.62 -0.25 -2.19 -0.69 -0.44 -0.12 -1.69 -0.63 -1.56 -0.5 -0.56 -0.25 -2.19 -0.75 -0.5 -0.19 -1.62 -0.63 -1.56 -0.56 -0.56 -0.25 -2.06 -0.81 -0.56 -0.19 -3.19 -1.25 -0.5 -0.25 -2.06 -0.87 -0.56 -0.19 -1.5 -0.69 -1.62 -0.69 -0.44 -0.25 -5.75 -2.56 -0.44 -0.25 -2 -0.94 -0.63 -0.25 -1.44 -0.75 -1.62 -0.75 -0.37 -0.25 -2 -1 -0.63 -0.31 -1.38 -0.75 -4 -2.12 -0.63 -0.31 -1.31 -0.75 -1.69 -0.88 -0.31 -0.19 -1.94 -1.12 -1.94 -1.12 -1.69 -0.94 -0.31 -0.25 -2 -1.19 -0.56 -0.31 -1.37 -0.87 -1.5 -0.88 -0.5 -0.37 -10.75 -7.06 -0.81 -0.63c-13.5,-9.44 -26.19,-20 -37.88,-31.69 -20.06,-20.06 -37.13,-43.19 -50.44,-68.56l-12.25 -21.56 1.44 -1.5c-13.5,-32.81 -20.94,-68.63 -20.94,-106.13l0 -413.76c0,-41.63 9.19,-81.25 25.69,-116.88l-1.94 -1.94 18.44 -28.56 0.25 -0.44 1.75 -2.69 0.06 -0.19 1.81 -2.81 0.5 -0.69 2.5 -3.63 0.81 -1.25 0.44 -0.56 1.25 -1.75 0.25 -0.44 1 -1.38 2.63 -3.56 0.31 -0.5 1 -1.25 1.06 -1.44 0.25 -0.25c4,-5.25 8.25,-10.31 12.63,-15.25l0 -0.06 1.44 -1.56 0.81 -0.94 0.69 -0.69 8.56 -9.06c11,-11 23.06,-21.06 35.75,-30.19l0.19 -0.19 2.75 -1.94 0.63 -0.37 12.94 -8.44 0.56 -0.37 1.31 -0.75 1.56 -1 0.31 -0.13 5.56 -3.25 0.19 -0.06 1.94 -1.06 0.87 -0.5 1 -0.5 5 -2.69 0.69 -0.31c15.88,-8.06 32.63,-14.69 50.06,-19.69l0 -0.06 2.06 -0.56 1.25 -0.37 0.88 -0.19 2.12 -0.56 0.38 -0.13 8.06 -1.94 2 -0.5 0.13 0 4.31 -0.88 2.12 -0.44 0.31 -0.06 1.88 -0.37 1.56 -0.31 0.56 -0.06 2.19 -0.38 0.69 -0.13 1.5 -0.25 1.94 -0.31 0.25 0 2.19 -0.31 1.06 -0.19 1.12 -0.13 2.19 -0.31 0.13 -0.06 2.06 -0.25 1.44 -0.19 0.75 -0.06 2.19 -0.25 0.63 -0.06 1.63 -0.12 1.87 -0.19 0.31 0 2.25 -0.19 1 -0.13 1.19 -0.06 2.25 -0.19 0.06 0 2.19 -0.13 1.37 -0.06 0.88 -0.06 2.25 -0.06 0.5 -0.06 1.75 -0.06 1.81 -0.06 0.44 0 2.25 0 0.88 -0.06 1.38 0 2.25 0zm809.33 479.95c81.13,80.63 163.25,160.88 243.44,242.57 1.5,-9.38 2.25,-19 2.25,-28.81l0 -413.76c0,-14.19 -1.62,-28.13 -4.69,-41.44 -77.19,80.69 -159.13,161.44 -241,241.44zm-993.27 242.69c80.81,-82.19 163.06,-163.19 244.88,-244.38l-241.94 -241.94c-3.37,14 -5.19,28.63 -5.19,43.63l0 413.76c0,9.81 0.75,19.5 2.25,28.94zm1194.64 91.25l-268.44 -268.44c-35.5,34.75 -70.75,69.38 -105.25,103.69l-6.63 6.63 -6.63 6.56 -6.62 6.63c-50.44,50.31 -116.75,75.5 -182.75,75.5 -66.19,0 -132.44,-25.19 -182.75,-75.5l-124.31 -124.31 -269.25 269.25c3.31,3.87 6.81,7.69 10.44,11.31l1.56 1.56 0.19 0.25 5.81 5.44 0.56 0.44c12.19,10.81 25.81,20.19 40.56,27.5l0.25 0.06 1.12 0.63 0.88 0.37 0.44 0.25 7.81 3.5 0.44 0.19 1.38 0.63 0.31 0.06 3.87 1.56 0.31 0.06 2.13 0.81 0.37 0.19 1.44 0.5 0.31 0.13 1.12 0.37 1.06 0.37 0.31 0.13 2.88 0.94 1.12 0.31 0.37 0.13 1.44 0.44 0.44 0.12 1 0.31 1.19 0.31 0.25 0.13 1.5 0.44 0.44 0.06 1 0.31 1.25 0.31 0.25 0.06 1.5 0.37 0.44 0.13 1 0.25 1.25 0.25 0.25 0.06 1.5 0.38 0.5 0.06 1 0.25 1.31 0.25 0.19 0.06 1.5 0.31 0.56 0.06 0.94 0.19 1.31 0.25 0.19 0.06 1.56 0.25 0.56 0.12 0.94 0.13 1.38 0.19 0.13 0.06 1.56 0.25 0.63 0.06 0.94 0.13 1.38 0.19 0.13 0 1.56 0.19 0.63 0.06 0.94 0.13 1.44 0.19 0.06 0 1.56 0.13 0.69 0.06 0.88 0.06 1.5 0.13 0.06 0 1.56 0.12 0.69 0.06 0.87 0.06 1.5 0.06 0.06 0 1.56 0.06 0.75 0.06 0.87 0 1.5 0.06 0.06 0 1.56 0.06 0.81 0 0.81 0 1.56 0 868.89 0 1.56 0 0.81 0 0.81 0 1.56 -0.06 1.62 -0.06 0.81 0 0.75 -0.06 1.56 -0.06 1.56 -0.06 0.81 -0.06 0.75 -0.06 1.56 -0.12 0.06 0 1.5 -0.13 0.87 -0.06 0.69 -0.06 1.56 -0.13 0.06 0 1.5 -0.19 0.81 -0.13 0.75 -0.06 1.5 -0.19 0.12 0 1.44 -0.19 0.88 -0.13 0.69 -0.06 1.5 -0.25 0.12 -0.06 1.38 -0.19 0.88 -0.13 0.69 -0.12 1.5 -0.25 0.13 -0.06 2.31 -0.44 0.56 -0.06 1.5 -0.31 0.19 -0.06 1.31 -0.25 0.94 -0.25 0.56 -0.06 3 -0.69 0.94 -0.25 2 -0.44 0.25 -0.13c25.88,-6.69 49.56,-18.81 69.81,-35.06l0.31 -0.31 0.44 -0.31 4.63 -3.87 0.06 -0.13 1.44 -1.19 0.25 -0.25 0.5 -0.37 0.75 -0.69 0.44 -0.44 0.25 -0.25 0.75 -0.69 1.44 -1.31 0.75 -0.69 0.06 -0.13 0.63 -0.56 0.75 -0.69 0.25 -0.31 0.44 -0.44 0.75 -0.69 0.37 -0.44 0.31 -0.25 0.69 -0.69 0.56 -0.63 0.13 -0.13 0.69 -0.69 0.69 -0.75 0.06 -0.06 0.63 -0.63 0.69 -0.75 0.19 -0.25 0.5 -0.5 0.69 -0.69 0.37 -0.44 0.31 -0.31 0.63 -0.75 0.56 -0.63 0.13 -0.13 0.69 -0.75 0.62 -0.75 0 -0.06 1.25 -1.5zm-459.82 -211.13l147.81 -147.88 42.75 -42.75 261.25 -261.25 -0.56 -0.69 -0.25 -0.19 -0.37 -0.44 -0.63 -0.63 -0.56 -0.5 -0.06 -0.13 -1.25 -1.25 -0.25 -0.19 -0.37 -0.44 -3.88 -3.69 -0.62 -0.5 0 -0.06 -0.69 -0.63 -0.63 -0.56 -1.37 -1.19 -0.63 -0.5 0 -0.06 -0.69 -0.63 -0.69 -0.56 -0.31 -0.25 -0.37 -0.31 -0.63 -0.56 -0.69 -0.56 -0.06 0 -0.63 -0.56 -2.06 -1.69 -0.69 -0.56 -0.06 0 -1.37 -1.06 -0.44 -0.31 -0.25 -0.25 -2.81 -2.12 -0.5 -0.31 -0.25 -0.19 -0.69 -0.56 -0.75 -0.5 -0.13 -0.06 -0.56 -0.44 -0.75 -0.5 -2.19 -1.56 -0.19 -0.06 -1.25 -0.87 -0.56 -0.31 -0.19 -0.19 -6 -3.81 -0.75 -0.44 -3.06 -1.81 -0.75 -0.44 -0.75 -0.38 0 -0.06 -0.81 -0.44c-4.75,-2.62 -9.69,-5.06 -14.69,-7.31l-0.69 -0.25 -0.63 -0.31 -5.25 -2.19 -0.37 -0.13 -6.25 -2.38 -0.13 0 -2.19 -0.75 -0.44 -0.19 -1.37 -0.44 -0.38 -0.06 -0.94 -0.37 -1.19 -0.38 -0.19 -0.06 -1.38 -0.44 -2.81 -0.81 -0.06 0 -1.31 -0.37 -0.88 -0.19 -0.5 -0.19 -1.38 -0.37 -0.37 -0.06 -1.06 -0.31 -1.12 -0.25 -0.25 -0.06 -1.44 -0.38 -0.56 -0.06 -0.88 -0.25 -1.37 -0.31 -4.31 -0.87 -0.25 0 -1.19 -0.25 -1.12 -0.19 -1.75 -0.37 -0.5 -0.06 -0.94 -0.12 -1.37 -0.25 -0.06 0 -1.5 -0.19 -0.75 -0.13 -0.69 -0.13 -1.44 -0.19 -0.19 0 -1.31 -0.19 -1.06 -0.06 -0.38 -0.06 -1.5 -0.19 -0.44 -0.06 -1.06 -0.06 -1.31 -0.13 -0.13 0 -1.5 -0.12 -0.69 -0.06 -0.81 -0.06 -1.5 -0.13 -0.06 0 -1.38 -0.06 -1 -0.06 -0.5 -0.06 -1.5 -0.06 -0.37 0 -1.12 0 -1.25 -0.06 -0.25 0 -1.56 -0.06 -0.62 0 -0.88 0 -1.5 0 -868.89 0 -1.5 0 -0.87 0 -0.63 0 -1.56 0.06 -0.25 0 -1.25 0.06 -1.12 0 -0.38 0 -1.5 0.06 -0.5 0.06 -1 0.06 -1.37 0.06 -0.06 0 -1.5 0.13 -0.75 0.06 -0.75 0.06 -1.5 0.12 -0.13 0 -1.31 0.13 -1 0.06 -0.5 0.06 -1.5 0.19 -0.37 0.06 -1.06 0.06 -1.25 0.19 -0.25 0 -1.44 0.19 -0.62 0.13 -0.81 0.13 -1.5 0.19 0 0.06 -1.44 0.19 -0.88 0.12 -0.56 0.06 -1.75 0.37 -1.12 0.19 -1.12 0.25 -0.31 0 -8.56 1.88 -0.19 0.06 -1.19 0.25 -1 0.31 -0.44 0.06c-21.25,5.5 -41.13,14.81 -58.81,27.06l-0.19 0.19 -2 1.37 -0.69 0.5 -2.75 2.06 -0.12 0.06 -0.69 0.5 -2.75 2.19 -0.06 0 -0.69 0.56 -0.69 0.56 -0.31 0.25 -0.37 0.31 -0.69 0.56 -0.63 0.56 -0.06 0 -0.69 0.56 -0.69 0.56 -0.31 0.31 -0.37 0.25 -1.31 1.19 -0.69 0.56 -0.69 0.56 -0.31 0.31 -0.31 0.31 -0.69 0.56 -0.63 0.63 -0.06 0 -0.63 0.56 -0.63 0.62 -0.38 0.38 -0.31 0.25 -0.63 0.56 -0.63 0.63 -0.06 0.06 -0.56 0.56 -0.69 0.63 -0.37 0.37 -0.25 0.25 -0.63 0.63 -0.63 0.63 -0.06 0.06 -0.56 0.56 -0.62 0.63 -0.38 0.38 -0.25 0.25 -0.63 0.63 261.25 261.25 190.57 190.57c31.94,31.94 74.25,48 116.5,48l2 0 2 -0.06 1.94 -0.06 2 -0.06 2 -0.13 2 -0.13 1.94 -0.12 2 -0.19 2 -0.19 1.94 -0.25 2 -0.25 1.94 -0.25 2 -0.31 1.94 -0.31 2 -0.31 1.94 -0.38 1.94 -0.37 1.94 -0.44 1.94 -0.44 1.94 -0.44 1.94 -0.5 1.94 -0.5 1.94 -0.5 1.94 -0.56 1.88 -0.56 1.94 -0.63 1.88 -0.56 0 -0.06 1.94 -0.63 1.88 -0.63 0 -0.06 1.88 -0.63 0 -0.06 1.87 -0.69 1.88 -0.75 1.81 -0.75 1.87 -0.75 0 -0.06 1.88 -0.75 0 -0.06 1.81 -0.75 0 -0.06 1.81 -0.81 1.81 -0.87 0 -0.06 1.81 -0.88 1.81 -0.88 0 -0.06 1.75 -0.87 0 -0.06 1.81 -0.94 1.75 -1 1.75 -1 0 -0.06 1.75 -1 1.75 -1.06 1.69 -1.06 0 -0.06 1.75 -1.06 0 -0.06 1.69 -1.06 0 -0.06 1.69 -1.06 0 -0.06 1.69 -1.12 0 -0.06 1.62 -1.13 0 -0.06 1.69 -1.19 0 -0.06 1.62 -1.19 0 -0.06 3.25 -2.5 0 -0.06 1.56 -1.25 0 -0.06 1.62 -1.31 0 -0.06 3.13 -2.69 0 -0.06 6.06 -5.81z"/>
 </g>
</svg>
