<?xml version="1.0" encoding="UTF-8"?>
<!DOCTYPE svg PUBLIC "-//W3C//DTD SVG 1.1//EN" "http://www.w3.org/Graphics/SVG/1.1/DTD/svg11.dtd">
<!-- Creator: CorelDRAW 2017 -->
<svg xmlns="http://www.w3.org/2000/svg" xml:space="preserve" width="221.5mm" height="308.865mm" version="1.1" style="shape-rendering:geometricPrecision; text-rendering:geometricPrecision; image-rendering:optimizeQuality; fill-rule:evenodd; clip-rule:evenodd"
viewBox="0 0 653.34 911.03"
 xmlns:xlink="http://www.w3.org/1999/xlink">
 <defs>
  <style type="text/css">
   <![CDATA[
    .fil0 {fill:#FFB14A;fill-rule:nonzero}
   ]]>
  </style>
 </defs>
 <g id="Слой_x0020_1">
  <metadata id="CorelCorpID_0Corel-Layer"/>
  <path class="fil0" d="M653.34 445.51l0 277.7c0,51.53 -21.14,98.65 -55.18,132.64 -33.99,34.04 -81.02,55.18 -132.69,55.18l-277.6 0c-51.67,0 -98.7,-21.14 -132.73,-55.18 -33.99,-33.99 -55.13,-81.02 -55.13,-132.64l0 -277.7c0,-51.67 21.14,-98.65 55.13,-132.69 17.87,-17.87 39.35,-32.19 63.24,-41.76l0 -62.72c0,-57.12 23.42,-109.27 61.15,-147 37.88,-37.88 90.02,-61.34 147.15,-61.34 57.31,0 109.41,23.47 147.15,61.2 37.73,37.69 61.15,89.83 61.15,147.15l0 62.72c23.89,9.58 45.37,23.89 63.24,41.76 33.99,34.08 55.13,81.11 55.13,132.69zm-326.67 36.03c34.65,0 62.76,28.11 62.76,62.76 0,23.18 -12.56,43.42 -31.29,54.28l0 103.58 -62.95 0 0 -103.58c-18.72,-10.86 -31.29,-31.1 -31.29,-54.28 0,-34.65 28.11,-62.76 62.76,-62.76zm-145.39 -223.75l6.59 -0.09 0.05 0c90.88,-1.66 186.59,-1.66 277.46,0l0.09 0 6.59 0.09 0 -49.44c0,-39.96 -16.4,-76.42 -42.66,-102.68 -26.36,-26.36 -62.81,-42.76 -102.73,-42.76 -40.06,0 -76.42,16.35 -102.68,42.62 -26.36,26.4 -42.71,62.76 -42.71,102.82l0 49.44zm314.63 66.6l-14.55 -2.8 -0.57 -0.09 -1 -0.05 -14.32 -0.85 -277.6 0 -14.32 0.85 -0.95 0.05 -0.62 0.09 -14.55 2.8 -0.71 0.14 -1.52 0.43c-21.28,5.88 -40.39,17.11 -55.61,32.33 -22.61,22.61 -36.69,53.9 -36.69,88.22l0 277.7c0,34.32 14.08,65.61 36.69,88.22 22.61,22.61 53.9,36.69 88.27,36.69l277.6 0c34.37,0 65.66,-14.08 88.27,-36.69 22.66,-22.52 36.69,-53.8 36.69,-88.22l0 -277.7c0,-34.46 -14.03,-65.7 -36.6,-88.22 -15.26,-15.17 -34.37,-26.55 -55.7,-32.33l-1.52 -0.43 -0.71 -0.14z"/>
 </g>
</svg>
